<svg width="17" height="17" viewBox="0 0 17 17" fill="none" xmlns="http://www.w3.org/2000/svg">
<path d="M2.83022 1.21394C4.9456 -0.561065 8.02743 -0.370887 9.71369 1.63872C11.3999 3.64832 11.0521 6.71636 8.93671 8.49137C6.82133 10.2664 3.7395 10.0762 2.05324 8.06659C0.366985 6.05699 0.714851 2.98895 2.83022 1.21394Z" fill="#3995FF"/>
<path d="M8.93671 8.49137C11.0521 6.71636 14.1339 6.90654 15.8202 8.91614C17.5064 10.9257 17.1586 13.9938 15.0432 15.7688C12.9278 17.5438 9.84598 17.3536 8.15973 15.344C6.47347 13.3344 6.82133 10.2664 8.93671 8.49137Z" fill="#CDCDCD"/>
<path d="M8.15973 15.344L5.10648 11.7053L12.7669 5.27743L15.8202 8.91614L8.15973 15.344Z" fill="#CDCDCD"/>
<path d="M5.10648 11.7053L2.05324 8.06659L9.71369 1.63872L12.7669 5.27743L5.10648 11.7053Z" fill="#3995FF"/>
</svg>
