<svg width="27" height="14" viewBox="0 0 27 14" fill="none" xmlns="http://www.w3.org/2000/svg">
<path fill-rule="evenodd" clip-rule="evenodd" d="M0 1.5C0 0.5 27 0.5 27 1.5C27 0.39543 20.9558 0 13.5 0C6.04415 0 0 0.5 0 1.5Z" fill="#ABABAB"/>
<path d="M13.5 3.5C20.9558 3.5 27 2.60457 27 1.5C27 0.5 0 0.5 0 1.5C0 2.5 6.04416 3.5 13.5 3.5Z" fill="#6DD1FF"/>
<path fill-rule="evenodd" clip-rule="evenodd" d="M13.5 3.5C20.9558 3.5 27 2.60457 27 1.5V3C20.25 4.5 16.875 5.25 13.5 5.25C10.125 5.25 6.75 4.5 3.3019e-07 3L0 1.5C0 2.5 6.04416 3.5 13.5 3.5ZM1.69262e-06 9.18929L0 9.5C1.03935e-05 14.5 27 14.5286 27 9.5V9.18929C20.25 10.6893 16.875 11.4393 13.5 11.4393C10.125 11.4393 6.75001 10.6893 1.69262e-06 9.18929Z" fill="#D9D9D9"/>
<path d="M3.3019e-07 3L1.69262e-06 9.18929C6.75001 10.6893 10.125 11.4393 13.5 11.4393C16.875 11.4393 20.25 10.6893 27 9.18929V3C20.25 4.5 16.875 5.25 13.5 5.25C10.125 5.25 6.75 4.5 3.3019e-07 3Z" fill="#9971FF"/>
<path d="M11 7.66667H16V9.33333H11V7.66667Z" fill="#64FF92"/>
<path d="M12.6667 6H14.3333V11H12.6667V6Z" fill="#64FF92"/>
</svg>
