<svg width="374" height="374" viewBox="0 0 374 374" fill="none" xmlns="http://www.w3.org/2000/svg">
<circle cx="187" cy="187" r="187" fill="white"/>
<path d="M291.701 109.982L267.169 110.221C266.016 104.553 262.142 89.6824 265.631 85.6262C265.79 84.0996 266.533 82.693 267.705 81.6993C268.876 80.7056 270.386 80.2013 271.921 80.2915C275.723 74.3491 282.056 75.2413 286.337 78.9526C290.645 80.4367 292.269 83.0732 291.701 86.6511C294.891 89.4393 295.48 92.8314 294.047 96.6927L291.701 109.982Z" fill="#2F2E41"/>
<path d="M289.339 125.07L271.641 122.623L268.101 117.458C272.977 114.229 274.702 109.718 272.457 103.593L284.71 103.322C284.136 108.776 285.943 112.999 290.973 115.555L289.339 125.07Z" fill="#FFB9B9"/>
<path d="M267.456 284.455L266.779 293.692C266.749 294.11 266.808 294.53 266.953 294.923C267.098 295.317 267.326 295.675 267.621 295.973C267.916 296.271 268.272 296.503 268.664 296.653C269.056 296.803 269.476 296.867 269.895 296.842L274.647 296.554C274.867 296.541 275.082 296.479 275.275 296.374C275.469 296.269 275.637 296.122 275.767 295.944C275.898 295.766 275.988 295.562 276.03 295.346C276.072 295.13 276.067 294.907 276.013 294.694L273.375 284.159L267.456 284.455Z" fill="#E6E6E6"/>
<path d="M282.841 284.159L280.203 294.694C280.149 294.907 280.144 295.13 280.186 295.346C280.229 295.562 280.318 295.767 280.449 295.944C280.579 296.122 280.747 296.269 280.941 296.374C281.134 296.479 281.349 296.541 281.569 296.554L286.321 296.842C286.74 296.867 287.16 296.803 287.552 296.653C287.944 296.503 288.3 296.271 288.595 295.973C288.89 295.675 289.118 295.317 289.263 294.923C289.408 294.53 289.467 294.11 289.437 293.692L288.76 284.455L282.841 284.159Z" fill="#E6E6E6"/>
<path d="M289.067 285.737L282.654 285.095L276.27 216.958L273.857 284.875L267.556 284.65L256.937 190.587H297.508L289.067 285.737Z" fill="#6C63FF"/>
<path d="M279.265 107.943C286.032 107.943 291.517 102.466 291.517 95.7096C291.517 88.9532 286.032 83.4761 279.265 83.4761C272.498 83.4761 267.012 88.9532 267.012 95.7096C267.012 102.466 272.498 107.943 279.265 107.943Z" fill="#FFB9B9"/>
<path d="M303.498 192.762L253.942 193.306C261.296 165.353 265.696 139.387 258.026 121.536L270.279 115.555C276.187 121.708 282.767 121.073 289.884 115.011L301.592 118.002C299.587 141.411 300.485 166.482 303.498 192.762Z" fill="#6C63FF"/>
<path d="M240.328 163.946L271.096 176.179L277.975 178.199C278.283 178.289 278.606 178.317 278.924 178.279C279.243 178.242 279.55 178.141 279.829 177.982C280.107 177.823 280.35 177.609 280.544 177.354C280.737 177.098 280.877 176.807 280.955 176.496C281.091 175.951 281.03 175.376 280.782 174.872C280.534 174.368 280.115 173.968 279.6 173.743L272.457 171.558L250.947 159.052L255.44 147.226L246.046 142.197L240.328 163.946Z" fill="#FFB9B9"/>
<path d="M240.6 141.653C246.454 143.933 251.11 147.825 254.759 153.071L266.195 136.488L258.026 121.536L240.6 141.653Z" fill="#6C63FF"/>
<path d="M293.074 93.7268C288.101 92.4475 283.212 92.2718 278.459 93.8946C275.431 95.3586 271.795 95.2237 267.752 94.0174V81.812L289.581 82.3932L293.074 93.7268Z" fill="#2F2E41"/>
<path d="M270.994 149.692C270.032 149.693 269.109 150.075 268.429 150.754C267.749 151.434 267.366 152.355 267.365 153.315L268.797 183.253C268.798 184.214 269.181 185.135 269.861 185.814C270.542 186.493 271.464 186.875 272.426 186.876H288.803C289.766 186.875 290.688 186.493 291.368 185.814C292.049 185.135 292.431 184.214 292.432 183.253L293.865 153.315C293.864 152.355 293.481 151.434 292.801 150.754C292.12 150.075 291.198 149.693 290.236 149.692H270.994Z" fill="#3F3D56"/>
<path d="M317.461 161.684L290.642 172.346L288.619 173.15C288.554 173.175 288.49 173.197 288.422 173.218L281.643 175.21C280.776 175.464 279.576 174.298 278.874 173.494C278.527 173.106 278.33 172.607 278.32 172.087C278.309 171.566 278.486 171.06 278.817 170.658C278.911 170.55 279.014 170.451 279.125 170.362C279.386 170.159 279.694 170.023 280.02 169.968L286.792 168.638C287.035 168.591 287.269 168.504 287.483 168.381L290.642 166.543L307.04 157.011C307.496 156.746 307.843 156.329 308.019 155.832C308.196 155.336 308.19 154.793 308.003 154.301L304.873 146.059C304.681 145.555 304.68 144.998 304.869 144.493C305.058 143.988 305.425 143.568 305.901 143.313L311.086 140.539C311.383 140.38 311.711 140.29 312.047 140.277C312.383 140.263 312.718 140.326 313.026 140.46C313.334 140.594 313.608 140.797 313.827 141.052C314.045 141.307 314.203 141.608 314.288 141.933L318.789 159.052C318.928 159.577 318.869 160.135 318.624 160.619C318.379 161.104 317.966 161.483 317.461 161.684Z" fill="#FFB9B9"/>
<path d="M319.018 138.663C313.164 140.943 308.508 144.835 304.859 150.081L293.423 133.498L301.592 118.002L319.018 138.663Z" fill="#6C63FF"/>
<path d="M287.419 106.598C282.059 108.824 276.438 108.734 270.588 106.598C272.29 103.697 269.746 101.425 268.439 98.4963L290.284 97.8481C288.613 100.392 286.148 103.398 287.419 106.598Z" fill="white"/>
<path d="M290.052 98.3321L289.799 98.0793L290.157 97.7218L292.296 95.229L292.569 95.4614L290.42 97.9642L290.052 98.3321Z" fill="white"/>
<path d="M266.942 96.817L266.713 97.0918L268.862 98.8795L269.091 98.6047L266.942 96.817Z" fill="white"/>
<path d="M290.67 100.434L286.909 106.333L287.211 106.525L290.972 100.626L290.67 100.434Z" fill="white"/>
<path d="M267.337 100.434L267.035 100.626L270.795 106.525L271.097 106.333L267.337 100.434Z" fill="white"/>
<path d="M291.358 166.037V172.515L289.1 173.413C289.028 173.44 288.956 173.464 288.88 173.488L281.313 175.711C280.345 175.995 279.006 174.694 278.223 173.796C277.835 173.363 277.615 172.806 277.603 172.225C277.592 171.644 277.789 171.079 278.159 170.631C278.263 170.51 278.379 170.4 278.503 170.3C278.794 170.073 279.138 169.922 279.502 169.86L287.061 168.376C287.332 168.323 287.593 168.226 287.832 168.088L291.358 166.037Z" fill="white"/>
<path d="M294.631 142.933H293.337C293.337 124.659 289.568 111.924 285.896 111.924L285.572 110.632C288.866 110.632 290.966 115.932 292.147 120.378C293.749 126.406 294.631 134.416 294.631 142.933Z" fill="#3F3D56"/>
<path d="M264.867 138.411H263.573C263.573 121.674 267.367 111.278 272.955 111.278L272.632 112.57C268.767 112.57 264.867 120.56 264.867 138.411Z" fill="#3F3D56"/>
<path d="M293.984 146.486C295.771 146.486 297.219 145.04 297.219 143.256C297.219 141.472 295.771 140.026 293.984 140.026C292.197 140.026 290.749 141.472 290.749 143.256C290.749 145.04 292.197 146.486 293.984 146.486Z" fill="#3F3D56"/>
<path d="M259.691 146.163H258.396C258.396 141.532 261.009 137.765 264.22 137.765V139.057C261.722 139.057 259.691 142.245 259.691 146.163Z" fill="#3F3D56"/>
<path d="M270.043 146.163H268.749C268.749 142.245 266.717 139.057 264.22 139.057V137.765C267.431 137.765 270.043 141.532 270.043 146.163Z" fill="#3F3D56"/>
<path d="M269.396 147.778C270.111 147.778 270.69 147.2 270.69 146.486C270.69 145.773 270.111 145.194 269.396 145.194C268.682 145.194 268.102 145.773 268.102 146.486C268.102 147.2 268.682 147.778 269.396 147.778Z" fill="#3F3D56"/>
<path d="M259.043 147.778C259.758 147.778 260.338 147.2 260.338 146.486C260.338 145.773 259.758 145.194 259.043 145.194C258.329 145.194 257.749 145.773 257.749 146.486C257.749 147.2 258.329 147.778 259.043 147.778Z" fill="#3F3D56"/>
<path d="M103.09 103.065L80.3625 106.908C79.801 107.003 79.224 106.888 78.743 106.583C78.2621 106.278 77.9115 105.806 77.759 105.259C76.1169 99.3414 72.6839 91.6223 76.017 87.7473C76.1868 86.1171 76.9798 84.6151 78.2309 83.554C79.482 82.4929 81.0948 81.9544 82.7335 82.0506C86.7936 75.7052 93.5563 76.6579 98.1271 80.6209C102.727 82.2057 104.461 85.0211 103.855 88.8417C105.842 90.5785 106.884 92.5347 107.104 94.6818C107.208 95.8767 107.056 97.0799 106.657 98.2114C106.259 99.3428 105.623 100.376 104.793 101.243L103.09 103.065Z" fill="#2F2E41"/>
<path d="M99.5566 120.93L81.9375 119.895C83.6642 115.938 84.3539 112.128 83.6649 108.512H96.7928C96.763 111.288 98.1466 116.09 99.5566 120.93Z" fill="#9F616A"/>
<path d="M78.3481 283.479L77.6254 293.343C77.5927 293.789 77.656 294.237 77.811 294.657C77.9661 295.077 78.2093 295.46 78.5244 295.778C78.8394 296.097 79.2191 296.344 79.6378 296.504C80.0566 296.664 80.5047 296.733 80.9523 296.706L86.0268 296.399C86.2619 296.385 86.491 296.319 86.6978 296.206C86.9045 296.094 87.0839 295.937 87.2232 295.747C87.3625 295.558 87.4582 295.34 87.5036 295.109C87.549 294.878 87.5429 294.64 87.4857 294.412L84.669 283.163L78.3481 283.479Z" fill="#E6E6E6"/>
<path d="M94.7764 283.163L91.9596 294.412C91.9025 294.64 91.8964 294.878 91.9418 295.109C91.9872 295.34 92.0829 295.558 92.2222 295.747C92.3614 295.937 92.5408 296.094 92.7476 296.206C92.9544 296.319 93.1835 296.385 93.4186 296.399L98.4931 296.706C98.9406 296.733 99.3888 296.664 99.8076 296.504C100.226 296.344 100.606 296.097 100.921 295.778C101.236 295.46 101.479 295.077 101.634 294.657C101.789 294.237 101.853 293.789 101.82 293.343L101.097 283.479L94.7764 283.163Z" fill="#E6E6E6"/>
<path d="M101.425 284.848L94.577 284.162L87.7593 211.402L85.1827 283.928L78.455 283.687L67.1155 183.243H110.438L101.425 284.848Z" fill="#6C63FF"/>
<path d="M90.5752 112.7C97.8013 112.7 103.659 106.851 103.659 99.6362C103.659 92.4215 97.8013 86.5728 90.5752 86.5728C83.349 86.5728 77.4911 92.4215 77.4911 99.6362C77.4911 106.851 83.349 112.7 90.5752 112.7Z" fill="#9F616A"/>
<path d="M105.322 93.3956C100.011 92.4722 94.7901 92.3455 89.7147 93.5167C86.4816 94.5734 82.599 94.476 78.2811 93.6054V84.7959L101.592 85.2154L105.322 93.3956Z" fill="#2F2E41"/>
<path d="M99.2827 110.118C93.5588 112.495 87.557 112.399 81.3098 110.118C83.1276 107.02 80.4104 104.594 79.0154 101.467L102.342 100.774C100.558 103.491 97.9259 106.701 99.2827 110.118Z" fill="white"/>
<path d="M77.4093 99.6825L77.1799 99.9573L79.4742 101.866L79.7036 101.591L77.4093 99.6825Z" fill="white"/>
<path d="M102.765 103.542L98.7485 109.841L99.0506 110.033L103.067 103.734L102.765 103.542Z" fill="white"/>
<path d="M77.8276 103.542L77.5254 103.734L81.5406 110.034L81.8428 109.842L77.8276 103.542Z" fill="white"/>
<path d="M65.7003 159.217L55.6816 153.008L64.2258 128.023C65.1788 125.445 67.004 123.281 69.3861 121.904L72.2643 120.24L72.5146 145.445L65.7003 159.217Z" fill="#6C63FF"/>
<path d="M109.006 171.351L107.523 158.676C107.444 151.985 108.584 145.516 111.303 139.556L112.685 120.93L97.4838 114.721C97.4371 115.03 97.3975 115.34 97.3531 115.649L90.2289 119.205L83.2809 117.629L83.3194 115.411L69.5005 121.62C74.0704 142.832 71.5779 164.86 63.7193 190.879L81.9244 195.849L82.0758 187.122L98.3005 185.964C98.4676 188.796 98.6019 191.577 98.6798 194.297C107.835 197.662 108.149 197.607 116.491 192.788C113.169 185.815 110.539 178.559 109.006 171.351Z" fill="#6C63FF"/>
<path d="M132.376 156.112L123.049 153.008L108.129 135.666L112.684 120.93L133.413 149.904L132.376 156.112Z" fill="#6C63FF"/>
<path d="M103.143 169.538C103.296 170.207 103.708 170.788 104.289 171.154C104.87 171.52 105.573 171.641 106.243 171.49L114.161 169.7L113.017 164.654L105.098 166.444C104.428 166.595 103.846 167.006 103.479 167.587C103.112 168.167 102.992 168.869 103.143 169.538Z" fill="#E6E6E6"/>
<path d="M110.266 163.701L114.757 171.979C122.311 169.876 128.858 163.244 135.14 155.423L133.413 149.904L122.703 152.663L110.266 163.701Z" fill="#6C63FF"/>
<path d="M51.7086 137.734L60.3304 139.271L80.0374 167.248L69.5681 164.788L51.7086 137.734Z" fill="#E6E6E6"/>
<path d="M50.1794 137.391C50.048 137.393 49.9196 137.431 49.8075 137.499C49.6954 137.568 49.6039 137.665 49.5424 137.781C49.4809 137.897 49.4517 138.027 49.4579 138.158C49.4641 138.289 49.5055 138.416 49.5777 138.526L67.9985 166.431C68.1013 166.587 68.2601 166.697 68.4422 166.74L77.0128 168.753C77.1574 168.787 77.3088 168.777 77.4471 168.723C77.5853 168.669 77.7039 168.574 77.7871 168.451C77.8702 168.328 77.914 168.183 77.9126 168.035C77.9112 167.887 77.8648 167.743 77.7794 167.621L57.5544 138.909C57.4995 138.831 57.4298 138.764 57.3491 138.713C57.2685 138.662 57.1785 138.627 57.0843 138.61L50.3175 137.404C50.2719 137.396 50.2257 137.391 50.1794 137.391Z" fill="#3F3D56"/>
<path d="M61.6703 157.343L62.1823 162.492L70.2611 161.691C70.9449 161.623 71.5738 161.287 72.0093 160.756C72.4449 160.226 72.6515 159.544 72.5836 158.861C72.5157 158.179 72.179 157.551 71.6475 157.116C71.1159 156.681 70.4331 156.475 69.7493 156.542L61.6703 157.343Z" fill="#E6E6E6"/>
<path d="M54.6454 156.747C54.6571 158.502 55.3633 160.182 56.6101 161.42C57.8569 162.658 59.5432 163.354 61.3016 163.356H62.63L63.5971 155.309L55.5897 152.431L54.6454 156.747Z" fill="#6C63FF"/>
<path d="M101.704 101.664L101.451 101.412L101.833 101.03L104.118 98.3672L104.39 98.5996L102.095 101.272L101.704 101.664Z" fill="white"/>
<path d="M147.399 295.927H222.601V204.855C222.601 200.033 217.844 196.109 211.996 196.109H158.004C152.156 196.109 147.399 200.033 147.399 204.855V295.927Z" fill="#E6E6E6"/>
<path d="M153.128 292.161H216.872V214.967C216.872 210.879 212.839 207.554 207.883 207.554H162.117C157.161 207.554 153.128 210.879 153.128 214.967V292.161Z" fill="white"/>
<path d="M146.831 189.022C144.972 189.022 143.459 190.269 143.459 191.802V199.826C143.459 201.359 144.972 202.606 146.831 202.606H223.17C225.028 202.606 226.541 201.359 226.541 199.826V191.802C226.541 190.269 225.028 189.022 223.17 189.022H146.831Z" fill="#3F3D56"/>
<path d="M162.504 282.263C161.631 282.265 160.795 282.613 160.178 283.229C159.561 283.845 159.213 284.68 159.211 285.551C159.213 286.422 159.561 287.257 160.178 287.873C160.795 288.49 161.631 288.837 162.504 288.839H168.669V282.263H162.504Z" fill="#3F3D56"/>
<path d="M174.326 282.263H168.331V288.839H174.326C175.199 288.837 176.035 288.49 176.652 287.873C177.269 287.257 177.617 286.422 177.62 285.551C177.617 284.68 177.269 283.845 176.652 283.229C176.035 282.613 175.199 282.265 174.326 282.263Z" fill="#6C63FF"/>
<path opacity="0.2" d="M176.475 283.068C176.995 283.663 177.281 284.425 177.282 285.214C177.279 286.085 176.932 286.92 176.315 287.536C175.697 288.152 174.861 288.5 173.989 288.502H168.331V288.839H174.326C175.199 288.837 176.035 288.49 176.652 287.874C177.269 287.257 177.617 286.423 177.62 285.551C177.619 285.08 177.516 284.614 177.319 284.185C177.121 283.757 176.834 283.376 176.475 283.068Z" fill="black"/>
<path d="M190.322 232.734C189.722 232.102 188.895 231.732 188.023 231.707C187.15 231.681 186.303 232.001 185.666 232.597C185.033 233.196 184.663 234.021 184.638 234.892C184.612 235.763 184.932 236.609 185.529 237.245L189.758 241.723L194.551 237.213L190.322 232.734Z" fill="#3F3D56"/>
<path d="M198.431 241.323L194.319 236.967L189.526 241.478L193.638 245.834C194.239 246.466 195.066 246.836 195.938 246.861C196.81 246.887 197.657 246.567 198.294 245.971C198.927 245.372 199.297 244.546 199.323 243.675C199.349 242.805 199.028 241.959 198.431 241.323Z" fill="#6C63FF"/>
<path opacity="0.2" d="M199.319 243.437C199.241 244.222 198.883 244.953 198.308 245.495C197.671 246.09 196.824 246.41 195.952 246.385C195.08 246.359 194.253 245.99 193.653 245.357L189.772 241.247L189.526 241.478L193.638 245.834C194.239 246.466 195.066 246.836 195.938 246.861C196.81 246.887 197.657 246.567 198.294 245.971C198.637 245.647 198.906 245.253 199.083 244.816C199.26 244.378 199.34 243.908 199.319 243.437Z" fill="black"/>
<path d="M172.775 243.102C172.174 242.47 171.348 242.101 170.475 242.075C169.603 242.049 168.756 242.369 168.119 242.965C167.486 243.565 167.116 244.39 167.09 245.261C167.064 246.132 167.385 246.978 167.982 247.613L172.21 252.092L177.003 247.581L172.775 243.102Z" fill="#3F3D56"/>
<path d="M180.884 251.692L176.771 247.336L171.978 251.847L176.091 256.203C176.692 256.835 177.518 257.204 178.39 257.23C179.263 257.256 180.11 256.936 180.747 256.34C181.38 255.741 181.75 254.915 181.776 254.044C181.801 253.173 181.481 252.328 180.884 251.692Z" fill="#6C63FF"/>
<path opacity="0.2" d="M181.771 253.805C181.694 254.591 181.335 255.322 180.761 255.863C180.124 256.459 179.277 256.779 178.405 256.753C177.532 256.728 176.706 256.358 176.105 255.726L172.224 251.615L171.978 251.847L176.091 256.203C176.692 256.835 177.518 257.204 178.391 257.23C179.263 257.256 180.11 256.936 180.747 256.34C181.09 256.016 181.359 255.622 181.536 255.184C181.713 254.747 181.793 254.277 181.771 253.805Z" fill="black"/>
<path d="M190.322 252.756C189.722 252.124 188.895 251.755 188.023 251.729C187.15 251.703 186.303 252.023 185.666 252.619C185.033 253.219 184.663 254.044 184.638 254.915C184.612 255.786 184.932 256.631 185.529 257.267L189.758 261.746L194.551 257.235L190.322 252.756Z" fill="#3F3D56"/>
<path d="M198.431 261.345L194.319 256.99L189.526 261.5L193.638 265.856C194.239 266.489 195.066 266.858 195.938 266.884C196.81 266.909 197.657 266.589 198.294 265.994C198.927 265.394 199.297 264.569 199.323 263.698C199.349 262.827 199.028 261.981 198.431 261.345Z" fill="#6C63FF"/>
<path opacity="0.2" d="M199.319 263.459C199.241 264.244 198.883 264.975 198.308 265.517C197.671 266.113 196.824 266.433 195.952 266.407C195.08 266.381 194.253 266.012 193.653 265.38L189.772 261.269L189.526 261.501L193.638 265.857C194.239 266.489 195.066 266.858 195.938 266.884C196.81 266.91 197.657 266.59 198.294 265.994C198.637 265.67 198.906 265.276 199.083 264.838C199.26 264.401 199.34 263.93 199.319 263.459Z" fill="black"/>
<path d="M201.027 273.303C201.653 272.696 202.013 271.866 202.028 270.995C202.043 270.124 201.712 269.282 201.108 268.654C200.5 268.029 199.668 267.669 198.796 267.654C197.923 267.639 197.08 267.969 196.451 268.573L192.017 272.849L196.593 277.579L201.027 273.303Z" fill="#3F3D56"/>
<path d="M192.523 281.504L196.836 277.345L192.26 272.615L187.947 276.774C187.321 277.381 186.961 278.21 186.946 279.082C186.931 279.953 187.262 280.795 187.866 281.423C188.474 282.048 189.305 282.407 190.178 282.422C191.051 282.437 191.894 282.107 192.523 281.504Z" fill="#6C63FF"/>
<path opacity="0.2" d="M190.417 282.415C189.63 282.348 188.893 281.998 188.344 281.431C187.739 280.803 187.409 279.961 187.424 279.09C187.439 278.219 187.799 277.389 188.425 276.782L192.494 272.857L192.26 272.615L187.947 276.774C187.321 277.381 186.961 278.21 186.946 279.082C186.931 279.953 187.262 280.795 187.866 281.423C188.195 281.762 188.593 282.026 189.033 282.197C189.473 282.368 189.945 282.443 190.417 282.415Z" fill="black"/>
<path d="M177.392 262.935C178.018 262.327 178.377 261.498 178.393 260.626C178.408 259.755 178.077 258.913 177.472 258.285C176.864 257.66 176.033 257.301 175.161 257.286C174.288 257.271 173.445 257.601 172.816 258.204L168.382 262.48L172.958 267.21L177.392 262.935Z" fill="#3F3D56"/>
<path d="M168.888 271.135L173.201 266.976L168.625 262.246L164.312 266.405C163.686 267.012 163.326 267.842 163.311 268.713C163.296 269.584 163.627 270.426 164.231 271.054C164.839 271.679 165.67 272.038 166.543 272.053C167.415 272.069 168.259 271.738 168.888 271.135Z" fill="#6C63FF"/>
<path opacity="0.2" d="M166.782 272.046C165.995 271.979 165.258 271.629 164.709 271.062C164.104 270.434 163.774 269.592 163.789 268.721C163.804 267.85 164.164 267.02 164.79 266.413L168.859 262.488L168.625 262.246L164.312 266.405C163.686 267.012 163.326 267.842 163.311 268.713C163.296 269.584 163.627 270.426 164.231 271.054C164.56 271.393 164.958 271.657 165.398 271.828C165.838 271.999 166.31 272.074 166.782 272.046Z" fill="black"/>
<path d="M211.054 250.42C211.68 249.813 212.04 248.983 212.055 248.112C212.07 247.241 211.739 246.399 211.135 245.771C210.526 245.146 209.695 244.787 208.823 244.771C207.95 244.756 207.107 245.087 206.478 245.69L202.044 249.966L206.62 254.696L211.054 250.42Z" fill="#3F3D56"/>
<path d="M202.55 258.621L206.863 254.462L202.287 249.732L197.974 253.891C197.348 254.498 196.988 255.328 196.973 256.199C196.958 257.07 197.289 257.912 197.893 258.54C198.501 259.165 199.333 259.524 200.205 259.54C201.078 259.555 201.921 259.224 202.55 258.621Z" fill="#6C63FF"/>
<path opacity="0.2" d="M200.444 259.532C199.657 259.465 198.92 259.115 198.371 258.549C197.767 257.92 197.436 257.078 197.451 256.207C197.466 255.336 197.826 254.506 198.452 253.899L202.521 249.975L202.287 249.732L197.974 253.891C197.348 254.498 196.988 255.328 196.973 256.199C196.958 257.07 197.289 257.912 197.893 258.54C198.222 258.879 198.62 259.143 199.06 259.314C199.5 259.485 199.972 259.56 200.444 259.532Z" fill="black"/>
<path d="M203.572 276.354C202.972 275.722 202.145 275.353 201.273 275.327C200.4 275.301 199.553 275.621 198.916 276.217C198.283 276.816 197.913 277.642 197.888 278.513C197.862 279.384 198.182 280.229 198.779 280.865L203.008 285.344L207.801 280.833L203.572 276.354Z" fill="#3F3D56"/>
<path d="M211.681 284.943L207.569 280.587L202.776 285.098L206.888 289.454C207.489 290.087 208.316 290.456 209.188 290.482C210.06 290.507 210.907 290.187 211.544 289.592C212.177 288.992 212.547 288.167 212.573 287.296C212.599 286.425 212.278 285.579 211.681 284.943Z" fill="#6C63FF"/>
<path opacity="0.2" d="M212.569 287.057C212.491 287.842 212.133 288.573 211.558 289.115C210.921 289.711 210.074 290.031 209.202 290.005C208.33 289.979 207.503 289.61 206.903 288.978L203.022 284.867L202.776 285.099L206.888 289.454C207.489 290.087 208.316 290.456 209.188 290.482C210.06 290.508 210.907 290.188 211.544 289.592C211.887 289.268 212.156 288.873 212.333 288.436C212.51 287.999 212.59 287.528 212.569 287.057Z" fill="black"/>
<path d="M180.295 275.997C179.694 275.364 178.868 274.995 177.995 274.969C177.123 274.943 176.276 275.263 175.639 275.859C175.006 276.459 174.636 277.284 174.61 278.155C174.585 279.026 174.905 279.872 175.502 280.507L179.73 284.986L184.523 280.475L180.295 275.997Z" fill="#3F3D56"/>
<path d="M188.404 284.586L184.292 280.23L179.499 284.741L183.611 289.097C184.212 289.729 185.039 290.099 185.911 290.124C186.783 290.15 187.63 289.83 188.267 289.234C188.9 288.635 189.27 287.809 189.296 286.938C189.322 286.067 189.001 285.222 188.404 284.586Z" fill="#6C63FF"/>
<path opacity="0.2" d="M189.292 286.7C189.214 287.485 188.856 288.216 188.281 288.757C187.644 289.353 186.797 289.673 185.925 289.647C185.053 289.622 184.226 289.252 183.626 288.62L179.745 284.51L179.499 284.741L183.611 289.097C184.212 289.729 185.039 290.098 185.911 290.124C186.783 290.15 187.63 289.83 188.267 289.234C188.61 288.91 188.879 288.516 189.056 288.078C189.233 287.641 189.313 287.171 189.292 286.7Z" fill="black"/>
<path d="M186.847 264.2C186.847 265.293 186.469 266.353 185.777 267.2C185.084 268.047 184.12 268.629 183.047 268.847C182.42 268.974 181.774 268.974 181.147 268.847C180.075 268.629 179.111 268.047 178.418 267.2C177.726 266.353 177.348 265.293 177.348 264.2C177.348 263.107 177.726 262.047 178.418 261.201C179.111 260.354 180.075 259.772 181.147 259.553C181.774 259.426 182.42 259.426 183.047 259.553C184.12 259.771 185.084 260.353 185.777 261.2C186.469 262.047 186.847 263.107 186.847 264.2Z" fill="#6C63FF"/>
<path opacity="0.2" d="M183.047 259.553V268.847C182.42 268.974 181.774 268.974 181.148 268.847V259.553C181.774 259.426 182.42 259.426 183.047 259.553Z" fill="black"/>
<path d="M188.996 245.25C188.996 246.343 188.618 247.403 187.925 248.25C187.233 249.097 186.269 249.679 185.196 249.898C184.569 250.024 183.923 250.024 183.296 249.898C182.223 249.679 181.259 249.097 180.567 248.25C179.875 247.403 179.496 246.343 179.496 245.25C179.496 244.157 179.875 243.097 180.567 242.251C181.259 241.404 182.223 240.822 183.296 240.603C183.923 240.476 184.569 240.476 185.196 240.603C186.269 240.822 187.233 241.404 187.925 242.25C188.618 243.097 188.996 244.157 188.996 245.25Z" fill="#6C63FF"/>
<path opacity="0.2" d="M185.196 240.603V249.898C184.569 250.024 183.923 250.024 183.296 249.898V240.603C183.923 240.476 184.569 240.476 185.196 240.603Z" fill="black"/>
<path d="M188.996 272.424C188.996 273.517 188.618 274.576 187.925 275.423C187.233 276.27 186.269 276.852 185.196 277.071C184.569 277.197 183.923 277.197 183.296 277.071C182.223 276.852 181.259 276.27 180.567 275.423C179.875 274.576 179.496 273.517 179.496 272.424C179.496 271.33 179.875 270.271 180.567 269.424C181.259 268.577 182.223 267.995 183.296 267.776C183.923 267.65 184.569 267.65 185.196 267.776C186.269 267.995 187.233 268.577 187.925 269.424C188.618 270.271 188.996 271.33 188.996 272.424Z" fill="#6C63FF"/>
<path opacity="0.2" d="M185.196 267.776V277.071C184.569 277.197 183.923 277.197 183.296 277.071V267.776C183.923 267.65 184.569 267.65 185.196 267.776Z" fill="black"/>
<path d="M200.813 285.653C200.814 286.746 200.435 287.806 199.743 288.653C199.051 289.499 198.086 290.081 197.014 290.3C196.387 290.427 195.741 290.427 195.114 290.3C194.041 290.081 193.077 289.499 192.385 288.652C191.692 287.806 191.314 286.746 191.314 285.653C191.314 284.56 191.692 283.5 192.385 282.653C193.077 281.806 194.041 281.224 195.114 281.005C195.741 280.879 196.387 280.879 197.014 281.005C198.086 281.224 199.051 281.806 199.743 282.653C200.435 283.5 200.814 284.56 200.813 285.653Z" fill="#6C63FF"/>
<path opacity="0.2" d="M197.014 281.005V290.3C196.387 290.427 195.741 290.427 195.114 290.3V281.005C195.741 280.879 196.387 280.879 197.014 281.005Z" fill="black"/>
<path d="M211.253 261.313C212.041 262.071 212.543 263.078 212.673 264.164C212.803 265.249 212.554 266.346 211.967 267.269C211.623 267.808 211.175 268.272 210.649 268.635C209.746 269.254 208.658 269.543 207.566 269.453C206.475 269.363 205.449 268.9 204.66 268.141C203.872 267.383 203.37 266.376 203.24 265.29C203.11 264.205 203.359 263.108 203.946 262.185C204.29 261.646 204.738 261.182 205.264 260.819C206.167 260.2 207.255 259.91 208.347 260C209.438 260.09 210.465 260.554 211.253 261.313Z" fill="#6C63FF"/>
<path opacity="0.2" d="M205.265 260.819L211.967 267.269C211.623 267.808 211.175 268.272 210.649 268.635L203.946 262.185C204.29 261.646 204.738 261.182 205.265 260.819Z" fill="black"/>
<path d="M212.685 271.682C213.474 272.44 213.976 273.447 214.106 274.533C214.236 275.618 213.986 276.715 213.4 277.638C213.056 278.177 212.607 278.641 212.081 279.004C211.179 279.623 210.09 279.912 208.999 279.822C207.908 279.732 206.881 279.269 206.093 278.51C205.305 277.752 204.803 276.744 204.673 275.659C204.543 274.574 204.792 273.477 205.378 272.554C205.722 272.015 206.171 271.551 206.697 271.188C207.599 270.568 208.688 270.279 209.779 270.369C210.87 270.459 211.897 270.923 212.685 271.682Z" fill="#6C63FF"/>
<path opacity="0.2" d="M206.697 271.188L213.4 277.638C213.056 278.176 212.607 278.641 212.081 279.004L205.378 272.553C205.722 272.015 206.171 271.551 206.697 271.188Z" fill="black"/>
<path d="M170.07 274.184C170.859 274.943 171.361 275.95 171.491 277.035C171.621 278.121 171.372 279.218 170.785 280.141C170.441 280.679 169.993 281.144 169.466 281.507C168.564 282.126 167.475 282.415 166.384 282.325C165.293 282.235 164.266 281.772 163.478 281.013C162.69 280.254 162.188 279.247 162.058 278.162C161.928 277.076 162.177 275.979 162.764 275.056C163.108 274.518 163.556 274.054 164.082 273.691C164.984 273.071 166.073 272.782 167.164 272.872C168.256 272.962 169.282 273.425 170.07 274.184Z" fill="#6C63FF"/>
<path opacity="0.2" d="M164.082 273.69L170.785 280.141C170.441 280.679 169.993 281.143 169.466 281.506L162.764 275.056C163.108 274.518 163.556 274.053 164.082 273.69Z" fill="black"/>
<path opacity="0.2" d="M154.74 189.022H152.949V202.251H154.74V189.022Z" fill="black"/>
<path opacity="0.2" d="M165.125 189.022H163.334V202.251H165.125V189.022Z" fill="black"/>
<path opacity="0.2" d="M175.51 189.022H173.72V202.251H175.51V189.022Z" fill="black"/>
<path opacity="0.2" d="M185.895 189.022H184.105V202.251H185.895V189.022Z" fill="black"/>
<path opacity="0.2" d="M196.28 189.022H194.49V202.251H196.28V189.022Z" fill="black"/>
<path opacity="0.2" d="M206.666 189.022H204.875V202.251H206.666V189.022Z" fill="black"/>
<path opacity="0.2" d="M217.051 189.022H215.26V202.251H217.051V189.022Z" fill="black"/>
</svg>
