<svg width="402" height="370" viewBox="0 0 402 370" fill="none" xmlns="http://www.w3.org/2000/svg">
<path d="M544 0.39444C544 48.904 534.947 96.9386 517.358 141.756C499.769 186.573 473.988 227.294 441.487 261.596C408.987 295.897 370.403 323.107 327.939 341.67C285.475 360.234 239.963 369.789 194 369.789C148.037 369.789 102.525 360.234 60.0608 341.67C17.5968 323.107 -20.9869 295.897 -53.4874 261.596C-85.9879 227.294 -111.769 186.573 -129.358 141.756C-146.947 96.9385 -156 48.904 -156 0.394409L544 0.39444Z" fill="white"/>
<path d="M135.361 272.861C152.405 272.861 166.223 270.641 166.223 267.902C166.223 265.164 152.405 262.944 135.361 262.944C118.316 262.944 104.498 265.164 104.498 267.902C104.498 270.641 118.316 272.861 135.361 272.861Z" fill="#6C63FF"/>
<path d="M303.123 273C324.392 273 341.634 270.78 341.634 268.042C341.634 265.303 324.392 263.083 303.123 263.083C281.854 263.083 264.612 265.303 264.612 268.042C264.612 270.78 281.854 273 303.123 273Z" fill="#6C63FF"/>
<path d="M23.3835 132.154H55.5285V175.982H25.7369C25.6577 176.432 25.5817 176.885 25.4993 177.338H55.5285V212.684C55.4747 212.668 55.4272 212.649 55.3765 212.63C54.5277 212.294 53.6852 211.939 52.8427 211.559L52.3042 211.315C51.4596 210.916 50.615 210.494 49.7704 210.048C49.4758 209.893 49.1813 209.731 48.8899 209.566C44.2009 206.939 39.9413 203.61 36.2587 199.694C36.151 199.589 36.0496 199.478 35.9419 199.377C35.4288 198.819 34.9252 198.255 34.4375 197.679L33.899 197.045C33.3226 196.338 32.7651 195.613 32.2235 194.878C32.1443 194.77 32.0683 194.662 31.986 194.561C29.7832 191.506 27.9543 188.198 26.5382 184.707C26.4939 184.603 26.4558 184.489 26.4147 184.391C25.9797 183.271 25.5943 182.141 25.2586 181C25.1129 180.522 24.9735 180.05 24.8532 179.552C24.8088 179.407 24.7708 179.264 24.736 179.122C22.937 172.097 22.7247 164.801 22.7247 157.555C22.7247 156.709 22.7247 155.859 22.7247 155.02C22.7247 152.089 22.7596 149.139 22.8103 146.193C22.8103 145.429 22.8419 144.669 22.8578 143.902C22.9021 141.957 22.9655 140.011 23.0478 138.066C23.0668 137.524 23.0922 136.986 23.1207 136.447C23.1207 136.136 23.1365 135.826 23.1682 135.515C23.2442 134.388 23.3075 133.269 23.3835 132.154Z" fill="#6C63FF"/>
<path d="M55.5285 83.3548H37.8961C40.7624 78.8671 43.8941 74.5546 47.2745 70.4406C49.8939 67.2215 52.659 64.0849 55.5285 61.0622V83.3548Z" fill="#6C63FF"/>
<path d="M55.5285 84.7109V130.798H23.4849C23.4849 130.665 23.5071 130.528 23.5166 130.395C23.5451 130.031 23.5736 129.667 23.6053 129.305C23.6401 128.881 23.6781 128.453 23.7193 128.038C23.7605 127.623 23.8048 127.116 23.8523 126.657C23.8998 126.197 23.9442 125.732 23.998 125.272C24.0519 124.813 24.0994 124.353 24.1564 123.897C24.2134 123.441 24.2641 122.978 24.3242 122.522C24.3718 122.142 24.4224 121.765 24.4731 121.385C24.5459 120.849 24.622 120.311 24.7043 119.778C24.7043 119.699 24.7265 119.617 24.7392 119.541C25.3172 115.644 26.1049 111.781 27.0988 107.97C28.1391 103.971 29.4676 100.053 31.0738 96.2468C32.7808 92.2648 34.7796 88.4143 37.0536 84.7267L55.5285 84.7109Z" fill="#6C63FF"/>
<path d="M63.2029 132.151V175.982H131.861V132.151H63.2029ZM63.2029 177.335V214.975C63.5957 215.057 63.9852 215.136 64.3717 215.203C64.8974 215.304 65.42 215.396 65.9553 215.475C66.0567 215.491 66.1612 215.507 66.272 215.516C66.4811 215.551 66.6965 215.58 66.9055 215.608C67.4344 215.681 67.9602 215.741 68.4892 215.789C68.7394 215.814 68.9928 215.837 69.2461 215.855L69.8574 215.903C70.19 215.928 70.5194 215.947 70.8456 215.957C71.0483 215.957 71.251 215.976 71.4601 215.982C71.6184 215.982 71.7768 215.982 71.9415 215.982C72.1062 215.982 72.3406 215.982 72.5401 215.982C72.8125 215.982 73.0849 215.982 73.3541 215.982H73.7184C73.9908 215.982 74.2632 215.982 74.5324 215.957H74.5514C74.7382 215.957 74.9283 215.957 75.1183 215.932C75.1711 215.935 75.2239 215.935 75.2767 215.932C75.4351 215.932 75.5934 215.932 75.7455 215.909H75.8563L76.9174 215.827C77.2658 215.795 77.6173 215.754 77.9721 215.716L78.6942 215.631C81.6321 215.219 84.5374 214.6 87.3885 213.78C93.7928 211.993 100.058 209.493 106.459 207.662C114.735 205.302 123.879 204.142 131.876 207.028V177.335H63.2029ZM131.861 83.3548V25.0032C124.344 24.9217 116.847 25.8012 109.553 27.6202C92.1679 31.9894 76.569 41.466 63.2029 53.5691V83.3516H66.649V84.7045H63.2029V130.798H131.861V84.7077H80.7973V83.3548H131.861ZM220.048 63.6445C215.747 63.4924 211.471 62.13 207.604 60.0262C200.208 56.0024 194.301 49.7892 187.7 44.5456C173.986 33.6243 156.977 27.0341 139.529 25.3992V83.3548H237.541L237.785 83.0982L220.048 63.6445ZM228.977 62.0603L238.444 72.4525V59.3355C235.273 59.7284 232.495 60.663 228.989 62.0476L228.977 62.0603ZM238.444 224.321V177.335H218.271C218.217 177.135 218.163 176.932 218.1 176.729C218.16 176.932 218.211 177.135 218.268 177.335H139.541V211.315C140.289 211.87 141.027 212.453 141.758 213.045C142.547 213.679 143.326 214.347 144.109 215.003L144.897 215.656C145.274 215.973 145.654 216.29 146.037 216.587C146.798 217.204 147.565 217.812 148.34 218.412C148.723 218.729 149.116 219.014 149.506 219.312C155.691 224.042 162.215 228.311 169.026 232.084C170.552 232.929 172.093 233.754 173.647 234.558C174.683 235.087 175.725 235.613 176.77 236.123C178.341 236.89 179.924 237.63 181.521 238.341C196.238 244.95 211.801 249.485 227.763 251.816C231.309 252.34 234.868 252.752 238.44 253.052V224.318H238.757L238.444 224.321ZM139.541 84.7077V130.798H238.456V84.7077H139.541ZM139.541 132.151V175.982H238.456V132.151H139.541ZM246.134 73.9099L258.217 60.6472C254.214 60.0008 250.186 59.5393 246.134 59.2626V73.9099ZM246.134 132.167V175.982H342.341V132.151L246.134 132.167ZM341.989 227.8L342.328 177.335H246.134V253.556C252.331 253.816 258.537 253.742 264.726 253.334H264.834C267.79 253.148 270.732 252.878 273.661 252.523H273.727C289.352 250.704 304.63 246.626 319.083 240.417M360.892 139.368C360.531 138.516 360.154 137.67 359.771 136.834C359.055 135.249 358.298 133.71 357.519 132.17H350.012V175.982H368.99C368.981 163.574 365.842 150.901 360.901 139.352L360.892 139.368ZM350.012 177.35V220.757C355.358 215.631 359.875 209.766 363.128 203.062C367.039 194.989 368.829 186.247 368.975 177.344L350.012 177.35ZM350.012 119.395V130.801H356.815C354.757 126.874 352.489 123.062 350.021 119.379L350.012 119.395ZM284.766 67.8774C284.265 67.6873 283.765 67.494 283.261 67.3071C277.95 65.345 272.522 63.7134 267.01 62.4215L248.519 82.7211L248.164 83.0982L248.402 83.358H314.212C305.046 77.0468 295.165 71.845 284.775 67.8615L284.766 67.8774ZM316.141 84.7235H247.483L246.134 85.9592V130.798H257.961H342.353V109.079C334.721 99.8448 325.912 91.6513 316.15 84.7077L316.141 84.7235Z" fill="#6C63FF"/>
<path d="M55.5285 107.957V130.798H23.4849C23.4849 130.665 23.5071 130.528 23.5166 130.395C23.5451 130.031 23.5736 129.667 23.6053 129.305C23.6401 128.881 23.6781 128.453 23.7193 128.038C23.7605 127.623 23.8048 127.116 23.8523 126.657C23.8998 126.197 23.9442 125.732 23.998 125.272C24.0519 124.813 24.0994 124.353 24.1564 123.897C24.2134 123.441 24.2641 122.978 24.3242 122.522C24.3718 122.142 24.4224 121.765 24.4731 121.385C24.5459 120.849 24.622 120.311 24.7043 119.778C24.7043 119.699 24.7265 119.617 24.7392 119.541C25.3172 115.644 26.1049 111.781 27.0988 107.97L55.5285 107.957Z" fill="#6C63FF"/>
<path d="M23.3835 132.154H55.5285V175.982H25.7369C25.6577 176.432 25.5817 176.885 25.4993 177.338H55.5285V212.684C55.4747 212.668 55.4272 212.649 55.3765 212.63C54.5277 212.294 53.6852 211.939 52.8427 211.559L52.3042 211.315C51.4596 210.916 50.615 210.494 49.7704 210.048C49.4758 209.893 49.1813 209.731 48.8899 209.566C44.2009 206.939 39.9413 203.61 36.2587 199.694C36.151 199.589 36.0496 199.478 35.9419 199.377C35.4288 198.819 34.9252 198.255 34.4375 197.679L33.899 197.045C33.3226 196.338 32.7651 195.613 32.2235 194.878C32.1443 194.77 32.0683 194.662 31.986 194.561C29.7832 191.506 27.9543 188.198 26.5382 184.707C26.4939 184.603 26.4558 184.489 26.4147 184.391C25.9797 183.271 25.5943 182.141 25.2586 181C25.1129 180.522 24.9735 180.05 24.8532 179.552C24.8088 179.407 24.7708 179.264 24.736 179.122C22.937 172.097 22.7247 164.801 22.7247 157.555C22.7247 156.709 22.7247 155.859 22.7247 155.02C22.7247 152.089 22.7596 149.139 22.8103 146.193C22.8103 145.429 22.8419 144.669 22.8578 143.902C22.9021 141.957 22.9655 140.011 23.0478 138.066C23.0668 137.524 23.0922 136.986 23.1207 136.447C23.1207 136.136 23.1365 135.826 23.1682 135.515C23.2442 134.388 23.3075 133.269 23.3835 132.154Z" fill="#6C63FF"/>
<path d="M87.3726 91.3074V130.798L63.2029 130.798V91.3074H66.649V77.9369H80.7941V91.3074H87.3726Z" fill="#6C63FF"/>
<path d="M87.3726 132.151H63.2061V175.979H87.3726V132.151Z" fill="#6C63FF"/>
<path d="M63.2029 177.338H87.3726V213.774C84.5216 214.593 81.6163 215.211 78.6784 215.621L77.9562 215.71C77.6015 215.751 77.2499 215.786 76.9015 215.821C76.5531 215.856 76.192 215.881 75.8405 215.903H75.7296C75.5776 215.903 75.4129 215.922 75.264 215.925H75.1025C74.9125 215.925 74.7224 215.944 74.5324 215.951C74.2632 215.966 73.9939 215.97 73.7184 215.973C73.6012 215.973 73.4903 215.973 73.3731 215.973C73.1007 215.973 72.8315 215.973 72.5591 215.973H71.9605C71.799 215.973 71.6438 215.973 71.4759 215.973L70.8646 215.951C70.5479 215.951 70.2058 215.916 69.8764 215.894L69.2683 215.849L68.5113 215.779C67.9792 215.732 67.4503 215.672 66.9277 215.599L65.9775 215.466C65.4485 215.383 64.9259 215.295 64.3938 215.193C64.0043 215.127 63.6178 215.044 63.2251 214.965L63.2029 177.338Z" fill="#6C63FF"/>
<path d="M238.456 86.6436H218.528V130.795H238.456V86.6436Z" fill="#6C63FF"/>
<path d="M238.459 132.151V175.982H139.541L139.541 157.076H192.229V168.229H218.528V132.151H238.459Z" fill="#6C63FF"/>
<path d="M238.773 224.331H238.456V253.084C234.888 252.782 231.33 252.371 227.782 251.851C211.812 249.512 196.243 244.968 181.521 238.348C177.27 236.434 173.106 234.345 169.029 232.081C162.218 228.306 155.693 224.038 149.506 219.309C147.952 218.118 146.418 216.899 144.904 215.653C143.855 214.788 142.813 213.901 141.758 213.039C141.027 212.446 140.289 211.863 139.541 211.306V177.338H218.265C218.211 177.135 218.157 176.932 218.1 176.733C218.16 176.932 218.217 177.135 218.271 177.338H238.456V224.312C238.564 224.315 238.669 224.325 238.773 224.331Z" fill="#6C63FF"/>
<path d="M290.432 83.3548H277.446V79.3183H283.267V67.2944C283.772 67.4782 284.275 67.6672 284.775 67.8615V79.3183H290.432V83.3548Z" fill="#6C63FF"/>
<path d="M321.718 130.798H257.967C257.967 130.798 257.967 130.798 257.989 130.814L257.961 130.798H246.134V86.6467H249.485V119.281H264.799V99.9538H277.449V84.7109H290.435V99.9665H303.085V119.293H321.718V130.798Z" fill="#6C63FF"/>
<path d="M246.134 132.151V175.982H321.718V132.151H246.134ZM342.236 227.575L342.341 192.882H321.718V177.357H246.134V253.556C252.331 253.816 258.537 253.742 264.726 253.334H264.834C267.79 253.148 270.732 252.878 273.661 252.523H273.727C289.352 250.704 304.63 246.626 319.083 240.417" fill="#6C63FF"/>
<path d="M351.355 177.338H368.987C368.832 186.238 367.046 194.979 363.137 203.052C359.885 209.76 355.365 215.624 350.025 220.747V192.866H351.355V177.338Z" fill="#6C63FF"/>
<path d="M368.997 175.982H351.355V139.352L360.901 139.352C365.842 150.901 368.981 163.574 368.997 175.982Z" fill="#6C63FF"/>
<path d="M238.459 98.9178H227.782V112.76H238.459V98.9178Z" fill="#6C63FF"/>
<path d="M238.459 127.61H227.782V130.798H238.459V127.61Z" fill="#6C63FF"/>
<path d="M238.459 132.151H227.782V141.45H238.459V132.151Z" fill="#6C63FF"/>
<path d="M238.459 156.303H227.782V170.146H238.459V156.303Z" fill="#6C63FF"/>
<path d="M238.459 184.996H227.782V198.838H238.459V184.996Z" fill="#6C63FF"/>
<path d="M238.456 224.312C238.564 224.312 238.669 224.312 238.773 224.331H238.456V227.547H227.782V213.688H238.456V224.312Z" fill="#6C63FF"/>
<path d="M238.456 242.375V253.068C234.888 252.766 231.33 252.355 227.782 251.835V242.375H238.456Z" fill="#6C63FF"/>
<path d="M185.299 174.965H139.541L139.541 175.982L185.299 175.982V174.965Z" fill="#6C63FF"/>
<path d="M185.299 177.335L139.541 177.335L139.541 181.232H185.299V177.335Z" fill="#6C63FF"/>
<path d="M185.299 194.007H139.541V200.274H185.299V194.007Z" fill="#6C63FF"/>
<path d="M185.296 213.048V219.315H149.506C147.952 218.128 146.417 216.91 144.9 215.659C143.852 214.794 142.813 213.907 141.755 213.048H185.296Z" fill="#6C63FF"/>
<path d="M185.296 232.087V238.348H181.518C177.271 236.432 173.108 234.342 169.029 232.078L185.296 232.087Z" fill="#6C63FF"/>
<path d="M273.737 136.399H264.729V145.41H273.737V136.399Z" fill="#6C63FF"/>
<path d="M78.7005 94.4155H69.6927V103.426H78.7005V94.4155Z" fill="#6C63FF"/>
<path d="M78.7005 115.346H69.6927V124.357H78.7005V115.346Z" fill="#6C63FF"/>
<path d="M78.7005 136.276H69.6927V145.287H78.7005V136.276Z" fill="#6C63FF"/>
<path d="M78.7005 157.203H69.6927V166.214H78.7005V157.203Z" fill="#6C63FF"/>
<path d="M78.7005 178.133H69.6927V187.144H78.7005V178.133Z" fill="#6C63FF"/>
<path d="M78.7005 199.063H69.6927V208.074H78.7005V199.063Z" fill="#6C63FF"/>
<path d="M308.124 136.399H299.117V145.41H308.124V136.399Z" fill="#6C63FF"/>
<path d="M273.737 158.625H264.729V167.636H273.737V158.625Z" fill="#6C63FF"/>
<path d="M308.124 158.625H299.117V167.636H308.124V158.625Z" fill="#6C63FF"/>
<path d="M273.737 180.848H264.729V189.859H273.737V180.848Z" fill="#6C63FF"/>
<path d="M308.124 180.848H299.117V189.859H308.124V180.848Z" fill="#6C63FF"/>
<path d="M273.737 203.074H264.729V212.085H273.737V203.074Z" fill="#6C63FF"/>
<path d="M308.124 203.074H299.117V212.085H308.124V203.074Z" fill="#6C63FF"/>
<path d="M273.737 225.3H264.729V234.311H273.737V225.3Z" fill="#6C63FF"/>
<path d="M308.124 225.3H299.117V234.311H308.124V225.3Z" fill="#6C63FF"/>
<path d="M264.729 253.334V247.523H273.734V252.507L264.729 253.334Z" fill="#6C63FF"/>
<path d="M24.7012 119.534V124.689H55.5285V119.534H24.7012ZM27.7734 124.366H25.2586V119.851H27.7924L27.7734 124.366ZM30.8426 124.366H28.3087V119.851H30.8426V124.366ZM33.9053 124.366H31.3715V119.851H33.9053V124.366ZM36.9745 124.366H34.4438V119.851H36.9776L36.9745 124.366ZM40.0404 124.366H37.5066V119.851H40.0404V124.366ZM43.1095 124.366H40.5757V119.851H43.1095V124.366ZM46.1786 124.366H43.6448V119.851H46.1786V124.366ZM49.2446 124.366H46.7108V119.851H49.2446V124.366ZM52.3106 124.366H49.7767V119.851H52.3106V124.366ZM55.3765 124.366H52.8427V119.851H55.3765V124.366Z" fill="#6C63FF"/>
<path d="M24.7012 134.533V139.688H55.5285V134.533H24.7012ZM27.7734 139.362H25.2586V134.86H27.7924L27.7734 139.362ZM30.8426 139.362H28.3087V134.86H30.8426V139.362ZM33.9053 139.362H31.3715V134.86H33.9053V139.362ZM36.9745 139.362H34.4438V134.86H36.9776L36.9745 139.362ZM40.0404 139.362H37.5066V134.86H40.0404V139.362ZM43.1095 139.362H40.5757V134.86H43.1095V139.362ZM46.1786 139.362H43.6448V134.86H46.1786V139.362ZM49.2446 139.362H46.7108V134.86H49.2446V139.362ZM52.3106 139.362H49.7767V134.86H52.3106V139.362ZM55.3765 139.362H52.8427V134.86H55.3765V139.362Z" fill="#6C63FF"/>
<path d="M24.7012 149.539V154.703H55.5285V149.539H24.7012ZM27.7734 154.367H25.2586V149.862H27.7924L27.7734 154.367ZM30.8426 154.367H28.3087V149.862H30.8426V154.367ZM33.9053 154.367H31.3715V149.862H33.9053V154.367ZM36.9745 154.367H34.4438V149.862H36.9776L36.9745 154.367ZM40.0404 154.367H37.5066V149.862H40.0404V154.367ZM43.1095 154.367H40.5757V149.862H43.1095V154.367ZM46.1786 154.367H43.6448V149.862H46.1786V154.367ZM49.2446 154.367H46.7108V149.862H49.2446V154.367ZM52.3106 154.367H49.7767V149.862H52.3106V154.367ZM55.3765 154.367H52.8427V149.862H55.3765V154.367Z" fill="#6C63FF"/>
<path d="M24.7012 164.544V169.693H55.5285V164.544H24.7012ZM27.7734 169.373H25.2586V164.864H27.7924L27.7734 169.373ZM30.8426 169.373H28.3087V164.864H30.8426V169.373ZM33.9053 169.373H31.3715V164.864H33.9053V169.373ZM36.9745 169.373H34.4438V164.864H36.9776L36.9745 169.373ZM40.0404 169.373H37.5066V164.864H40.0404V169.373ZM43.1095 169.373H40.5757V164.864H43.1095V169.373ZM46.1786 169.373H43.6448V164.864H46.1786V169.373ZM49.2446 169.373H46.7108V164.864H49.2446V169.373ZM52.3106 169.373H49.7767V164.864H52.3106V169.373ZM55.3765 169.373H52.8427V164.864H55.3765V169.373Z" fill="#6C63FF"/>
<path d="M24.8342 179.546C24.9577 180.031 25.0971 180.516 25.2428 180.994V179.869H27.7766V184.375H26.421C26.4622 184.479 26.5034 184.593 26.5445 184.692H55.5285V179.546H24.8342ZM30.8521 184.375H28.3182V179.869H30.8521V184.375ZM33.9148 184.375H31.381V179.869H33.9148V184.375ZM36.984 184.375H34.4438V179.869H36.9776L36.984 184.375ZM40.0499 184.375H37.5161V179.869H40.0499V184.375ZM43.119 184.375H40.5852V179.869H43.119V184.375ZM46.1882 184.375H43.6543V179.869H46.1882V184.375ZM49.2541 184.375H46.7203V179.869H49.2541V184.375ZM52.3201 184.375H49.7862V179.869H52.3201V184.375ZM55.386 184.375H52.8522V179.869H55.386V184.375Z" fill="#6C63FF"/>
<path d="M31.9923 194.551C32.0715 194.653 32.1475 194.767 32.2298 194.868H33.9053V197.032C34.0859 197.248 34.2632 197.463 34.4469 197.666V194.856H36.9808V199.377H35.9546C36.0559 199.481 36.1541 199.592 36.2713 199.694H55.538V194.551H31.9923ZM40.0404 199.377H37.5066V194.875H40.0404V199.377ZM43.1095 199.377H40.5757V194.875H43.1095V199.377ZM46.1786 199.377H43.6448V194.875H46.1786V199.377ZM49.2446 199.377H46.7108V194.875H49.2446V199.377ZM52.3106 199.377H49.7767V194.875H52.3106V199.377ZM55.3765 199.377H52.8427V194.875H55.3765V199.377Z" fill="#6C63FF"/>
<path d="M48.9025 209.554C49.1908 209.718 49.4853 209.87 49.7831 210.035V209.877H52.3169V211.303L52.8553 211.553V209.877H55.3892V212.617C55.4378 212.642 55.4887 212.661 55.5412 212.674V209.554H48.9025Z" fill="#6C63FF"/>
<path d="M218.1 176.729C218.16 176.932 218.211 177.135 218.268 177.335C218.217 177.135 218.163 176.932 218.1 176.729ZM66.6616 83.3453V84.6982H80.81V83.3453H66.6616ZM218.1 176.729C218.16 176.932 218.211 177.135 218.268 177.335C218.217 177.135 218.163 176.932 218.1 176.729ZM218.1 176.729C218.16 176.932 218.211 177.135 218.268 177.335C218.217 177.135 218.163 176.932 218.1 176.729Z" fill="#6C63FF"/>
<path d="M165.203 145.293C165.203 145.293 163.955 145.119 163.955 143.3C163.955 141.481 163.062 138.085 163.062 138.085C163.062 138.069 162.289 132.17 161.222 131.232C160.154 130.294 158.783 124.787 158.783 124.787C158.783 124.787 158.548 121.8 158.07 121.156C157.592 120.513 156.946 118.939 155.992 116.692C155.039 114.446 151.064 112.89 151.064 112.89C151.064 112.89 143.877 108.721 141.841 107.361C141.656 107.25 141.483 107.119 141.325 106.972C140.97 106.506 139.424 106.496 139.424 106.496C139.263 105.476 139.107 104.304 139.057 103.243C139.057 103.129 139.057 103.014 139.041 102.9C141.312 101.558 143.022 99.4404 143.858 96.9375C143.896 96.8171 143.928 96.6904 143.963 96.57C144.099 96.5252 144.224 96.4524 144.331 96.3564C144.437 96.2604 144.522 96.1432 144.581 96.0124C144.764 95.6037 144.767 95.1252 144.995 94.745C145.261 94.2951 145.768 94.0543 146.167 93.7153C147.175 92.8599 147.434 91.4183 147.387 90.1066C147.355 89.0452 147.184 87.9743 147.251 86.9192L147.27 86.6531C147.289 86.4946 147.311 86.3362 147.339 86.1841C147.494 85.3984 147.833 84.657 148.023 83.8776C148.213 83.0982 148.232 82.2205 147.789 81.5488C147.14 80.5635 145.787 80.367 144.6 80.2656C143.253 80.1516 142.05 80.3005 141.188 79.1821C140.785 78.5975 140.332 78.0494 139.833 77.544C139.655 77.3793 137.932 76.3274 137.932 76.2577C136.251 75.4786 134.345 75.3323 132.564 75.8458C131.671 76.1056 130.828 76.5302 129.922 76.7424C127.968 77.205 125.719 76.7044 124.06 77.8229C123.135 78.4565 122.58 79.4641 122.061 80.4463C121.639 81.2552 121.21 82.0632 120.775 82.87C120.075 84.1976 119.362 85.5473 119.068 87.0174C119.006 87.3373 118.968 87.6614 118.954 87.9869V88.0028C118.954 88.12 118.954 88.2372 118.954 88.3545V88.5034C118.954 88.6143 118.954 88.722 118.973 88.8202C118.992 88.9184 118.989 88.9501 118.998 89.0167C119.008 89.0832 119.024 89.2321 119.043 89.3335C119.062 89.4349 119.1 89.6123 119.138 89.7517C119.153 89.8119 119.176 89.8689 119.195 89.926C119.226 90.0337 119.264 90.1382 119.305 90.2428C119.328 90.2967 119.35 90.3537 119.375 90.4076C119.423 90.5185 119.48 90.6262 119.537 90.7244C119.562 90.7688 119.581 90.8099 119.606 90.8511C119.695 90.9985 119.792 91.1403 119.898 91.2757C120.575 92.1216 121.573 92.6603 122.311 93.4524C122.311 93.484 122.311 93.5157 122.311 93.5442C122.311 93.6329 122.311 93.7185 122.311 93.8072C122.35 95.5737 122.82 97.3039 123.68 98.8473C124.54 100.391 125.764 101.7 127.246 102.663C127.246 102.783 127.262 102.907 127.268 103.027C127.33 103.968 127.318 104.911 127.233 105.85C127.104 105.698 126.943 105.577 126.761 105.496C126.579 105.415 126.381 105.376 126.182 105.381C126.046 105.375 125.909 105.386 125.776 105.416L125.748 105.394V105.422C125.051 105.594 124.193 106.319 123.372 108.382C123.372 108.382 120.876 111.195 118.976 111.078C117.076 110.961 112.264 114.005 112.264 114.005C112.264 114.005 107.571 117.053 106.563 120.158C106 121.919 105.325 123.642 104.543 125.317L98.7401 137.277L97.6695 146.766C97.6695 146.766 98.2618 150.987 98.1446 151.63C98.0274 152.273 100.58 158.074 100.58 158.074C100.58 158.074 109.015 172.899 112.461 173.659L112.708 173.485C112.855 173.562 113.012 173.621 113.173 173.659L113.883 173.159C113.926 173.717 113.908 174.278 113.829 174.832C113.354 176.295 114.007 185.848 114.836 187.72C115.666 189.593 115.372 214.145 115.372 214.145L115.254 216.312C115.254 216.312 115.254 216.381 115.283 216.502L115.254 217.015L115.34 217.059C115.429 217.747 115.4 218.444 115.254 219.122C114.957 220.073 114.836 222.759 114.836 222.759C114.836 222.759 112.464 237.929 113.588 240.977C114.713 244.025 115.669 247.365 115.669 247.365C115.669 247.365 116.857 251.167 115.726 251.816C114.596 252.466 111.381 253.556 112.043 255.14C112.645 256.604 114.928 260.526 115.267 261.1L115.239 261.401L114.773 266.448C114.848 267.114 115.029 267.764 115.308 268.374C115.818 269.474 116.81 270.614 118.694 270.491C119.011 270.468 119.378 270.43 119.733 270.383C123.182 269.92 127.43 268.381 127.43 268.381C127.209 268.24 127.007 268.073 126.828 267.883C126.658 267.719 126.524 267.522 126.433 267.304C126.342 267.086 126.296 266.852 126.299 266.616C126.35 265.697 124.63 261.318 124.202 260.241C124.136 260.086 124.101 259.997 124.101 259.997C124.101 259.997 128.022 255.897 127.369 252.263C127.369 252.263 123.03 249.728 124.459 248.338C125.887 246.947 128.44 242.951 128.44 242.951C128.44 242.951 128.557 228.012 128.44 225.782C128.318 224.234 128.391 222.676 128.658 221.147C128.706 220.915 128.763 220.69 128.823 220.469C130.799 220.764 132.793 220.915 134.79 220.922C135.519 220.922 136.26 220.922 137.007 220.877C137.007 221.089 137.017 221.317 137.036 221.562C137.201 225.262 137.508 231.751 137.758 234.162C138.113 237.619 140.073 246.934 140.073 246.934C140.073 246.934 136.333 249.336 140.726 255.254C140.726 255.254 140.726 257.399 140.435 257.71C140.123 258.725 139.873 259.757 139.684 260.802C139.5 261.917 139.424 263.045 139.722 263.631C140.435 265.032 144.71 264.918 144.71 264.918L144.815 264.898C145.622 264.815 146.438 264.893 147.215 265.127C147.992 265.362 148.715 265.748 149.341 266.264C150.966 267.569 157.133 266.996 160.471 266.581C161.779 266.416 162.653 266.264 162.653 266.264C162.696 266.116 162.711 265.961 162.697 265.808C162.663 264.987 162.02 263.188 157.661 261.581C157.661 261.581 153.563 258.825 153.62 256.423H153.059C153.405 256.404 153.626 256.423 153.626 256.423C153.626 256.423 152.021 250.562 152.676 250.086C153.332 249.611 151.368 243.116 151.368 243.116C151.368 243.116 150.244 232.217 150.183 231.453C150.186 230.798 150.285 230.147 150.478 229.521L150.183 223.545C150.183 223.545 150.126 221.559 150.183 220.912C150.174 220.351 150.128 219.791 150.047 219.236C150.019 219.014 149.99 218.783 149.959 218.555C151.495 218.165 152.492 217.804 152.492 217.804L152.315 197.004C153.62 194.469 153.861 188.909 153.854 184.964C153.854 182.429 153.74 180.554 153.74 180.554L155.524 177.642C155.524 177.642 155.935 174.157 155.283 173.393C154.995 173.048 155.124 172.69 155.362 172.395C155.485 172.297 155.616 172.208 155.752 172.129C155.752 172.129 155.733 172.1 155.71 172.059C155.835 171.955 155.967 171.861 156.106 171.777C156.106 171.777 155.473 170.795 156.04 170.38C156.572 170.741 157.047 171.014 157.408 171.236C157.383 171.467 157.357 171.6 157.357 171.6L157.509 171.283C157.858 171.479 158.07 171.6 158.07 171.6C158.07 171.6 160.864 166.033 160.803 165.212C160.743 164.392 162.704 160.935 162.704 160.935C162.704 160.935 162.941 159.12 164.012 158.359C165.082 157.599 164.842 152.089 164.842 152.089C164.842 152.089 165.139 149.219 165.852 148.046C166.565 146.874 165.203 145.293 165.203 145.293ZM111.751 142.85L111.805 144.178C111.489 143.668 111.26 143.3 111.26 143.3L111.751 142.85Z" fill="url(#paint0_linear_30_5)"/>
<path d="M158.222 169.195L157.538 172.11C157.538 172.11 152.059 169.312 151.07 165.757C150.082 162.203 152.724 160.853 152.724 160.853L157.829 163.017L158.222 169.195Z" fill="white"/>
<path d="M158.222 169.195L157.538 172.11C157.538 172.11 152.059 169.312 151.07 165.757C150.082 162.203 152.724 160.853 152.724 160.853L157.829 163.017L158.222 169.195Z" fill="black"/>
<path d="M127.471 268.4C127.471 268.4 122.403 270.263 118.919 270.497C117.069 270.621 116.097 269.486 115.596 268.393C115.323 267.786 115.147 267.139 115.074 266.476L115.768 258.78L123.17 256.857L124.218 260.064L124.316 260.308C124.737 261.378 126.426 265.735 126.375 266.644C126.373 266.877 126.418 267.108 126.507 267.323C126.596 267.538 126.728 267.733 126.894 267.896C127.064 268.088 127.258 268.257 127.471 268.4Z" fill="white"/>
<path d="M162.086 265.846C162.099 265.998 162.084 266.152 162.042 266.299C162.042 266.299 151.203 268.108 148.986 266.299C148.361 265.77 147.632 265.378 146.847 265.148C146.062 264.918 145.237 264.854 144.425 264.962C144.425 264.962 140.232 265.076 139.532 263.695C139.24 263.115 139.316 261.99 139.497 260.881C139.681 259.842 139.927 258.815 140.232 257.805L140.4 257.671L141.397 256.87L153.078 256.525H153.167C153.11 258.913 157.133 261.654 157.133 261.654C161.405 263.238 162.036 265.028 162.086 265.846Z" fill="white"/>
<path d="M162.086 265.846C162.097 265.998 162.081 266.152 162.039 266.299C162.039 266.299 151.203 268.108 148.986 266.299C148.362 265.771 147.633 265.379 146.849 265.149C146.064 264.919 145.239 264.855 144.428 264.962C144.428 264.962 140.232 265.076 139.535 263.695C139.244 263.112 139.316 261.99 139.497 260.881C141.112 261.043 143.662 261.445 144.663 262.405C146.177 263.866 148.742 265.323 150.316 265.437C151.549 265.516 158.919 265.751 162.086 265.846Z" fill="black"/>
<path d="M127.471 268.4C127.471 268.4 122.403 270.263 118.919 270.497C117.069 270.621 116.097 269.486 115.6 268.39C116.889 268.824 118.678 269.28 119.619 268.862C120.734 268.368 124.687 268.048 126.904 267.912C127.073 268.096 127.263 268.26 127.471 268.4Z" fill="black"/>
<path d="M134.99 118.267C130.809 116.642 125.431 111.271 126.774 108.762C127.072 108.129 127.249 107.445 127.297 106.747C127.383 105.799 127.396 104.845 127.335 103.895C127.24 102.339 127.053 100.79 126.774 99.2568C126.774 99.2568 139.826 99.5514 139.066 101.475C138.845 102.039 138.81 103.018 138.87 104.114C138.93 105.21 139.088 106.449 139.253 107.498C139.481 108.936 139.709 110.032 139.709 110.032C139.709 110.032 138.911 111.151 138.442 111.211C137.974 111.271 140.989 120.583 134.99 118.267Z" fill="#CF6F80"/>
<path d="M124.307 260.308L124.208 260.415C120.306 255.694 115.587 261.578 115.587 261.578L115.517 261.454L115.758 258.78L123.16 256.857L124.208 260.064L124.307 260.308Z" fill="black"/>
<path d="M153.17 256.857C153.17 256.857 150.32 256.797 148.799 258.14C147.279 259.484 139.931 258.432 140.248 258.14C140.341 257.996 140.398 257.83 140.412 257.659L141.41 256.857L153.091 256.512C153.135 256.724 153.17 256.857 153.17 256.857Z" fill="black"/>
<path d="M129.162 219.784C128.95 220.309 128.789 220.854 128.681 221.41C128.417 222.932 128.343 224.482 128.462 226.023C128.579 228.241 128.462 243.103 128.462 243.103C128.462 243.103 125.957 247.067 124.56 248.464C123.163 249.861 127.411 252.371 127.411 252.371C128.044 255.983 124.205 260.064 124.205 260.064C120.303 255.343 115.584 261.23 115.584 261.23C115.584 261.23 113.018 256.794 112.379 255.21C111.739 253.625 114.884 252.529 115.989 251.886C117.095 251.243 115.935 247.45 115.935 247.45C115.935 247.45 115.001 244.127 113.892 241.095C112.784 238.063 115.115 222.968 115.115 222.968C115.115 222.968 115.235 220.288 115.524 219.353C115.669 218.679 115.698 217.985 115.609 217.3C115.59 217.069 115.568 216.876 115.552 216.746C115.536 216.616 115.524 216.556 115.524 216.556L115.568 216.48L117.152 213.527C117.152 213.527 129.922 217.924 129.162 219.784Z" fill="#6C63FF"/>
<path d="M153.17 256.509C153.17 256.509 150.32 256.448 148.799 257.776C147.279 259.104 139.931 258.068 140.248 257.776C140.564 257.485 140.539 255.327 140.539 255.327C136.228 249.44 139.906 247.051 139.906 247.051C139.906 247.051 137.98 237.784 137.631 234.346C137.388 231.944 137.087 225.49 136.925 221.806C136.855 220.221 136.814 219.132 136.814 219.132L140.336 218.422L140.789 218.33L149.284 216.625C149.284 216.625 149.518 218.21 149.677 219.505C149.756 220.059 149.8 220.616 149.81 221.175C149.753 221.809 149.81 223.792 149.81 223.792L150.098 229.739C149.91 230.363 149.813 231.011 149.81 231.662C149.867 232.42 150.972 243.262 150.972 243.262C150.972 243.262 152.895 249.732 152.239 250.197C151.583 250.663 153.17 256.509 153.17 256.509Z" fill="#6C63FF"/>
<path d="M139.066 101.475C138.845 102.039 138.81 103.018 138.87 104.114C137.122 105.167 135.112 105.705 133.071 105.667C131.031 105.629 129.042 105.016 127.335 103.898C127.241 102.341 127.053 100.791 126.774 99.2568C126.774 99.2568 139.826 99.5451 139.066 101.475Z" fill="black"/>
<path d="M144.112 94.4726C144.114 95.6143 143.935 96.7491 143.58 97.8342C142.786 100.265 141.159 102.338 138.986 103.685C136.812 105.032 134.233 105.568 131.703 105.196C129.174 104.825 126.857 103.571 125.162 101.657C123.467 99.7418 122.503 97.2892 122.441 94.7324C122.441 94.6437 122.441 94.5613 122.441 94.4726C122.416 93.0334 122.679 91.6037 123.212 90.2669C123.746 88.9301 124.54 87.713 125.549 86.6865C126.558 85.66 127.76 84.8448 129.087 84.2882C130.415 83.7317 131.839 83.4451 133.278 83.4451C134.717 83.4451 136.141 83.7317 137.468 84.2882C138.796 84.8448 139.998 85.66 141.007 86.6865C142.016 87.713 142.81 88.9301 143.344 90.2669C143.877 91.6037 144.14 93.0334 144.115 94.4726H144.112Z" fill="#CF6F80"/>
<path d="M134.99 118.267C130.809 116.642 125.431 111.271 126.774 108.762C127.072 108.129 127.249 107.445 127.297 106.747L136.561 114.357L139.253 107.501C139.481 108.939 139.709 110.036 139.709 110.036C139.709 110.036 138.911 111.154 138.442 111.214C137.974 111.274 140.989 120.583 134.99 118.267Z" fill="black"/>
<path d="M149.791 139.061L145.011 219.379L138.778 219.787L122.637 173.216L125.843 106.243L133.02 112.139L136.564 115.045L139.335 107.989L144.489 112.482L149.791 139.061Z" fill="#6C63FF"/>
<path d="M129.162 219.784C128.95 220.309 128.789 220.854 128.681 221.41C124.145 220.709 119.74 219.333 115.612 217.326L115.527 217.281L115.555 216.771L115.571 216.505L117.155 213.552C117.155 213.552 129.922 217.924 129.162 219.784Z" fill="black"/>
<path d="M140.409 221.422C139.25 221.62 138.08 221.753 136.906 221.822C136.836 220.237 136.795 219.147 136.795 219.147L140.317 218.438L140.409 221.422Z" fill="black"/>
<path d="M149.658 219.521C147.406 220.107 143.928 220.766 140.815 220.355L140.77 218.346L149.265 216.641C149.265 216.641 149.499 218.21 149.658 219.521Z" fill="black"/>
<path d="M140.758 220.722C127.772 222.94 115.878 216.581 115.878 216.581L115.992 214.427C115.992 214.427 116.287 190.002 115.47 188.129C114.653 186.257 114.016 176.761 114.478 175.304C114.941 173.846 112.79 151.991 112.79 151.991L112.442 143.12L99.6903 137.952L105.391 126.064C106.161 124.398 106.824 122.683 107.374 120.932C108.366 117.846 112.968 114.813 112.968 114.813C112.968 114.813 117.687 111.784 119.552 111.899C121.418 112.013 123.863 109.218 123.863 109.218C125.669 104.614 127.303 106.699 127.303 106.699C127.303 106.918 127.303 106.699 127.214 107.38C126.581 112.434 137.457 128.403 137.612 128.684L138.648 153.924L139.697 185.864L140.758 220.722Z" fill="black"/>
<path d="M140.409 220.722C127.423 222.94 115.527 216.581 115.527 216.581L115.644 214.427C115.644 214.427 115.939 190.002 115.118 188.129C114.298 186.257 113.664 176.761 114.13 175.304C114.596 173.846 112.442 151.991 112.442 151.991L112.09 143.12L99.3324 137.933L105.034 126.045C105.802 124.378 106.464 122.664 107.016 120.913C108.004 117.827 112.61 114.794 112.61 114.794C112.61 114.794 117.329 111.765 119.191 111.88C121.054 111.994 123.502 109.199 123.502 109.199C125.311 104.595 127.303 106.68 127.303 106.68C127.303 106.899 127.113 106.997 127.214 107.361C128.608 112.263 137.109 128.384 137.264 128.665L138.312 153.905L139.361 185.845L140.409 220.722Z" fill="white"/>
<path d="M136.909 129.385C135.513 128.802 128.114 120.352 128.114 120.352V118.429C127.844 117.795 126.245 118.181 124.946 118.625L125.504 106.943L126.137 107.469C127.525 112.367 136.748 129.103 136.909 129.385Z" fill="black"/>
<path d="M137.261 128.684C135.861 128.102 128.462 119.652 128.462 119.652V117.728C128.193 117.095 126.593 117.481 125.295 117.925L125.855 106.243L126.489 106.769C127.879 111.667 137.106 128.406 137.261 128.684Z" fill="white"/>
<path d="M115.878 170.827C116.053 170.827 124.908 169.895 124.908 169.895C124.908 169.895 130.271 180.443 129.919 183.009C129.567 185.576 128.931 187.847 126.774 187.445C124.617 187.042 115.166 187.762 115.166 187.762L115.878 170.827Z" fill="black"/>
<path d="M115.527 170.127C115.701 170.127 124.557 169.195 124.557 169.195C124.557 169.195 129.916 179.746 129.567 182.309C129.219 184.872 128.576 187.147 126.422 186.745C124.269 186.342 114.814 187.061 114.814 187.061L115.527 170.127Z" fill="white"/>
<path d="M122.2 165.174C122.2 165.174 130.328 169.544 130.502 170.878C130.676 172.211 126.365 170.295 125.434 170.063C124.821 169.916 124.197 169.818 123.569 169.772L117.358 169.94L122.2 165.174Z" fill="#CF6F80"/>
<path d="M134.642 129.93C135.114 129.93 135.497 129.547 135.497 129.074C135.497 128.602 135.114 128.219 134.642 128.219C134.169 128.219 133.786 128.602 133.786 129.074C133.786 129.547 134.169 129.93 134.642 129.93Z" fill="black"/>
<path d="M134.642 129.581C135.114 129.581 135.497 129.198 135.497 128.726C135.497 128.253 135.114 127.87 134.642 127.87C134.169 127.87 133.786 128.253 133.786 128.726C133.786 129.198 134.169 129.581 134.642 129.581Z" fill="#3F3D56"/>
<path d="M136.216 166.961C136.688 166.961 137.071 166.578 137.071 166.106C137.071 165.634 136.688 165.251 136.216 165.251C135.743 165.251 135.361 165.634 135.361 166.106C135.361 166.578 135.743 166.961 136.216 166.961Z" fill="black"/>
<path d="M136.216 166.61C136.688 166.61 137.071 166.227 137.071 165.754C137.071 165.282 136.688 164.899 136.216 164.899C135.743 164.899 135.361 165.282 135.361 165.754C135.361 166.227 135.743 166.61 136.216 166.61Z" fill="#3F3D56"/>
<path d="M135.493 148.446C135.966 148.446 136.349 148.063 136.349 147.59C136.349 147.118 135.966 146.735 135.493 146.735C135.021 146.735 134.638 147.118 134.638 147.59C134.638 148.063 135.021 148.446 135.493 148.446Z" fill="black"/>
<path d="M135.493 148.097C135.966 148.097 136.349 147.714 136.349 147.242C136.349 146.769 135.966 146.386 135.493 146.386C135.021 146.386 134.638 146.769 134.638 147.242C134.638 147.714 135.021 148.097 135.493 148.097Z" fill="#3F3D56"/>
<path d="M155.207 169.594C155.207 169.594 155.79 170.469 155.207 170.878C154.624 171.286 155.264 172.275 155.264 172.275C155.264 172.275 153.81 173.127 154.45 173.894C155.09 174.661 154.684 178.124 154.684 178.124L152.936 181.019C152.936 181.019 153.04 182.886 153.047 185.408C153.047 189.343 152.816 194.875 151.536 197.397L151.713 218.089C151.713 218.089 145.591 220.326 140.466 219.645L139.706 186.44C139.706 186.44 140.815 167.611 141.223 163.999C141.462 162.124 141.56 160.233 141.515 158.343C141.515 158.343 141.34 152.691 140.754 150.068C140.754 150.068 140.121 138.703 140.058 135.557C140.029 134.052 140.108 129.66 140.197 125.484C140.295 120.919 140.406 116.613 140.406 116.613L139.25 107.463C139.25 107.463 140.406 107.346 140.754 107.811C140.91 107.957 141.08 108.088 141.261 108.201C143.257 109.551 150.307 113.701 150.307 113.701C150.307 113.701 154.209 115.254 155.143 117.478C156.078 119.702 156.727 121.28 157.18 121.914C157.633 122.547 157.88 125.526 157.88 125.526C157.88 125.526 159.223 131.007 160.271 131.935C161.32 132.864 162.086 138.769 162.086 138.769L152.822 146.057C152.822 146.057 152.008 158.179 151.834 158.648C151.659 159.117 155.207 169.594 155.207 169.594Z" fill="white"/>
<path d="M155.558 169.594C155.558 169.594 156.138 170.469 155.558 170.878C154.979 171.286 155.612 172.275 155.612 172.275C155.612 172.275 154.168 173.137 154.801 173.903C155.435 174.67 155.036 178.133 155.036 178.133L153.287 181.029C153.287 181.029 153.392 182.895 153.401 185.417C153.401 189.352 153.17 194.884 151.891 197.406L152.065 218.099C152.065 218.099 145.933 220.336 140.815 219.654L140.058 186.45C140.058 186.45 141.166 167.62 141.575 164.009C141.814 162.133 141.91 160.243 141.863 158.353C141.863 158.353 141.689 152.701 141.106 150.077C141.106 150.077 140.473 138.712 140.406 135.566C140.378 134.061 140.46 129.67 140.545 125.494C140.644 120.928 140.754 116.623 140.754 116.623L139.228 107.349C139.228 107.349 140.754 107.349 141.106 107.821C141.261 107.968 141.43 108.099 141.613 108.211C143.608 109.56 150.662 113.711 150.662 113.711C150.662 113.711 154.561 115.263 155.495 117.488C156.429 119.712 157.079 121.29 157.535 121.923C157.991 122.557 158.232 125.535 158.232 125.535C158.232 125.535 159.575 131.016 160.623 131.945C161.671 132.873 162.428 138.766 162.428 138.766L153.164 146.053C153.164 146.053 152.35 158.176 152.173 158.644C151.995 159.113 155.558 169.594 155.558 169.594Z" fill="white"/>
<path d="M144.463 119.312L145.299 121.752L140.897 126.188C140.995 121.625 141.106 117.316 141.106 117.316L139.579 108.043C139.579 108.043 141.106 108.043 141.458 108.515C141.612 108.662 141.782 108.792 141.964 108.901L145.708 119.705L144.463 119.312Z" fill="black"/>
<path d="M144.112 118.612L144.951 121.052L140.549 125.488C140.647 120.922 140.758 116.616 140.758 116.616L139.228 107.342C139.228 107.342 140.758 107.342 141.106 107.815C141.261 107.961 141.431 108.092 141.613 108.204L145.36 119.005L144.112 118.612Z" fill="white"/>
<path d="M144.112 94.4726C144.114 95.6143 143.935 96.7491 143.58 97.8342C143.52 97.8435 143.459 97.8408 143.4 97.8261C143.341 97.8114 143.286 97.7851 143.238 97.7486C143.155 94.8971 141.752 92.2199 140.026 89.9418C139.541 89.254 138.954 88.6449 138.284 88.1359C137.607 87.6271 136.764 87.3887 135.921 87.4673C134.971 87.5972 134.132 88.2436 133.172 88.326C131.905 88.4305 130.771 87.5529 129.514 87.5085C129.002 87.5134 128.498 87.6272 128.034 87.8425C127.571 88.0578 127.158 88.3695 126.825 88.7569C126.164 89.5386 125.673 90.4492 125.383 91.4309C124.885 92.9196 124.614 94.4747 124.579 96.0441C124.563 96.9312 124.478 98.0433 123.654 98.3665C123.716 97.714 123.642 97.0558 123.436 96.4335C123.231 95.8113 122.898 95.2384 122.46 94.7514L122.441 94.7324C122.441 94.6437 122.441 94.5613 122.441 94.4726C122.416 93.0334 122.679 91.6037 123.212 90.2669C123.746 88.9301 124.54 87.713 125.549 86.6865C126.558 85.66 127.76 84.8448 129.087 84.2882C130.415 83.7317 131.839 83.4451 133.278 83.4451C134.717 83.4451 136.141 83.7317 137.468 84.2882C138.796 84.8448 139.998 85.66 141.007 86.6865C142.016 87.713 142.81 88.9301 143.344 90.2669C143.877 91.6037 144.14 93.0334 144.115 94.4726H144.112Z" fill="black"/>
<path d="M137.764 77.2589C136.119 76.4844 134.247 76.3379 132.5 76.847C131.623 77.1068 130.796 77.5282 129.906 77.7405C128.006 78.1999 125.789 77.7025 124.158 78.8145C123.252 79.4482 122.707 80.4494 122.2 81.4221L120.933 83.8364C120.243 85.1576 119.546 86.501 119.258 87.9552C118.97 89.4095 119.144 91.0381 120.066 92.2072C120.737 93.0595 121.728 93.5949 122.457 94.3965C122.893 94.8841 123.224 95.4566 123.429 96.0781C123.634 96.6996 123.709 97.3568 123.648 98.0085C124.474 97.6916 124.554 96.5763 124.573 95.6892C124.608 94.1198 124.879 92.5647 125.377 91.0761C125.666 90.0941 126.157 89.1833 126.818 88.402C127.152 88.0149 127.565 87.7034 128.028 87.4882C128.492 87.273 128.996 87.1589 129.507 87.1537C130.774 87.198 131.911 88.0725 133.166 87.9679C134.116 87.8887 134.958 87.2392 135.915 87.1125C136.758 87.0326 137.601 87.2711 138.278 87.781C138.947 88.2893 139.534 88.8985 140.016 89.587C141.746 91.865 143.149 94.5359 143.231 97.3938C143.589 97.6568 144.105 97.3146 144.283 96.909C144.46 96.5035 144.466 96.0282 144.691 95.6417C144.951 95.1949 145.448 94.9573 145.838 94.6215C146.826 93.7692 147.073 92.3339 147.035 91.0317C146.997 89.7295 146.744 88.4083 146.991 87.1283C147.14 86.3426 147.475 85.6075 147.659 84.8313C147.843 84.055 147.865 83.1837 147.431 82.5152C146.798 81.533 145.464 81.3397 144.302 81.2478C142.981 81.1338 141.8 81.2795 140.957 80.1674C140.562 79.5871 140.117 79.0422 139.627 78.5389C139.459 78.3741 137.764 77.3286 137.764 77.2589Z" fill="#512E4E"/>
<path d="M103.339 144.073L100.029 137.952L98.9808 147.397C98.9808 147.397 99.5636 151.592 99.4464 152.235C99.3292 152.878 101.835 158.644 101.835 158.644C101.835 158.644 110.111 173.39 113.49 174.15L124.908 165.989L121.88 162.142C121.88 162.142 120.832 161.734 120.569 162.142C120.569 162.142 114.947 152.466 114.364 151.766C113.782 151.066 113.896 149.669 113.896 149.669C113.896 149.669 113.021 148.737 113.313 147.863C113.604 146.988 111.625 143.956 111.625 143.956L113.43 142.267L103.339 144.073Z" fill="black"/>
<path d="M100.203 137.255L99.3292 137.952L98.2808 147.397C98.2808 147.397 98.8636 151.592 98.7464 152.235C98.6292 152.878 101.138 158.644 101.138 158.644C101.138 158.644 109.411 173.39 112.79 174.15L124.212 165.989L121.18 162.142C121.18 162.142 120.132 161.734 119.869 162.142C119.869 162.142 114.247 152.466 113.664 151.766C113.082 151.066 113.199 149.669 113.199 149.669C113.199 149.669 112.325 148.737 112.616 147.863C112.907 146.988 110.925 143.956 110.925 143.956L112.73 142.267L100.203 137.255Z" fill="white"/>
<path d="M154.45 174.255C155.083 175.025 154.684 178.482 154.684 178.482L152.936 181.377C152.936 181.377 153.04 183.247 153.047 185.766L150.107 186.684C149.842 186.767 149.56 186.786 149.286 186.738C149.012 186.69 148.753 186.577 148.532 186.408C148.31 186.24 148.132 186.021 148.012 185.77C147.892 185.519 147.834 185.242 147.843 184.964L148.35 168.612L155.207 171.236C154.624 171.641 155.264 172.636 155.264 172.636C155.264 172.636 153.81 173.485 154.45 174.255Z" fill="black"/>
<path d="M154.801 173.903C155.435 174.673 155.036 178.133 155.036 178.133L153.287 181.029C153.287 181.029 153.392 182.895 153.401 185.417L150.408 186.352C150.148 186.433 149.873 186.45 149.604 186.403C149.336 186.356 149.083 186.245 148.866 186.08C148.649 185.915 148.475 185.701 148.357 185.455C148.24 185.209 148.183 184.939 148.191 184.666L148.701 168.264L155.562 170.887C154.976 171.293 155.615 172.284 155.615 172.284C155.615 172.284 154.168 173.137 154.801 173.903Z" fill="white"/>
<path d="M157.072 166.109C157.072 166.109 156.607 169.084 155.441 169.258C154.276 169.433 153.753 174.071 152.591 173.906C151.428 173.742 152.198 169.594 152.239 168.79C152.28 167.985 150.972 164.652 151.951 163.894C152.93 163.137 156.027 163.894 156.027 163.894L157.072 166.109Z" fill="#CF6F80"/>
<path d="M159.552 143.199L161.75 138.763C161.75 138.763 162.625 142.144 162.625 143.95C162.625 145.756 163.847 145.933 163.847 145.933C163.847 145.933 165.187 147.517 164.481 148.67C163.774 149.824 163.489 152.694 163.489 152.694C163.489 152.694 163.721 158.172 162.672 158.93C161.624 159.687 161.405 161.496 161.405 161.496C161.405 161.496 159.48 164.934 159.54 165.751C159.6 166.569 156.86 172.104 156.86 172.104C156.86 172.104 158.2 165.225 150.393 162.253C150.393 162.253 150.332 159.918 150.915 159.278C151.498 158.638 152.407 158.347 151.837 155.112C151.267 151.877 151.672 148.011 151.672 147.235C151.672 146.459 153.42 141.618 153.42 141.618L159.552 143.199Z" fill="black"/>
<path d="M160.503 138.129L162.422 138.763C162.422 138.763 163.299 142.144 163.299 143.95C163.299 145.756 164.522 145.933 164.522 145.933C164.522 145.933 165.862 147.517 165.155 148.67C164.449 149.824 164.167 152.694 164.167 152.694C164.167 152.694 164.398 158.172 163.35 158.93C162.302 159.687 162.067 161.496 162.067 161.496C162.067 161.496 160.145 164.934 160.205 165.751C160.265 166.569 157.522 172.104 157.522 172.104C157.522 172.104 158.865 165.225 151.055 162.253C151.055 162.253 150.997 159.918 151.58 159.278C152.163 158.638 153.072 158.347 152.502 155.112C151.932 151.877 152.337 148.011 152.337 147.235C152.337 146.459 154.086 141.618 154.086 141.618L160.503 138.129Z" fill="white"/>
<path d="M118.108 253.1C118.108 253.1 121.168 251.176 123.176 252.574C125.184 253.971 118.108 253.1 118.108 253.1Z" fill="black"/>
<path d="M141.882 247.153C141.882 247.153 144.59 246.804 146.864 249.253C149.138 251.702 141.882 247.153 141.882 247.153Z" fill="black"/>
<path d="M145.844 93.9276C145.455 94.2635 144.954 94.5043 144.695 94.951C144.473 95.3344 144.466 95.8064 144.289 96.2183C144.112 96.6302 143.595 96.9661 143.238 96.7063C143.155 93.8547 141.749 91.1775 140.023 88.8963C139.54 88.2078 138.954 87.5986 138.284 87.0903C137.606 86.5805 136.762 86.3421 135.918 86.4218C134.968 86.5517 134.132 87.198 133.172 87.2772C131.905 87.385 130.768 86.5073 129.51 86.463C128.999 86.468 128.495 86.5823 128.032 86.7982C127.569 87.014 127.157 87.3264 126.825 87.7145C126.163 88.4946 125.673 89.4043 125.383 90.3854C124.886 91.8741 124.615 93.4292 124.579 94.9985C124.56 95.8825 124.478 96.9851 123.66 97.3146C123.679 97.5487 123.679 97.7839 123.66 98.018C124.484 97.7011 124.566 96.5859 124.585 95.6987C124.621 94.1293 124.892 92.5742 125.39 91.0856C125.679 90.1036 126.17 89.1928 126.831 88.4115C127.164 88.0245 127.576 87.713 128.039 87.4978C128.503 87.2825 129.006 87.1685 129.517 87.1632C130.784 87.2075 131.924 88.082 133.178 87.9774C134.128 87.8982 134.971 87.2487 135.924 87.122C136.769 87.0423 137.612 87.2807 138.29 87.7905C138.96 88.2988 139.546 88.908 140.029 89.5965C141.755 91.8745 143.162 94.5454 143.244 97.4033C143.602 97.6663 144.118 97.3241 144.295 96.9185C144.473 96.513 144.479 96.0377 144.701 95.6512C144.961 95.2045 145.461 94.9668 145.851 94.631C146.839 93.7787 147.086 92.3434 147.048 91.0412C147.048 91 147.048 90.9589 147.048 90.9208C146.988 92.0488 146.687 93.1989 145.844 93.9276Z" fill="black"/>
<path d="M122.463 93.7027C121.735 92.9011 120.74 92.3656 120.072 91.5165C119.509 90.7648 119.188 89.86 119.15 88.9216C119.051 90.0942 119.378 91.2633 120.072 92.2135C120.74 93.0658 121.735 93.6013 122.463 94.4029C123.163 95.187 123.583 96.1808 123.657 97.229C123.706 96.5911 123.625 95.95 123.42 95.344C123.215 94.7381 122.889 94.1798 122.463 93.7027Z" fill="black"/>
<path d="M147.665 84.1374C147.479 84.9136 147.146 85.6519 146.994 86.4344C146.904 86.9574 146.871 87.4886 146.896 88.0186C146.906 87.7167 146.939 87.4159 146.994 87.1188C147.146 86.3331 147.479 85.598 147.665 84.8218C147.774 84.3936 147.81 83.9501 147.77 83.5101C147.75 83.7214 147.715 83.9311 147.665 84.1374Z" fill="black"/>
<path d="M61.0397 265.982C78.0844 265.982 91.9019 263.762 91.9019 261.024C91.9019 258.285 78.0844 256.065 61.0397 256.065C43.9949 256.065 30.1774 258.285 30.1774 261.024C30.1774 263.762 43.9949 265.982 61.0397 265.982Z" fill="#6C63FF"/>
<path d="M62.0342 166.036H60.0483V210.764H62.0342V166.036Z" fill="#535461"/>
<path d="M74.5134 210.628L74.3898 212.643L73.9654 219.531L73.8894 220.716L71.7103 255.907C71.6233 257.298 71.0095 258.604 69.9939 259.559C68.9783 260.514 67.6372 261.045 66.2435 261.046H55.8358C54.4424 261.045 53.1017 260.513 52.0866 259.559C51.0715 258.604 50.4584 257.298 50.3722 255.907L47.5754 210.606C47.5534 210.218 47.6109 209.829 47.7442 209.465C47.8776 209.1 48.0841 208.766 48.351 208.484C48.6179 208.202 48.9397 207.977 49.2965 207.824C49.6533 207.671 50.0377 207.592 50.426 207.592H71.7135C72.1003 207.596 72.4824 207.678 72.8361 207.835C73.1898 207.992 73.5077 208.22 73.7701 208.504C74.0324 208.788 74.2337 209.124 74.3616 209.489C74.4894 209.854 74.5411 210.242 74.5134 210.628Z" fill="#3F3D56"/>
<path d="M74.3898 212.643L74.2125 215.485H47.8668L47.6895 212.643H74.3898Z" fill="#9D9CB5"/>
<path d="M74.1396 216.67L73.9654 219.515H48.1171L47.9397 216.67H74.1396Z" fill="#9D9CB5"/>
<path d="M73.8894 220.703L73.7152 223.545H48.3673L48.1899 220.703H73.8894Z" fill="#9D9CB5"/>
<path d="M44.6583 182.8C56.2222 191.171 61.0491 204.262 61.0491 204.262C61.0491 204.262 47.113 203.784 35.546 195.413C23.979 187.042 19.1615 173.954 19.1615 173.954C19.1615 173.954 33.0913 174.429 44.6583 182.8Z" fill="#6C63FF"/>
<path d="M52.1237 165.938C58.4171 170.491 61.0491 177.617 61.0491 177.617C61.0491 177.617 53.4635 177.357 47.1669 172.804C40.8702 168.251 38.2446 161.122 38.2446 161.122C38.2446 161.122 45.8271 161.382 52.1237 165.938Z" fill="#6C63FF"/>
<path d="M70.1868 177.255C62.9559 185.205 61.4261 195.594 61.4261 195.594C61.4261 195.594 71.6216 193.091 78.8463 185.138C86.0709 177.186 87.607 166.8 87.607 166.8C87.607 166.8 77.4178 169.306 70.1868 177.255Z" fill="#6C63FF"/>
<path d="M335.626 174.458C335.626 174.458 330.397 148.433 332.399 145.195C332.399 145.195 332.471 142.185 332.351 138.348C332.351 138.202 332.351 138.056 332.351 137.908C332.703 138.142 333.07 138.354 333.45 138.541C335.294 139.489 337.412 139.763 339.436 139.314L337.853 137.55C337.473 137.128 337.077 136.672 336.994 136.114C336.912 135.557 337.14 135.059 337.336 134.562C338.841 130.76 338.92 125.979 336.022 123.076C333.574 120.637 332.978 117.488 330.321 115.26C328.379 113.628 327.312 111.236 326.305 108.923C325.453 106.969 324.594 104.998 324.107 102.926C323.726 101.307 323.574 99.6307 323.052 98.0496C322.529 96.4686 321.551 94.932 320.021 94.2254C319.476 93.9751 318.871 93.8326 318.374 93.4999C317.721 93.0595 317.329 92.3434 316.857 91.7161C314.459 88.5477 306.43 90.4139 302.629 91.7002C301.596 92.0242 300.639 92.5545 299.816 93.2591L299.851 93.2021C299.88 93.1545 299.915 93.107 299.946 93.0595C299.53 93.396 299.171 93.7971 298.882 94.2476C298.328 95.1252 298.097 96.1486 297.634 97.0991C297.077 98.2239 293.976 101.364 295.309 102.628C295.403 102.713 295.51 102.781 295.626 102.831C296.127 103.039 296.678 103.094 297.21 102.989L297.153 103.125C296.697 104.241 296.464 105.434 296.466 106.639C296.466 111.845 300.757 116.065 306.056 116.065C307.052 116.066 308.043 115.913 308.992 115.612C309.014 115.732 309.033 115.853 309.056 115.973C309.056 116.021 309.071 116.068 309.078 116.116L308.91 116.35C308.901 116.336 308.892 116.322 308.881 116.309L303.909 123.26C303.149 123.796 298.771 126.964 298.524 129.34C298.265 131.942 298.005 134.986 298.005 134.986L297.97 135.639C297.753 135.821 297.499 135.953 297.225 136.027C296.952 136.101 296.666 136.114 296.386 136.067C294.834 135.813 294.834 141.77 294.834 141.77C294.834 141.77 293.802 142.72 293.092 141.897C292.383 141.073 290.508 143.864 290.508 143.864L278.757 144.371L278.488 144.387L277.854 142.426C277.786 142.219 277.639 142.047 277.445 141.948C277.251 141.849 277.026 141.83 276.819 141.897C276.77 141.913 276.722 141.933 276.676 141.957L276.632 141.982L276.549 142.039L276.508 142.077C276.486 142.098 276.464 142.12 276.445 142.144L276.407 142.188L276.388 142.207C276.315 142.308 276.266 142.425 276.247 142.548C276.227 142.672 276.236 142.798 276.274 142.917L276.819 144.599C274.551 145.055 272.232 146.342 274.123 149.884L264.539 148.113L267.64 150.717L283.647 154.022C283.435 154.402 283.575 154.953 284.237 155.73C287.087 159.079 292.281 159.988 294.372 160.222C294.924 161.458 295.614 162.627 296.427 163.708L296.247 167.044C296.247 167.044 290.954 192.473 289.985 193.763C290.474 193.208 290.922 192.618 291.325 191.998C289.789 197.222 287.641 204.373 287.078 205.444C286.172 207.155 285.332 214.078 286.365 214.522C286.682 214.658 287.588 214.591 288.88 214.493V215.067L288.823 236.798C288.823 236.798 289.083 250.128 288.37 251.398C287.657 252.669 287.467 255.333 287.467 255.333C287.467 255.333 284.617 260.59 282.358 262.703C282.343 262.719 282.326 262.734 282.308 262.747L282.238 262.253C282.238 262.253 279.524 265.681 273.518 265.488C273.518 265.488 269.904 267.839 275.264 267.965C280.623 268.092 287.467 267.775 287.467 267.775C287.467 267.775 292.247 260.488 296.25 261.439V266.961H297.476V261.35C298.044 260.976 298.531 260.49 298.906 259.922C299.281 259.354 299.537 258.715 299.658 258.045C299.763 257.355 299.686 256.649 299.435 255.997C299.184 255.345 298.768 254.77 298.227 254.329C297.983 254.109 297.789 253.841 297.654 253.543C297.519 253.244 297.448 252.92 297.444 252.593L297.4 252.631C297.4 252.52 297.371 252.406 297.359 252.288C297.007 249.437 296.567 243.553 298.122 239.2C300.254 233.231 300.9 224.917 299.348 219.968C298.847 218.386 298.436 216.777 298.116 215.149C298.078 214.943 298.043 214.747 298.011 214.563C299.072 214.706 300.123 214.918 301.156 215.196C304.751 216.188 312.616 216.372 319.33 216.318C319.346 216.502 319.365 216.695 319.387 216.888C319.507 218.232 319.757 219.56 320.135 220.855C320.977 223.39 321.364 234.565 321.364 234.565C321.364 234.565 322.45 243.753 321.858 247.492C321.541 249.57 321.224 251.658 321.044 253.755V253.797C321.044 253.797 319.264 258.866 317.962 261.619C317.93 261.689 317.896 261.759 317.864 261.825C317.517 261.857 317.175 261.932 316.847 262.05C316.847 262.05 315.102 265.535 313.363 266.112C311.624 266.689 312.201 268.586 316.138 267.889C320.075 267.192 326.02 266.622 326.02 266.622L326.276 263.067L327.486 261.553L327.169 265.098L328.458 264.845L328.287 260.533L330.267 258.055C330.267 258.055 332.658 255.926 329.105 251.737V251.829C329.067 251.769 329.032 251.705 328.991 251.645V251.626C328.401 250.714 327.933 249.012 328.791 245.993C330.343 240.537 331.246 235.585 331.246 235.585C331.246 235.585 334.711 222.319 330.546 216.042H330.729C330.303 215.159 330.001 214.221 329.833 213.254C329.812 213.14 329.793 213.023 329.776 212.903C332.858 212.725 335.883 212.168 338.35 210.964C338.34 210.951 336.855 179.47 335.626 174.458ZM296.5 152.501V152.564L295.867 152.596L296.5 152.501ZM294.328 152.802C294.223 152.825 294.126 152.872 294.043 152.938C293.77 153.324 293.599 153.772 293.545 154.24L292.557 154.019C292.557 154.019 291.863 153.87 290.866 153.702L290.394 153.227C291.692 153.119 293.042 152.96 294.328 152.802Z" fill="url(#paint1_linear_30_5)"/>
<path d="M327.024 260.577L326.647 265.066L327.911 264.813L327.721 259.943L327.024 260.577Z" fill="#1D2366"/>
<path d="M298.192 239.26C296.668 243.601 297.099 249.459 297.441 252.304C297.568 253.356 297.685 253.996 297.685 253.996C297.685 253.996 295.408 259.186 295.218 259.382C295.028 259.579 288.516 263.555 288.516 263.555L283.964 266.213C283.964 266.213 279.346 264.189 281.56 263.492C282.012 263.31 282.42 263.032 282.754 262.677C284.971 260.571 287.755 255.333 287.755 255.333C287.755 255.333 287.945 252.675 288.642 251.411C289.339 250.147 289.086 236.862 289.086 236.862L289.14 215.206V212.383L297.802 212.446C297.857 213.405 297.982 214.358 298.176 215.298C298.487 216.921 298.89 218.524 299.383 220.101C300.909 225.041 300.276 233.313 298.192 239.26Z" fill="#FFB0B1"/>
<path d="M297.685 253.996C297.685 253.996 295.408 259.186 295.218 259.382C295.028 259.579 288.516 263.555 288.516 263.555L283.964 266.213C283.964 266.213 279.346 264.189 281.56 263.492C282.012 263.31 282.42 263.032 282.754 262.677L282.951 264.062L284.468 263.999L297.454 252.311C297.568 253.356 297.685 253.996 297.685 253.996Z" fill="black"/>
<path d="M297.527 252.605L284.468 264.373L282.951 264.436L282.634 262.218C282.634 262.218 279.98 265.634 274.082 265.443C274.082 265.443 270.541 267.785 275.789 267.912C281.038 268.038 287.74 267.722 287.74 267.722C287.74 267.722 292.421 260.434 296.339 261.385V266.888H297.542V261.334C298.102 260.957 298.58 260.471 298.946 259.905C299.313 259.339 299.562 258.704 299.677 258.039C299.781 257.354 299.708 256.654 299.463 256.006C299.218 255.358 298.811 254.783 298.28 254.338C298.043 254.116 297.854 253.848 297.725 253.55C297.595 253.252 297.528 252.93 297.527 252.605Z" fill="#1D2366"/>
<path d="M328.227 246.028C327.385 249.038 327.844 250.733 328.42 251.642V251.661C329.16 252.784 329.674 254.04 329.934 255.359L329.985 255.644L324.043 264.309L320.819 265.577C320.819 265.577 315.634 263.805 316.581 263.298C316.819 263.175 317.189 262.516 317.614 261.607C318.88 258.866 320.629 253.809 320.629 253.809V253.768C320.813 251.68 321.104 249.599 321.427 247.526C322.007 243.797 320.942 234.644 320.942 234.644C320.942 234.644 320.562 223.513 319.739 220.982C319.367 219.695 319.12 218.375 319.001 217.04C318.83 215.456 318.792 214.151 318.792 214.151C318.792 214.151 322.206 209.398 328.465 214.531C328.965 214.941 329.406 215.418 329.773 215.951C334.096 222.104 330.615 235.658 330.615 235.658C330.615 235.658 329.744 240.588 328.227 246.028Z" fill="#FFB0B1"/>
<path d="M329.995 255.644L324.053 264.309L320.828 265.577C320.828 265.577 315.644 263.805 316.591 263.298C316.828 263.175 317.199 262.516 317.623 261.607C319.818 261.588 320.955 263.679 320.955 263.679L323.736 263.235C323.736 263.235 327.404 256.024 328.227 255.584C329.051 255.143 328.354 252.292 328.354 252.292V251.566C328.376 251.591 328.395 251.62 328.42 251.645V251.664C329.16 252.787 329.674 254.043 329.934 255.362L329.995 255.644Z" fill="black"/>
<path d="M321.145 263.866C321.145 263.866 319.562 260.957 316.527 262.031C316.527 262.031 314.82 265.516 313.113 266.08C311.406 266.644 311.976 268.545 315.834 267.851C319.691 267.158 325.507 266.584 325.507 266.584L325.76 263.039L329.681 258.042C329.681 258.042 332.019 255.923 328.541 251.75V252.475C328.541 252.475 329.238 255.327 328.414 255.767C327.591 256.208 323.936 263.422 323.936 263.422L321.145 263.866Z" fill="#1D2366"/>
<path d="M297.812 212.44C297.866 213.398 297.991 214.351 298.185 215.292C294.619 214.769 291.309 215.029 289.14 215.2V212.377L297.812 212.44Z" fill="black"/>
<path d="M330.125 216.739C330.125 216.739 325.057 216.987 319.014 217.037C318.843 215.453 318.805 214.148 318.805 214.148C318.805 214.148 322.219 209.395 328.477 214.528C328.978 214.937 329.418 215.415 329.786 215.947C329.884 216.218 329.997 216.482 330.125 216.739Z" fill="black"/>
<path d="M330.124 216.169C330.124 216.169 307.928 217.243 301.163 215.345C294.397 213.448 287.692 215.092 286.682 214.652C285.671 214.211 286.492 207.314 287.379 205.606C288.265 203.898 293.13 186.627 293.13 186.627L297.812 162.212L302.743 160.853L303.091 160.755L317.981 156.645C317.981 156.645 330.501 205.543 329.428 209.148C329.038 210.529 328.975 211.981 329.244 213.391C329.408 214.353 329.704 215.288 330.124 216.169Z" fill="#1D2366"/>
<path d="M281.494 145.515C281.494 145.515 277.059 150.267 280.417 152.916C283.774 155.565 285.982 153.17 285.982 153.17L281.494 145.515Z" fill="#C7DAF5"/>
<path d="M281.494 145.515C281.494 145.515 277.059 150.267 280.417 152.916C283.774 155.565 285.982 153.17 285.982 153.17L281.494 145.515Z" fill="black"/>
<path d="M317.319 114.268C317.319 114.268 316.8 114.763 316.017 115.491C314.902 116.534 313.252 118.058 311.789 119.335C309.762 121.099 308.09 122.395 308.688 121.29C309.287 120.184 309.173 118.257 308.875 116.455C308.853 116.334 308.834 116.214 308.812 116.097C308.565 114.773 308.238 113.465 307.833 112.181C307.833 112.181 311.108 107.948 312.92 106.278C313.594 105.644 314.066 105.384 314.095 105.825C314.126 106.417 314.57 107.726 315.121 109.114C315.137 109.158 315.153 109.199 315.172 109.243C315.539 110.194 315.954 111.17 316.318 112.013C316.876 113.305 317.319 114.268 317.319 114.268Z" fill="#FFB0B1"/>
<path d="M315.172 109.243C314.864 110.899 314.117 112.442 313.009 113.711C311.902 114.979 310.474 115.927 308.875 116.455C308.623 115.008 308.275 113.58 307.833 112.181C307.833 112.181 314 104.212 314.095 105.825C314.117 106.436 314.598 107.792 315.172 109.243Z" fill="black"/>
<path d="M308.261 118.584L309.059 117.459C309.059 117.459 309.588 120.684 311.532 119.262C313.477 117.839 313.572 129.968 313.572 129.968L311.485 161.186L296.402 160.283L296.83 145.198L298.537 137.594L302.759 126.54L305.271 122.886L308.261 118.584Z" fill="black"/>
<path d="M313.572 130.161L311.472 161.379L296.412 160.476L296.839 145.388L298.546 137.784L302.768 126.73L305.28 123.076L308.27 118.758L309.068 117.636C309.068 117.636 309.597 120.862 311.542 119.439L311.583 119.411C313.483 118.207 313.572 130.161 313.572 130.161Z" fill="#1D2366"/>
<path d="M298.759 135.142C298.759 135.142 298.002 136.726 296.481 136.469C294.961 136.213 294.964 142.172 294.964 142.172C294.964 142.172 293.954 143.123 293.257 142.299C292.56 141.475 290.723 144.26 290.723 144.26L279.213 144.767C279.213 144.767 284.335 147.108 283.331 154.193C283.331 154.193 300.719 153.116 301.289 151.471C301.859 149.827 298.759 135.142 298.759 135.142Z" fill="white"/>
<path d="M298.759 135.142C298.759 135.142 298.002 136.726 296.481 136.469C294.961 136.213 294.964 142.172 294.964 142.172C294.964 142.172 293.954 143.123 293.257 142.299C292.56 141.475 290.723 144.26 290.723 144.26L279.213 144.767C279.213 144.767 284.335 147.108 283.331 154.193C283.331 154.193 300.719 153.116 301.289 151.471C301.859 149.827 298.759 135.142 298.759 135.142Z" fill="black"/>
<path d="M265.309 148.49L268.343 151.082L293.32 156.332L290.223 153.17L265.309 148.49Z" fill="white"/>
<path d="M308.308 119.582C307.893 120.215 306.705 123.46 305.714 126.292C304.887 128.653 304.197 130.728 304.197 130.728C304.197 130.728 302.585 141.228 301.761 143.126C300.938 145.024 301.384 152.425 301.384 152.425L298.315 170.703C298.315 170.703 296.925 180.129 294.777 185.759C292.658 191.301 290.299 193.899 290.226 193.981C291.176 192.695 296.355 167.367 296.355 167.367L298.065 135.424C298.065 135.424 298.315 132.388 298.569 129.793C298.822 127.199 303.953 123.656 303.953 123.656L308.9 116.619C309.398 117.285 309.065 118.444 308.308 119.582Z" fill="white"/>
<path d="M295.408 160.634C295.408 160.634 288.123 160.317 284.594 156.078C281.066 151.839 292.75 154.386 292.75 154.386L295.788 155.083L295.408 160.634Z" fill="#FFB0B1"/>
<path d="M329.428 209.151C329.038 210.532 328.975 211.984 329.244 213.394C321.297 213.958 312.796 211.81 312.796 211.81C311.212 213.267 307.041 215.415 307.041 215.415L304.767 187.217C303.313 183.415 302.743 163.495 302.743 163.495C302.743 163.495 302.873 162.453 303.06 160.891C303.06 160.853 303.06 160.812 303.076 160.774C303.643 156.411 304.767 148.221 305.318 147.115C306.078 145.594 302.981 141.548 302.981 141.548L304.561 128.073C307.532 126.745 309.809 122.506 309.809 122.506L311.558 119.442C313.458 118.223 313.556 130.177 313.556 130.177L311.656 158.404L317.952 156.664C317.952 156.664 330.501 205.546 329.428 209.151Z" fill="black"/>
<path d="M337.583 211.1C328.921 215.402 313.176 211.417 313.176 211.417C311.593 212.874 307.421 215.022 307.421 215.022L305.144 186.824C303.693 183.022 303.123 163.102 303.123 163.102C303.123 163.102 304.954 148.24 305.714 146.722C305.936 146.278 305.828 145.619 305.565 144.91C304.273 141.532 303.797 137.896 304.178 134.299L304.786 129.131L304.954 127.683C307.928 126.353 310.205 122.113 310.205 122.113L314.703 114.224L316.084 111.803L316.318 112.016L318.108 113.638C318.108 113.638 318.868 114.272 320.008 115.222C322.488 117.313 326.773 120.995 328.984 123.248C330.929 125.231 331.543 132.946 331.721 138.754C331.838 142.578 331.768 145.575 331.768 145.575C329.808 148.804 334.936 174.724 334.936 174.724C336.13 179.733 337.583 211.1 337.583 211.1Z" fill="white"/>
<path d="M320.955 122.05C320.955 122.05 315.01 133.37 315.701 137.673C316.391 141.976 318.355 146.846 317.408 147.983C317.082 148.414 316.662 148.764 316.179 149.005C315.696 149.246 315.164 149.373 314.624 149.374C313.673 149.437 311.14 151.208 311.14 151.398C311.14 151.589 308.799 151.589 306.705 152.476C304.612 153.363 301.521 153.867 301.521 153.867C301.521 153.867 295.503 153.676 294.942 154.247C294.381 154.817 293.805 158.229 295.005 160.951C296.206 163.673 297.539 165.704 298.546 166.074C299.554 166.445 305.945 164.303 311.13 163.796C316.315 163.289 321.943 159.18 321.943 159.18C321.943 159.18 328.142 156.962 329.228 153.233C330.315 149.504 327.901 129.008 327.901 129.008C327.901 129.008 326.077 119.455 320.955 122.05Z" fill="black"/>
<path d="M320.195 121.099C320.195 121.099 314.25 132.423 314.947 136.723C315.644 141.022 317.601 145.895 316.651 147.036C316.327 147.467 315.907 147.817 315.424 148.059C314.941 148.3 314.409 148.426 313.87 148.427C312.92 148.49 310.386 150.261 310.386 150.451C310.386 150.641 308.045 150.641 305.952 151.525C303.858 152.409 300.767 152.916 300.767 152.916C300.767 152.916 294.749 152.726 294.191 153.296C293.634 153.867 293.051 157.282 294.255 160.001C295.458 162.719 296.789 164.753 297.796 165.124C298.803 165.494 305.195 163.353 310.38 162.849C315.564 162.345 321.193 158.229 321.193 158.229C321.193 158.229 327.388 156.012 328.462 152.286C329.535 148.56 327.135 128.057 327.135 128.057C327.135 128.057 325.317 118.508 320.195 121.099Z" fill="black"/>
<path d="M320.768 121.48C320.768 121.48 314.823 132.803 315.52 137.103C316.217 141.402 318.174 146.275 317.227 147.413C316.903 147.845 316.483 148.196 316 148.438C315.516 148.68 314.983 148.806 314.443 148.807C313.493 148.87 310.959 150.641 310.959 150.828C310.959 151.015 308.622 151.018 306.525 151.905C304.428 152.793 301.34 153.296 301.34 153.296C301.34 153.296 295.322 153.106 294.762 153.676C294.201 154.247 293.624 157.662 294.825 160.381C296.025 163.099 297.359 165.133 298.366 165.504C299.373 165.875 305.765 163.733 310.95 163.226C316.134 162.719 321.763 158.61 321.763 158.61C321.763 158.61 327.961 156.392 329.048 152.663C330.134 148.933 327.736 128.437 327.736 128.437C327.736 128.437 325.887 118.901 320.768 121.48Z" fill="white"/>
<path d="M320.638 151.852C320.638 151.852 315.887 150.901 317.541 152.485C319.194 154.069 319.185 155.457 321.209 155.394C323.232 155.33 320.638 151.852 320.638 151.852Z" fill="black"/>
<path d="M328.668 185.937C328.668 185.937 326.52 187.391 330.628 190.743C334.736 194.095 328.668 185.937 328.668 185.937Z" fill="black"/>
<path d="M324.569 197.891C324.569 198.081 323.809 204.861 326.653 206.556C329.497 208.251 324.569 197.891 324.569 197.891Z" fill="black"/>
<path d="M279.41 144.751C277.116 144.83 272.163 145.531 274.731 150.324C277.002 154.567 280.819 151.731 282.966 149.58C282.443 147.574 281.17 145.846 279.41 144.751Z" fill="#FFB0B1"/>
<path d="M320.008 115.415C317.576 117.079 315.536 118.482 315.137 118.774C314.047 119.582 311.97 124.325 310.63 126.745C309.562 128.694 306.094 129.195 304.786 129.318L304.954 127.87C307.928 126.54 310.205 122.3 310.205 122.3L316.084 111.99L318.108 113.831C318.108 113.831 318.868 114.465 320.008 115.415Z" fill="black"/>
<path d="M320.008 115.225C317.576 116.889 315.536 118.292 315.137 118.587C314.047 119.392 311.97 124.135 310.63 126.555C309.562 128.504 306.094 129.004 304.786 129.128L304.954 127.68C307.928 126.349 310.205 122.11 310.205 122.11L316.084 111.8L318.108 113.635C318.108 113.635 318.868 114.262 320.008 115.225Z" fill="#DCE7FF"/>
<path d="M315.327 107.152C315.328 109.054 314.752 110.912 313.673 112.478C312.4 114.331 310.505 115.665 308.333 116.239C306.16 116.814 303.854 116.59 301.832 115.609C299.81 114.627 298.207 112.954 297.313 110.891C296.419 108.829 296.295 106.514 296.961 104.367C297.627 102.22 299.041 100.384 300.945 99.1902C302.85 97.9968 305.119 97.5258 307.341 97.8628C309.563 98.1997 311.59 99.3222 313.055 101.027C314.521 102.731 315.326 104.904 315.327 107.152Z" fill="#FFB0B1"/>
<path d="M331.721 138.757C330.435 137.965 329.387 136.84 328.69 135.5C328.161 134.454 327.809 133.247 326.907 132.506C326.093 131.84 325.006 131.679 323.993 131.381C320.661 130.395 317.867 127.354 317.763 123.881C317.712 122.246 318.222 120.615 317.991 118.996C317.859 118.079 317.495 117.212 316.933 116.477C316.654 116.125 316.347 115.796 316.017 115.491C315.574 115.073 315.108 114.668 314.703 114.224C314.447 113.949 314.224 113.646 314.038 113.321C313.887 113.055 313.765 112.773 313.673 112.482C313.04 110.542 313.616 108.242 312.92 106.281L312.882 106.173C312.619 105.476 312.084 104.779 311.339 104.725C310.595 104.672 309.958 105.289 309.249 105.565C307.763 106.142 306.161 105.159 304.922 104.158C303.684 103.157 302.287 102.013 300.713 102.235C299.671 102.384 298.847 103.094 297.888 103.461C297.671 103.545 297.447 103.61 297.219 103.654C298.032 101.628 299.524 99.9484 301.44 98.9033C303.355 97.8581 305.575 97.513 307.718 97.9273C309.86 98.3416 311.792 99.4893 313.181 101.173C314.569 102.857 315.328 104.973 315.327 107.156C315.328 107.815 315.259 108.472 315.121 109.117C315.137 109.161 315.153 109.202 315.172 109.247C315.539 110.197 315.954 111.173 316.318 112.016L318.108 113.638C318.108 113.638 318.868 114.272 320.008 115.222C322.488 117.313 326.773 120.995 328.984 123.248C330.929 125.237 331.537 132.949 331.721 138.757Z" fill="black"/>
<path d="M297.777 97.6726C298.23 96.7506 298.455 95.7177 298.996 94.8433C299.791 93.5759 301.178 92.7648 302.604 92.2737C306.325 90.9905 314.19 89.1275 316.54 92.2737C317.002 92.9074 317.386 93.6108 318.025 94.048C318.513 94.3807 319.102 94.5233 319.638 94.7736C321.136 95.4769 322.092 97.0104 322.602 98.5756C323.112 100.141 323.264 101.82 323.638 103.433C324.116 105.502 324.955 107.463 325.792 109.411C326.777 111.712 327.822 114.097 329.722 115.723C332.316 117.941 332.89 121.08 335.297 123.514C338.147 126.403 338.055 131.172 336.586 134.958C336.393 135.455 336.174 135.975 336.25 136.504C336.326 137.033 336.719 137.515 337.089 137.936L338.648 139.695C334.961 140.585 330.79 138.658 329.073 135.278C328.544 134.232 328.192 133.028 327.287 132.284C326.476 131.618 325.386 131.46 324.376 131.162C321.044 130.174 318.25 127.129 318.146 123.656C318.095 122.025 318.605 120.393 318.374 118.777C318.245 117.855 317.88 116.981 317.313 116.242C316.442 115.105 315.127 114.341 314.418 113.074C313.217 110.954 314.13 108.201 313.265 105.926C312.999 105.229 312.467 104.532 311.722 104.478C310.978 104.424 310.341 105.042 309.629 105.318C308.147 105.894 306.544 104.915 305.305 103.911C304.067 102.907 302.67 101.766 301.093 101.991C300.051 102.137 299.231 102.847 298.271 103.217C297.561 103.49 296.123 103.734 295.503 103.135C294.191 101.928 297.229 98.8005 297.777 97.6726Z" fill="#591D4B"/>
<path d="M329.953 134.232C329.421 133.187 329.073 131.983 328.167 131.241C327.356 130.576 326.267 130.414 325.253 130.117C321.924 129.131 319.131 126.086 319.023 122.614C318.972 120.982 319.482 119.347 319.254 117.731C319.122 116.815 318.756 115.948 318.193 115.213C317.319 114.075 316.005 113.312 315.298 112.044C314.098 109.928 315.01 107.175 314.142 104.896C313.879 104.203 313.344 103.506 312.603 103.449C311.862 103.392 311.219 104.016 310.509 104.291C309.027 104.868 307.421 103.886 306.186 102.885C304.951 101.883 303.548 100.74 301.973 100.961C300.931 101.11 300.108 101.82 299.151 102.188C298.442 102.46 297.001 102.707 296.38 102.108C295.075 100.841 298.113 97.7201 298.657 96.5985C299.11 95.6734 299.335 94.6437 299.88 93.7692C299.908 93.7217 299.94 93.6742 299.972 93.6266C299.564 93.9643 299.213 94.3642 298.93 94.8116C298.388 95.6861 298.163 96.7126 297.71 97.6409C297.162 98.7625 294.125 101.893 295.433 103.151C296.066 103.753 297.492 103.506 298.201 103.233C299.151 102.862 299.981 102.153 301.023 102.007C302.607 101.782 304.001 102.926 305.236 103.927C306.471 104.928 308.086 105.91 309.562 105.334C310.272 105.058 310.893 104.437 311.653 104.494C312.413 104.551 312.92 105.245 313.195 105.942C314.06 108.217 313.148 110.97 314.348 113.09C315.058 114.335 316.372 115.114 317.243 116.258C317.81 116.997 318.175 117.87 318.304 118.793C318.535 120.409 318.025 122.04 318.076 123.672C318.181 127.157 320.974 130.189 324.306 131.178C325.31 131.476 326.406 131.634 327.217 132.3C328.126 133.044 328.484 134.248 329.003 135.294C330.72 138.674 334.891 140.601 338.578 139.71L337.843 138.88C334.647 138.928 331.414 137.109 329.953 134.232Z" fill="black"/>
<path d="M308.118 119.772C307.703 120.406 306.515 123.65 305.524 126.482C304.596 126.121 303.753 123.818 303.753 123.818L308.701 116.778C309.208 117.475 308.875 118.631 308.118 119.772Z" fill="black"/>
<path d="M308.308 119.582C307.893 120.215 306.705 123.46 305.714 126.292C304.786 125.934 303.944 123.628 303.944 123.628L308.891 116.591C309.398 117.285 309.065 118.444 308.308 119.582Z" fill="#DCE7FF"/>
<path d="M279.543 151.95L276.8 143.297C276.767 143.196 276.755 143.089 276.764 142.983C276.773 142.877 276.803 142.774 276.851 142.679C276.9 142.585 276.967 142.501 277.049 142.432C277.13 142.364 277.224 142.312 277.325 142.28C277.53 142.216 277.751 142.236 277.94 142.334C278.13 142.433 278.274 142.602 278.339 142.806L281.082 151.449L280.81 153.258L279.543 151.95Z" fill="#BE8B87"/>
<path d="M277.059 142.537C277.264 142.472 277.486 142.491 277.676 142.589C277.867 142.688 278.011 142.858 278.076 143.062L280.819 151.706L280.613 153.062L280.813 153.271L281.085 151.462L278.326 142.819C278.261 142.615 278.118 142.445 277.928 142.347C277.738 142.248 277.517 142.229 277.313 142.293C277.141 142.348 276.993 142.46 276.892 142.609C276.945 142.581 277.002 142.556 277.059 142.537Z" fill="white"/>
<path d="M279.543 151.95L281.082 151.462L280.857 152.945L280.81 153.271L280.36 152.802L279.543 151.95Z" fill="#EFC8C4"/>
<path d="M280.36 152.802C280.387 152.768 280.42 152.74 280.458 152.72C280.48 152.706 280.506 152.698 280.532 152.698C280.559 152.698 280.585 152.706 280.607 152.72C280.628 152.746 280.646 152.774 280.661 152.805C280.682 152.84 280.71 152.87 280.744 152.892C280.778 152.915 280.817 152.93 280.857 152.935L280.81 153.252L280.36 152.802Z" fill="#727A9C"/>
<path d="M276.784 146.37C276.784 146.37 282.285 146.339 280.99 148.68C279.695 151.021 277.671 151.303 277.671 151.303L276.784 146.37Z" fill="#FFB0B1"/>
<path d="M242.567 41.2917H242.33C232.879 41.2917 224.52 46.2945 219.712 53.6768C214.904 46.2945 206.546 41.2917 197.094 41.2917H196.857C189.764 41.3593 182.984 44.2243 177.991 49.2641C172.998 54.304 170.195 61.1113 170.191 68.2069C170.191 77.0181 174.049 89.5204 181.572 99.8081C195.904 119.411 219.712 136.561 219.712 136.561C219.712 136.561 243.521 119.414 257.85 99.8081C265.375 89.5204 269.23 77.0181 269.23 68.2069C269.226 61.1119 266.423 54.305 261.431 49.2653C256.439 44.2255 249.66 41.3601 242.567 41.2917ZM239.169 101.316C238.093 101.312 237.043 100.983 236.157 100.371C235.271 99.7589 234.591 98.8935 234.206 97.8881H228.555C228.183 97.8857 227.821 97.7673 227.52 97.5491C227.218 97.331 226.992 97.0242 226.873 96.6714L225.138 91.4404L219.646 110.638C219.539 111.007 219.315 111.332 219.008 111.563C218.7 111.795 218.326 111.92 217.942 111.921H217.831C217.43 111.901 217.047 111.745 216.747 111.477C216.447 111.21 216.249 110.847 216.184 110.451L210.524 76.3971L206.387 96.5479C206.292 96.9306 206.072 97.2706 205.762 97.5135C205.451 97.7565 205.068 97.8883 204.674 97.8881H196.714C196.476 97.8982 196.238 97.8599 196.014 97.7755C195.791 97.6911 195.587 97.5624 195.414 97.3971C195.242 97.2318 195.105 97.0333 195.011 96.8136C194.917 96.5938 194.869 96.3574 194.869 96.1185C194.869 95.8796 194.917 95.6432 195.011 95.4235C195.105 95.2038 195.242 95.0053 195.414 94.84C195.587 94.6747 195.791 94.5459 196.014 94.4616C196.238 94.3772 196.476 94.3389 196.714 94.349H203.28L209.14 67.2564C209.236 66.8558 209.468 66.5011 209.797 66.2529C210.126 66.0047 210.53 65.8784 210.942 65.8957C211.353 65.9129 211.746 66.0725 212.053 66.3473C212.359 66.6221 212.561 66.9949 212.624 67.4021L218.404 102.14L223.326 84.9643C223.429 84.6026 223.645 84.2837 223.944 84.0553C224.242 83.8269 224.607 83.7012 224.983 83.697H225.017C225.39 83.6971 225.752 83.8148 226.054 84.0333C226.355 84.2517 226.58 84.5598 226.696 84.9136L229.835 94.3585H234.136C234.442 93.4291 234.998 92.6023 235.744 91.9693C236.49 91.3364 237.396 90.9219 238.363 90.7716C239.329 90.6213 240.319 90.741 241.221 91.1176C242.124 91.4942 242.905 92.113 243.479 92.9057C244.052 93.6984 244.396 94.6341 244.471 95.6096C244.546 96.5852 244.351 97.5626 243.906 98.434C243.461 99.3054 242.784 100.037 241.95 100.548C241.116 101.059 240.157 101.329 239.178 101.329L239.169 101.316Z" fill="#6C63FF"/>
<defs>
<linearGradient id="paint0_linear_30_5" x1="193.965" y1="369.801" x2="193.965" y2="0.39507" gradientUnits="userSpaceOnUse">
<stop stop-color="#808080" stop-opacity="0.25"/>
<stop offset="0.54" stop-color="#808080" stop-opacity="0.12"/>
<stop offset="1" stop-color="#808080" stop-opacity="0.1"/>
</linearGradient>
<linearGradient id="paint1_linear_30_5" x1="193.896" y1="369.79" x2="193.896" y2="0.412947" gradientUnits="userSpaceOnUse">
<stop stop-color="#808080" stop-opacity="0.25"/>
<stop offset="0.54" stop-color="#808080" stop-opacity="0.12"/>
<stop offset="1" stop-color="#808080" stop-opacity="0.1"/>
</linearGradient>
</defs>
</svg>
