<svg width="94" height="94" viewBox="0 0 94 94" fill="none" xmlns="http://www.w3.org/2000/svg">
<path fill-rule="evenodd" clip-rule="evenodd" d="M47 94C72.9574 94 94 72.9574 94 47C94 21.0426 72.9574 0 47 0C21.0426 0 0 21.0426 0 47C0 72.9574 21.0426 94 47 94ZM47.1697 86.5344C68.9102 86.5344 86.5343 68.9102 86.5343 47.1698C86.5343 25.4293 68.9102 7.80513 47.1697 7.80513C25.4292 7.80513 7.80505 25.4293 7.80505 47.1698C7.80505 68.9102 25.4292 86.5344 47.1697 86.5344Z" fill="white"/>
<path d="M51.7615 49.2057C51.7615 51.5485 49.8624 53.4476 47.5197 53.4476C45.1769 53.4476 43.2778 51.5485 43.2778 49.2057C43.2778 46.863 45.1769 44.9639 47.5197 44.9639C49.8624 44.9639 51.7615 46.863 51.7615 49.2057Z" fill="white"/>
<path d="M45.8123 30.5415C45.8123 29.6044 46.5719 28.8447 47.509 28.8447C48.4461 28.8447 49.2058 29.6044 49.2058 30.5415V45.4729C49.2058 46.41 48.4461 47.1696 47.509 47.1696C46.5719 47.1696 45.8123 46.41 45.8123 45.4729V30.5415Z" fill="white"/>
<path d="M49.5451 48.6967C49.5451 47.7596 50.3048 47 51.2419 47H66.1733C67.1104 47 67.87 47.7596 67.87 48.6967C67.87 49.6338 67.1104 50.3935 66.1733 50.3935H51.2419C50.3048 50.3935 49.5451 49.6338 49.5451 48.6967Z" fill="white"/>
<circle cx="46.8303" cy="75.6751" r="4.7509" fill="#FF8B8C"/>
<circle cx="61.7617" cy="72.621" r="4.7509" fill="#FF8B8C"/>
<circle cx="30.5415" cy="22.0578" r="4.7509" fill="#FF8B8C"/>
<path d="M84.4982 48.8664C84.4982 50.928 82.8269 52.5992 80.7653 52.5992C78.7037 52.5992 77.0325 50.928 77.0325 48.8664C77.0325 46.8048 78.7037 45.1335 80.7653 45.1335C82.8269 45.1335 84.4982 46.8048 84.4982 48.8664Z" fill="#3995FF"/>
<path d="M77.0325 48.8664C77.0325 50.928 75.3612 52.5992 73.2996 52.5992C71.238 52.5992 69.5668 50.928 69.5668 48.8664C69.5668 46.8048 71.238 45.1335 73.2996 45.1335C75.3612 45.1335 77.0325 46.8048 77.0325 48.8664Z" fill="#EEEEEE"/>
<path d="M73.2996 45.1335H77.0325V52.5992H73.2996V45.1335Z" fill="#EEEEEE"/>
<path d="M77.0325 45.1335H80.7653V52.5992H77.0325V45.1335Z" fill="#3995FF"/>
<path d="M47.509 9.84117C49.5706 9.84117 51.2419 11.5124 51.2419 13.574C51.2419 15.6356 49.5706 17.3069 47.509 17.3069C45.4474 17.3069 43.7762 15.6356 43.7762 13.574C43.7762 11.5124 45.4474 9.84117 47.509 9.84117Z" fill="#3995FF"/>
<path d="M47.509 17.3069C49.5706 17.3069 51.2419 18.9781 51.2419 21.0397C51.2419 23.1013 49.5706 24.7726 47.509 24.7726C45.4474 24.7726 43.7762 23.1013 43.7762 21.0397C43.7762 18.9781 45.4474 17.3069 47.509 17.3069Z" fill="#EEEEEE"/>
<path d="M43.7762 21.0397V17.3069H51.2419V21.0397H43.7762Z" fill="#EEEEEE"/>
<path d="M43.7762 17.3069V13.574H51.2419V17.3069H43.7762Z" fill="#3995FF"/>
<path d="M67.2755 16.0543C68.9643 17.2368 69.3747 19.5644 68.1922 21.2531C67.0097 22.9419 64.6821 23.3523 62.9934 22.1698C61.3046 20.9873 60.8942 18.6597 62.0767 16.971C63.2592 15.2822 65.5868 14.8718 67.2755 16.0543Z" fill="#3867CC"/>
<path d="M62.9934 22.1698C64.6821 23.3523 65.0925 25.6799 63.9101 27.3687C62.7276 29.0574 60.4 29.4678 58.7112 28.2854C57.0225 27.1029 56.612 24.7753 57.7945 23.0865C58.977 21.3978 61.3046 20.9873 62.9934 22.1698Z" fill="#EEEEEE"/>
<path d="M57.7945 23.0865L59.9356 20.0287L66.0511 24.3109L63.9101 27.3687L57.7945 23.0865Z" fill="#EEEEEE"/>
<path d="M59.9356 20.0287L62.0767 16.971L68.1922 21.2531L66.0511 24.3109L59.9356 20.0287Z" fill="#3867CC"/>
<path d="M27.491 77.8306C25.8022 76.6481 25.3918 74.3205 26.5743 72.6318C27.7568 70.943 30.0844 70.5326 31.7731 71.7151C33.4619 72.8976 33.8723 75.2252 32.6898 76.9139C31.5073 78.6027 29.1797 79.0131 27.491 77.8306Z" fill="#3867CC"/>
<path d="M31.7731 71.7151C30.0844 70.5326 29.6739 68.205 30.8564 66.5162C32.0389 64.8275 34.3665 64.417 36.0553 65.5995C37.744 66.782 38.1545 69.1096 36.972 70.7984C35.7895 72.4871 33.4619 72.8976 31.7731 71.7151Z" fill="#EEEEEE"/>
<path d="M36.972 70.7984L34.8309 73.8561L28.7154 69.574L30.8564 66.5162L36.972 70.7984Z" fill="#EEEEEE"/>
<path d="M34.8309 73.8561L32.6898 76.9139L26.5743 72.6318L28.7154 69.574L34.8309 73.8561Z" fill="#3867CC"/>
<path d="M26.9281 56.3358C28.1106 58.0245 27.7002 60.3521 26.0114 61.5346C24.3227 62.7171 21.9951 62.3067 20.8126 60.6179C19.6301 58.9291 20.0405 56.6015 21.7293 55.4191C23.418 54.2366 25.7456 54.647 26.9281 56.3358Z" fill="#3995FF"/>
<path d="M20.8126 60.6179C21.9951 62.3067 21.5846 64.6343 19.8959 65.8168C18.2071 66.9992 15.8795 66.5888 14.697 64.9001C13.5145 63.2113 13.925 60.8837 15.6137 59.7012C17.3025 58.5187 19.6301 58.9291 20.8126 60.6179Z" fill="#EEEEEE"/>
<path d="M15.6137 59.7012L18.6715 57.5601L22.9537 63.6757L19.8959 65.8168L15.6137 59.7012Z" fill="#EEEEEE"/>
<path d="M18.6715 57.5601L21.7293 55.4191L26.0114 61.5346L22.9537 63.6757L18.6715 57.5601Z" fill="#3995FF"/>
<path d="M67.6356 35.7161C66.4532 34.0274 66.8636 31.6998 68.5523 30.5173C70.2411 29.3348 72.5687 29.7452 73.7512 31.434C74.9337 33.1227 74.5232 35.4503 72.8345 36.6328C71.1457 37.8153 68.8181 37.4049 67.6356 35.7161Z" fill="#3995FF"/>
<path d="M73.7512 31.434C72.5687 29.7452 72.9791 27.4176 74.6679 26.2351C76.3566 25.0526 78.6842 25.4631 79.8667 27.1518C81.0492 28.8406 80.6388 31.1682 78.95 32.3507C77.2613 33.5332 74.9337 33.1227 73.7512 31.434Z" fill="#EEEEEE"/>
<path d="M78.95 32.3507L75.8923 34.4917L71.6101 28.3762L74.6679 26.2351L78.95 32.3507Z" fill="#EEEEEE"/>
<path d="M75.8923 34.4917L72.8345 36.6328L68.5523 30.5173L71.6101 28.3762L75.8923 34.4917Z" fill="#3995FF"/>
<path d="M78.8487 67.2754C77.6662 68.9642 75.3386 69.3746 73.6499 68.1921C71.9611 67.0096 71.5507 64.682 72.7332 62.9932C73.9157 61.3045 76.2433 60.8941 77.932 62.0765C79.6208 63.259 80.0312 65.5866 78.8487 67.2754Z" fill="#3867CC"/>
<path d="M72.7332 62.9932C71.5507 64.682 69.2231 65.0924 67.5343 63.9099C65.8456 62.7275 65.4351 60.3999 66.6176 58.7111C67.8001 57.0223 70.1277 56.6119 71.8165 57.7944C73.5052 58.9769 73.9157 61.3045 72.7332 62.9932Z" fill="#EEEEEE"/>
<path d="M71.8165 57.7944L74.8742 59.9355L70.5921 66.051L67.5343 63.9099L71.8165 57.7944Z" fill="#EEEEEE"/>
<path d="M74.8742 59.9355L77.932 62.0765L73.6499 68.1921L70.5921 66.051L74.8742 59.9355Z" fill="#3867CC"/>
<path d="M14.697 29.5272C15.8795 27.8385 18.2071 27.428 19.8959 28.6105C21.5846 29.793 21.9951 32.1206 20.8126 33.8094C19.6301 35.4981 17.3025 35.9085 15.6137 34.7261C13.925 33.5436 13.5145 31.216 14.697 29.5272Z" fill="#3867CC"/>
<path d="M20.8126 33.8094C21.9951 32.1206 24.3227 31.7102 26.0114 32.8927C27.7002 34.0752 28.1106 36.4028 26.9281 38.0915C25.7456 39.7803 23.418 40.1907 21.7293 39.0082C20.0405 37.8257 19.6301 35.4981 20.8126 33.8094Z" fill="#EEEEEE"/>
<path d="M21.7293 39.0082L18.6715 36.8671L22.9537 30.7516L26.0114 32.8927L21.7293 39.0082Z" fill="#EEEEEE"/>
<path d="M18.6715 36.8671L15.6137 34.7261L19.8959 28.6105L22.9537 30.7516L18.6715 36.8671Z" fill="#3867CC"/>
<path d="M9.5018 47.1697C9.5018 45.1081 11.1731 43.4369 13.2347 43.4369C15.2963 43.4369 16.9675 45.1081 16.9675 47.1697C16.9675 49.2313 15.2963 50.9026 13.2347 50.9026C11.1731 50.9026 9.5018 49.2313 9.5018 47.1697Z" fill="#3995FF"/>
<path d="M16.9675 47.1697C16.9675 45.1081 18.6388 43.4369 20.7004 43.4369C22.762 43.4369 24.4332 45.1081 24.4332 47.1697C24.4332 49.2313 22.762 50.9026 20.7004 50.9026C18.6388 50.9026 16.9675 49.2313 16.9675 47.1697Z" fill="#EEEEEE"/>
<path d="M20.7004 50.9026H16.9675V43.4369H20.7004V50.9026Z" fill="#EEEEEE"/>
<path d="M16.9675 50.9026H13.2347L13.2347 43.4369H16.9675V50.9026Z" fill="#3995FF"/>
</svg>
