<svg width="17" height="24" viewBox="0 0 17 24" fill="none" xmlns="http://www.w3.org/2000/svg">
<path d="M0 6.54545H10.625V19.6364H0V6.54545Z" fill="#FF6666"/>
<path d="M10.625 6.54545C10.625 7.75044 8.24651 8.72727 5.3125 8.72727C2.37849 8.72727 0 7.75044 0 6.54545C0 5.34047 2.37849 4.36364 5.3125 4.36364C8.24651 4.36364 10.625 5.34047 10.625 6.54545Z" fill="#FF6666"/>
<path d="M0 17.4545C0 16.2496 0.951395 15.2727 2.125 15.2727H12.75C13.9236 15.2727 14.875 16.2496 14.875 17.4545V21.8182C14.875 23.0232 13.9236 24 12.75 24H2.125C0.951395 24 0 23.0232 0 21.8182V17.4545Z" fill="#FF6666"/>
<path d="M17 19.6364C17 22.0463 15.0972 24 12.75 24C10.4028 24 8.5 22.0463 8.5 19.6364C8.5 17.2264 10.4028 15.2727 12.75 15.2727C15.0972 15.2727 17 17.2264 17 19.6364Z" fill="#FF8B8C"/>
<path d="M8.5 5.72727C8.5 6.17914 7.07291 6.54545 5.3125 6.54545C3.55209 6.54545 2.125 6.17914 2.125 5.72727C2.125 5.2754 3.55209 4.90909 5.3125 4.90909C7.07291 4.90909 8.5 5.2754 8.5 5.72727Z" fill="#A5A4A4"/>
<path d="M2.125 0.818182H8.5V5.72727H2.125V0.818182Z" fill="#A5A4A4"/>
<path d="M8.5 0.818182C8.5 1.27005 7.07291 1.63636 5.3125 1.63636C3.55209 1.63636 2.125 1.27005 2.125 0.818182C2.125 0.366312 3.55209 0 5.3125 0C7.07291 0 8.5 0.366312 8.5 0.818182Z" fill="#8D8D8D"/>
</svg>
