<svg width="40" height="40" viewBox="0 0 40 40" fill="none" xmlns="http://www.w3.org/2000/svg">
<path fill-rule="evenodd" clip-rule="evenodd" d="M19.7258 39.4515C30.62 39.4515 39.4515 30.62 39.4515 19.7258C39.4515 8.83153 30.62 0 19.7258 0C8.83153 0 0 8.83153 0 19.7258C0 30.62 8.83153 39.4515 19.7258 39.4515ZM19.797 36.3182C28.9214 36.3182 36.3182 28.9214 36.3182 19.797C36.3182 10.6726 28.9214 3.27576 19.797 3.27576C10.6726 3.27576 3.27576 10.6726 3.27576 19.797C3.27576 28.9214 10.6726 36.3182 19.797 36.3182Z" fill="#6C63FF" fill-opacity="0.75"/>
<path d="M21.7242 20.6515C21.7242 21.6348 20.9271 22.4318 19.9439 22.4318C18.9606 22.4318 18.1636 21.6348 18.1636 20.6515C18.1636 19.6683 18.9606 18.8712 19.9439 18.8712C20.9271 18.8712 21.7242 19.6683 21.7242 20.6515Z" fill="#6C63FF" fill-opacity="0.75"/>
<path d="M19.2273 12.8182C19.2273 12.4249 19.5461 12.1061 19.9394 12.1061C20.3327 12.1061 20.6515 12.4249 20.6515 12.8182V19.0849C20.6515 19.4782 20.3327 19.797 19.9394 19.797C19.5461 19.797 19.2273 19.4782 19.2273 19.0849V12.8182Z" fill="#6C63FF" fill-opacity="0.75"/>
<path d="M20.7939 20.4379C20.7939 20.0446 21.1128 19.7258 21.5061 19.7258H27.7727C28.166 19.7258 28.4849 20.0446 28.4849 20.4379C28.4849 20.8312 28.166 21.15 27.7727 21.15H21.5061C21.1128 21.15 20.7939 20.8312 20.7939 20.4379Z" fill="#6C63FF" fill-opacity="0.75"/>
<circle cx="19.6546" cy="31.7607" r="1.99394" fill="#FF8B8C"/>
<circle cx="25.9212" cy="30.4788" r="1.99394" fill="#FF8B8C"/>
<circle cx="12.8182" cy="9.25761" r="1.99394" fill="#FF8B8C"/>
<path d="M35.4637 20.5091C35.4637 21.3743 34.7622 22.0757 33.897 22.0757C33.0317 22.0757 32.3303 21.3743 32.3303 20.5091C32.3303 19.6438 33.0317 18.9424 33.897 18.9424C34.7622 18.9424 35.4637 19.6438 35.4637 20.5091Z" fill="#3995FF"/>
<path d="M32.3303 20.5091C32.3303 21.3743 31.6289 22.0757 30.7637 22.0757C29.8984 22.0757 29.197 21.3743 29.197 20.5091C29.197 19.6438 29.8984 18.9424 30.7637 18.9424C31.6289 18.9424 32.3303 19.6438 32.3303 20.5091Z" fill="#CDCDCD"/>
<path d="M30.7637 18.9424H32.3303V22.0757H30.7637V18.9424Z" fill="#CDCDCD"/>
<path d="M32.3303 18.9424H33.897V22.0757H32.3303V18.9424Z" fill="#3995FF"/>
<path d="M19.9394 4.1303C20.8046 4.1303 21.5061 4.83172 21.5061 5.69697C21.5061 6.56222 20.8046 7.26364 19.9394 7.26364C19.0741 7.26364 18.3727 6.56222 18.3727 5.69697C18.3727 4.83172 19.0741 4.1303 19.9394 4.1303Z" fill="#3995FF"/>
<path d="M19.9394 7.26364C20.8046 7.26364 21.5061 7.96506 21.5061 8.83031C21.5061 9.69555 20.8046 10.397 19.9394 10.397C19.0741 10.397 18.3727 9.69555 18.3727 8.83031C18.3727 7.96506 19.0741 7.26364 19.9394 7.26364Z" fill="#CDCDCD"/>
<path d="M18.3727 8.83031V7.26364H21.5061V8.83031H18.3727Z" fill="#CDCDCD"/>
<path d="M18.3727 7.26364V5.69697H21.5061V7.26364H18.3727Z" fill="#3995FF"/>
<path d="M28.2353 6.73803C28.9441 7.23431 29.1164 8.2112 28.6201 8.91997C28.1238 9.62874 27.1469 9.80099 26.4381 9.3047C25.7294 8.80842 25.5571 7.83153 26.0534 7.12276C26.5497 6.41399 27.5266 6.24174 28.2353 6.73803Z" fill="#3867CC"/>
<path d="M26.4381 9.3047C27.1469 9.80099 27.3192 10.7779 26.8229 11.4866C26.3266 12.1954 25.3497 12.3677 24.6409 11.8714C23.9322 11.3751 23.7599 10.3982 24.2562 9.68944C24.7525 8.98067 25.7294 8.80842 26.4381 9.3047Z" fill="#CDCDCD"/>
<path d="M24.2562 9.68944L25.1548 8.4061L27.7215 10.2033L26.8229 11.4866L24.2562 9.68944Z" fill="#CDCDCD"/>
<path d="M25.1548 8.4061L26.0534 7.12276L28.6201 8.91997L27.7215 10.2033L25.1548 8.4061Z" fill="#3867CC"/>
<path d="M11.5379 32.6653C10.8291 32.169 10.6569 31.1921 11.1531 30.4834C11.6494 29.7746 12.6263 29.6023 13.3351 30.0986C14.0439 30.5949 14.2161 31.5718 13.7198 32.2806C13.2235 32.9893 12.2466 33.1616 11.5379 32.6653Z" fill="#3867CC"/>
<path d="M13.3351 30.0986C12.6263 29.6023 12.4541 28.6254 12.9504 27.9167C13.4466 27.2079 14.4235 27.0357 15.1323 27.5319C15.8411 28.0282 16.0133 29.0051 15.517 29.7139C15.0207 30.4226 14.0439 30.5949 13.3351 30.0986Z" fill="#CDCDCD"/>
<path d="M15.517 29.7139L14.6184 30.9972L12.0517 29.2L12.9504 27.9167L15.517 29.7139Z" fill="#CDCDCD"/>
<path d="M14.6184 30.9972L13.7198 32.2806L11.1531 30.4834L12.0517 29.2L14.6184 30.9972Z" fill="#3867CC"/>
<path d="M11.3017 23.6439C11.7979 24.3526 11.6257 25.3295 10.9169 25.8258C10.2082 26.3221 9.23127 26.1499 8.73498 25.4411C8.2387 24.7323 8.41095 23.7554 9.11972 23.2591C9.82848 22.7629 10.8054 22.9351 11.3017 23.6439Z" fill="#3995FF"/>
<path d="M8.73498 25.4411C9.23127 26.1499 9.05901 27.1267 8.35025 27.623C7.64148 28.1193 6.66459 27.9471 6.1683 27.2383C5.67202 26.5295 5.84427 25.5526 6.55304 25.0564C7.26181 24.5601 8.2387 24.7323 8.73498 25.4411Z" fill="#CDCDCD"/>
<path d="M6.55304 25.0564L7.83638 24.1577L9.63358 26.7244L8.35025 27.623L6.55304 25.0564Z" fill="#CDCDCD"/>
<path d="M7.83638 24.1577L9.11972 23.2591L10.9169 25.8258L9.63358 26.7244L7.83638 24.1577Z" fill="#3995FF"/>
<path d="M28.3865 14.9899C27.8902 14.2811 28.0624 13.3043 28.7712 12.808C29.48 12.3117 30.4569 12.4839 30.9532 13.1927C31.4494 13.9015 31.2772 14.8784 30.5684 15.3746C29.8597 15.8709 28.8828 15.6987 28.3865 14.9899Z" fill="#3995FF"/>
<path d="M30.9532 13.1927C30.4569 12.4839 30.6291 11.507 31.3379 11.0108C32.0467 10.5145 33.0236 10.6867 33.5198 11.3955C34.0161 12.1043 33.8439 13.0812 33.1351 13.5774C32.4263 14.0737 31.4494 13.9015 30.9532 13.1927Z" fill="#CDCDCD"/>
<path d="M33.1351 13.5774L31.8518 14.476L30.0546 11.9094L31.3379 11.0108L33.1351 13.5774Z" fill="#CDCDCD"/>
<path d="M31.8518 14.476L30.5684 15.3746L28.7712 12.808L30.0546 11.9094L31.8518 14.476Z" fill="#3995FF"/>
<path d="M33.0926 28.2353C32.5963 28.9441 31.6194 29.1163 30.9106 28.62C30.2019 28.1237 30.0296 27.1469 30.5259 26.4381C31.0222 25.7293 31.9991 25.5571 32.7079 26.0534C33.4166 26.5496 33.5889 27.5265 33.0926 28.2353Z" fill="#3867CC"/>
<path d="M30.5259 26.4381C30.0296 27.1469 29.0527 27.3191 28.344 26.8228C27.6352 26.3265 27.4629 25.3497 27.9592 24.6409C28.4555 23.9321 29.4324 23.7599 30.1412 24.2561C30.8499 24.7524 31.0222 25.7293 30.5259 26.4381Z" fill="#CDCDCD"/>
<path d="M30.1412 24.2561L31.4245 25.1548L29.6273 27.7214L28.344 26.8228L30.1412 24.2561Z" fill="#CDCDCD"/>
<path d="M31.4245 25.1548L32.7079 26.0534L30.9106 28.62L29.6273 27.7214L31.4245 25.1548Z" fill="#3867CC"/>
<path d="M6.16831 12.3925C6.66459 11.6837 7.64148 11.5115 8.35025 12.0078C9.05902 12.5041 9.23127 13.4809 8.73499 14.1897C8.2387 14.8985 7.26181 15.0707 6.55304 14.5745C5.84428 14.0782 5.67202 13.1013 6.16831 12.3925Z" fill="#3867CC"/>
<path d="M8.73499 14.1897C9.23127 13.4809 10.2082 13.3087 10.9169 13.805C11.6257 14.3013 11.7979 15.2782 11.3017 15.9869C10.8054 16.6957 9.82849 16.8679 9.11972 16.3717C8.41095 15.8754 8.2387 14.8985 8.73499 14.1897Z" fill="#CDCDCD"/>
<path d="M9.11972 16.3717L7.83638 15.4731L9.63359 12.9064L10.9169 13.805L9.11972 16.3717Z" fill="#CDCDCD"/>
<path d="M7.83638 15.4731L6.55304 14.5745L8.35025 12.0078L9.63359 12.9064L7.83638 15.4731Z" fill="#3867CC"/>
<path d="M3.98788 19.797C3.98788 18.9317 4.6893 18.2303 5.55454 18.2303C6.41979 18.2303 7.12121 18.9317 7.12121 19.797C7.12121 20.6622 6.41979 21.3636 5.55454 21.3636C4.6893 21.3636 3.98788 20.6622 3.98788 19.797Z" fill="#3995FF"/>
<path d="M7.12121 19.797C7.12121 18.9317 7.82263 18.2303 8.68788 18.2303C9.55313 18.2303 10.2545 18.9317 10.2545 19.797C10.2545 20.6622 9.55313 21.3636 8.68788 21.3636C7.82263 21.3636 7.12121 20.6622 7.12121 19.797Z" fill="#CDCDCD"/>
<path d="M8.68788 21.3636H7.12121V18.2303H8.68788V21.3636Z" fill="#CDCDCD"/>
<path d="M7.12121 21.3636H5.55454V18.2303H7.12121V21.3636Z" fill="#3995FF"/>
</svg>
