<svg width="15" height="15" viewBox="0 0 15 15" fill="none" xmlns="http://www.w3.org/2000/svg">
<path d="M14.9035 3.48254C14.3265 4.90998 11.2315 6 7.5 6C3.76853 6 0.673525 4.90998 0.0965084 3.48254C0.839868 7.19934 2 13 2 13C7 15 7 15 13 13L14.9035 3.48254Z" fill="#3995FF"/>
<path fill-rule="evenodd" clip-rule="evenodd" d="M14.9035 3.48254C14.967 3.32545 15 3.16427 15 3C15 1.34315 11.6421 0 7.5 0C3.35786 0 0 1.34315 0 3C0 3.16427 0.0330055 3.32545 0.0965084 3.48254C2.98023e-08 2 4.57633 1.37064 7.5 1.37064C10.4237 1.37064 15 2 14.9035 3.48254Z" fill="#8A8686"/>
<path d="M7.5 6C11.2315 6 14.3265 4.90998 14.9035 3.48254C15 2 10.4237 1.37064 7.5 1.37064C4.57633 1.37064 2.98023e-08 2 0.0965084 3.48254C0.673525 4.90998 3.76853 6 7.5 6Z" fill="#3995FF"/>
<path d="M14.9035 3.48254C14.3265 4.90998 11.2315 6 7.5 6C3.76853 6 0.673525 4.90998 0.0965084 3.48254C0.839868 7.19934 2 13 2 13C7 15 7 15 13 13L14.9035 3.48254Z" fill="#CDCDCD" fill-opacity="0.75"/>
<path d="M4 8C7.5 8.5 7.5 8.5 11 8M4 9C7.5 9.5 7.5 9.5 11 9M4 10C7.5 10.5 7.5 10.5 11 10" stroke="black" stroke-width="0.25"/>
</svg>
