<svg width="374" height="374" viewBox="0 0 374 374" fill="none" xmlns="http://www.w3.org/2000/svg">
<circle cx="187" cy="187" r="187" fill="white"/>
<g clip-path="url(#clip0_148_369)">
<path d="M256.818 114.053H255.221V69.0473C255.221 62.1391 252.555 55.5139 247.81 50.6291C243.066 45.7443 236.63 43 229.92 43H137.304C130.594 43 124.159 45.7443 119.414 50.6291C114.669 55.5139 112.004 62.1391 112.004 69.0473V315.952C112.004 322.86 114.669 329.486 119.414 334.37C124.159 339.255 130.594 342 137.304 342H229.92C236.63 342 243.066 339.255 247.81 334.37C252.555 329.486 255.221 322.86 255.221 315.952V146.089H256.817L256.818 114.053Z" fill="#090814"/>
<path d="M230.945 49.7767H218.855C219.411 51.18 219.623 52.7025 219.473 54.2101C219.323 55.7178 218.815 57.1642 217.994 58.4221C217.173 59.68 216.064 60.7107 214.765 61.4234C213.466 62.136 212.016 62.5089 210.544 62.509H157.483C156.011 62.5089 154.561 62.1362 153.262 61.4235C151.963 60.7109 150.854 59.6802 150.033 58.4223C149.211 57.1644 148.703 55.7179 148.553 54.2103C148.403 52.7026 148.615 51.18 149.171 49.7767H137.88C132.869 49.7767 128.063 51.8262 124.52 55.4743C120.976 59.1223 118.985 64.0702 118.985 69.2293V315.772C118.985 320.931 120.976 325.879 124.52 329.527C128.063 333.175 132.869 335.225 137.88 335.225H230.941C233.422 335.225 235.879 334.721 238.172 333.744C240.464 332.766 242.547 331.333 244.302 329.527C246.056 327.721 247.448 325.576 248.397 323.216C249.347 320.856 249.836 318.327 249.836 315.772V69.2293C249.836 64.0709 247.846 59.1237 244.303 55.4758C240.76 51.8278 235.955 49.7779 230.945 49.7767Z" fill="white"/>
<path d="M228.014 249.149H140.807C138.47 249.146 136.229 248.189 134.576 246.488C132.924 244.786 131.994 242.479 131.991 240.073V121.189C131.994 118.783 132.924 116.476 134.576 114.775C136.229 113.073 138.47 112.116 140.807 112.114H228.014C230.352 112.116 232.592 113.073 234.245 114.775C235.898 116.476 236.827 118.783 236.83 121.189V240.071C236.828 242.478 235.899 244.785 234.246 246.487C232.593 248.189 230.352 249.146 228.014 249.149Z" fill="#E6E6E6"/>
<path d="M221.884 241.585H146.937C144.862 241.583 142.873 240.733 141.405 239.222C139.938 237.712 139.113 235.663 139.11 233.527V127.738C139.112 125.602 139.938 123.553 141.405 122.043C142.872 120.532 144.862 119.682 146.937 119.68H221.884C223.96 119.681 225.95 120.531 227.418 122.042C228.886 123.552 229.712 125.601 229.714 127.738V233.527C229.712 235.664 228.886 237.713 227.418 239.223C225.95 240.734 223.96 241.584 221.884 241.585Z" fill="white"/>
<path d="M214.408 139.784H154.413C153.894 139.784 153.396 139.571 153.029 139.193C152.662 138.815 152.456 138.303 152.456 137.768C152.456 137.234 152.662 136.721 153.029 136.343C153.396 135.965 153.894 135.753 154.413 135.753H214.408C214.927 135.753 215.425 135.965 215.792 136.343C216.159 136.721 216.365 137.234 216.365 137.768C216.365 138.303 216.159 138.815 215.792 139.193C215.425 139.571 214.927 139.784 214.408 139.784Z" fill="#E4E4E4"/>
<path d="M214.408 147.743H154.413C153.894 147.743 153.396 147.531 153.029 147.153C152.662 146.775 152.456 146.262 152.456 145.728C152.456 145.193 152.662 144.681 153.029 144.303C153.396 143.925 153.894 143.713 154.413 143.713H214.408C214.927 143.713 215.425 143.925 215.792 144.303C216.159 144.681 216.365 145.193 216.365 145.728C216.365 146.262 216.159 146.775 215.792 147.153C215.425 147.531 214.927 147.743 214.408 147.743Z" fill="#6C63FF"/>
<path d="M180.42 155.703H154.413C153.894 155.703 153.396 155.491 153.029 155.113C152.662 154.735 152.456 154.222 152.456 153.688C152.456 153.153 152.662 152.641 153.029 152.263C153.396 151.885 153.894 151.673 154.413 151.673H180.42C180.939 151.673 181.437 151.885 181.804 152.263C182.171 152.641 182.377 153.153 182.377 153.688C182.377 154.222 182.171 154.735 181.804 155.113C181.437 155.491 180.939 155.703 180.42 155.703Z" fill="#E4E4E4"/>
<path d="M214.408 172.374H154.413C153.894 172.374 153.396 172.162 153.029 171.784C152.662 171.406 152.456 170.893 152.456 170.359C152.456 169.824 152.662 169.312 153.029 168.934C153.396 168.556 153.894 168.344 154.413 168.344H214.408C214.927 168.344 215.425 168.556 215.792 168.934C216.159 169.312 216.365 169.824 216.365 170.359C216.365 170.893 216.159 171.406 215.792 171.784C215.425 172.162 214.927 172.374 214.408 172.374Z" fill="#E4E4E4"/>
<path d="M214.408 180.333H154.413C153.894 180.333 153.396 180.121 153.029 179.743C152.662 179.365 152.456 178.852 152.456 178.318C152.456 177.783 152.662 177.271 153.029 176.893C153.396 176.515 153.894 176.302 154.413 176.302H214.408C214.927 176.302 215.425 176.515 215.792 176.893C216.159 177.271 216.365 177.783 216.365 178.318C216.365 178.852 216.159 179.365 215.792 179.743C215.425 180.121 214.927 180.333 214.408 180.333Z" fill="#E4E4E4"/>
<path d="M180.42 188.294H154.413C153.894 188.294 153.396 188.082 153.029 187.704C152.662 187.326 152.456 186.813 152.456 186.279C152.456 185.744 152.662 185.232 153.029 184.854C153.396 184.476 153.894 184.263 154.413 184.263H180.42C180.939 184.263 181.437 184.476 181.804 184.854C182.171 185.232 182.377 185.744 182.377 186.279C182.377 186.813 182.171 187.326 181.804 187.704C181.437 188.082 180.939 188.294 180.42 188.294Z" fill="#E4E4E4"/>
<path d="M214.408 204.965H154.413C153.894 204.965 153.396 204.752 153.029 204.374C152.662 203.996 152.456 203.484 152.456 202.949C152.456 202.415 152.662 201.902 153.029 201.524C153.396 201.146 153.894 200.934 154.413 200.934H214.408C214.927 200.934 215.425 201.146 215.792 201.524C216.159 201.902 216.365 202.415 216.365 202.949C216.365 203.484 216.159 203.996 215.792 204.374C215.425 204.752 214.927 204.965 214.408 204.965Z" fill="#6C63FF"/>
<path d="M214.408 212.925H154.413C153.894 212.925 153.396 212.713 153.029 212.335C152.662 211.957 152.456 211.444 152.456 210.91C152.456 210.375 152.662 209.863 153.029 209.485C153.396 209.107 153.894 208.894 154.413 208.894H214.408C214.927 208.894 215.425 209.107 215.792 209.485C216.159 209.863 216.365 210.375 216.365 210.91C216.365 211.444 216.159 211.957 215.792 212.335C215.425 212.713 214.927 212.925 214.408 212.925Z" fill="#E4E4E4"/>
<path d="M180.42 220.883H154.413C153.894 220.883 153.396 220.671 153.029 220.293C152.662 219.915 152.456 219.403 152.456 218.868C152.456 218.334 152.662 217.821 153.029 217.443C153.396 217.065 153.894 216.853 154.413 216.853H180.42C180.939 216.853 181.437 217.065 181.804 217.443C182.171 217.821 182.377 218.334 182.377 218.868C182.377 219.403 182.171 219.915 181.804 220.293C181.437 220.671 180.939 220.883 180.42 220.883Z" fill="#E4E4E4"/>
<path d="M151.496 204.138L86.3149 146.74H42.5247V145.895H86.618L152.029 203.495L151.496 204.138Z" fill="#2F2E41"/>
<path d="M42.5247 153.082C46.1537 153.082 49.0956 150.054 49.0956 146.317C49.0956 142.581 46.1537 139.552 42.5247 139.552C38.8956 139.552 35.9537 142.581 35.9537 146.317C35.9537 150.054 38.8956 153.082 42.5247 153.082Z" fill="#6C63FF"/>
<path d="M65.9517 169.07H5.95658C5.4374 169.07 4.93949 168.858 4.57238 168.48C4.20527 168.102 3.99902 167.59 3.99902 167.055C3.99902 166.521 4.20527 166.008 4.57238 165.63C4.93949 165.252 5.4374 165.04 5.95658 165.04H65.9517C66.4709 165.04 66.9688 165.252 67.3359 165.63C67.703 166.008 67.9093 166.521 67.9093 167.055C67.9093 167.59 67.703 168.102 67.3359 168.48C66.9688 168.858 66.4709 169.07 65.9517 169.07Z" fill="#6C63FF"/>
<path d="M65.9517 177.032H5.95658C5.4374 177.032 4.93949 176.82 4.57238 176.442C4.20527 176.064 3.99902 175.552 3.99902 175.017C3.99902 174.483 4.20527 173.97 4.57238 173.592C4.93949 173.214 5.4374 173.002 5.95658 173.002H65.9517C66.4709 173.002 66.9688 173.214 67.3359 173.592C67.703 173.97 67.9093 174.483 67.9093 175.017C67.9093 175.552 67.703 176.064 67.3359 176.442C66.9688 176.82 66.4709 177.032 65.9517 177.032Z" fill="#6C63FF"/>
<path d="M31.963 184.99H5.95658C5.4374 184.99 4.93949 184.778 4.57238 184.4C4.20527 184.022 3.99902 183.51 3.99902 182.975C3.99902 182.441 4.20527 181.928 4.57238 181.55C4.93949 181.172 5.4374 180.96 5.95658 180.96H31.963C32.4822 180.96 32.9801 181.172 33.3472 181.55C33.7144 181.928 33.9206 182.441 33.9206 182.975C33.9206 183.51 33.7144 184.022 33.3472 184.4C32.9801 184.778 32.4822 184.99 31.963 184.99Z" fill="#6C63FF"/>
<path d="M217.861 147.205L283.272 89.6042H327.366V90.4497H283.576L218.395 147.848L217.861 147.205Z" fill="#2F2E41"/>
<path d="M327.365 96.7923C330.995 96.7923 333.936 93.7635 333.936 90.0274C333.936 86.2912 330.995 83.2625 327.365 83.2625C323.736 83.2625 320.795 86.2912 320.795 90.0274C320.795 93.7635 323.736 96.7923 327.365 96.7923Z" fill="#6C63FF"/>
<path d="M372.043 112.544H312.048C311.529 112.544 311.031 112.331 310.664 111.953C310.297 111.575 310.091 111.063 310.091 110.528C310.091 109.994 310.297 109.481 310.664 109.103C311.031 108.725 311.529 108.513 312.048 108.513H372.043C372.562 108.513 373.06 108.725 373.427 109.103C373.794 109.481 374 109.994 374 110.528C374 111.063 373.794 111.575 373.427 111.953C373.06 112.331 372.562 112.544 372.043 112.544Z" fill="#6C63FF"/>
<path d="M372.043 120.503H312.048C311.529 120.503 311.031 120.291 310.664 119.913C310.297 119.535 310.091 119.022 310.091 118.488C310.091 117.953 310.297 117.441 310.664 117.063C311.031 116.685 311.529 116.472 312.048 116.472H372.043C372.562 116.472 373.06 116.685 373.427 117.063C373.794 117.441 374 117.953 374 118.488C374 119.022 373.794 119.535 373.427 119.913C373.06 120.291 372.562 120.503 372.043 120.503Z" fill="#6C63FF"/>
<path d="M338.055 128.463H312.048C311.529 128.463 311.031 128.251 310.664 127.873C310.297 127.495 310.091 126.982 310.091 126.448C310.091 125.913 310.297 125.401 310.664 125.023C311.031 124.645 311.529 124.432 312.048 124.432H338.055C338.574 124.432 339.072 124.645 339.439 125.023C339.806 125.401 340.012 125.913 340.012 126.448C340.012 126.982 339.806 127.495 339.439 127.873C339.072 128.251 338.574 128.463 338.055 128.463Z" fill="#6C63FF"/>
</g>
<defs>
<clipPath id="clip0_148_369">
<rect width="370" height="299" fill="white" transform="translate(4 43)"/>
</clipPath>
</defs>
</svg>
