<svg width="402" height="252" viewBox="0 0 402 252" fill="none" xmlns="http://www.w3.org/2000/svg">
<path d="M544 -150C544 -97.2086 534.947 -44.9341 517.358 3.83874C499.769 52.6116 473.988 96.9278 441.487 134.257C408.987 171.586 370.403 201.197 327.939 221.4C285.475 241.602 239.963 252 194 252C148.037 252 102.525 241.602 60.0608 221.4C17.5968 201.197 -20.9869 171.586 -53.4874 134.257C-85.9879 96.9278 -111.769 52.6116 -129.358 3.83871C-146.947 -44.9342 -156 -97.2086 -156 -150L194 -150H544Z" fill="white"/>
<path d="M298.751 141H129.249C126.906 141 125 139.143 125 136.861V124.139C125 121.857 126.906 120 129.249 120H298.751C301.094 120 303 121.857 303 124.139V136.861C303 139.143 301.094 141 298.751 141Z" fill="white" stroke="#BAB7C9" stroke-width="2" stroke-linecap="round" stroke-linejoin="round"/>
<path d="M278.766 207.942L272.763 211.661L278.206 219.915L284.209 216.195L278.766 207.942Z" fill="#F1A1A4"/>
<path d="M259.727 96.9981L252.144 99.508L252.025 88.8952L258.926 88.8206L259.727 96.9981Z" fill="#F1A1A4"/>
<path d="M264.343 86.1717C265.095 85.6256 265.995 85.1643 266.929 85.2661C267.94 85.3712 268.801 86.1716 269.071 87.1213C269.34 88.071 269.06 89.1225 268.448 89.9094C267.835 90.6963 266.915 91.2186 265.935 91.4865C265.368 91.6426 264.749 91.707 264.203 91.4865C263.402 91.1609 262.961 90.1807 263.265 89.3904" fill="#2F2E43"/>
<path d="M236.123 155.608C235.647 158.026 236.595 160.224 238.247 160.512C239.895 160.801 241.621 159.071 242.1 156.652C242.307 155.689 242.261 154.692 241.967 153.746L247.801 115.839L239.941 114.496L237.355 152.945C236.721 153.732 236.298 154.644 236.123 155.618L236.123 155.608Z" fill="#F1A1A4"/>
<path d="M252.004 94.6375L246.649 94.6951C242.87 95.2887 241.866 97.2593 241.05 100.882C239.801 106.407 238.205 113.77 238.541 113.872C239.076 114.042 248.235 118.098 252.872 117.094L252.007 94.6375L252.004 94.6375Z" fill="#6C63FF"/>
<path d="M258.58 215.117L251.455 215.194L251.568 224.989L258.693 224.912L258.58 215.117Z" fill="#F1A1A4"/>
<path d="M244.679 230.996C243.927 231.007 243.265 230.996 242.761 230.956C240.865 230.81 239.048 229.473 238.128 228.693C237.715 228.344 237.579 227.774 237.785 227.286C237.932 226.936 238.233 226.668 238.611 226.557L243.598 225.118L251.636 219.736L251.727 219.892C251.762 219.949 252.574 221.33 252.851 222.266C252.956 222.622 252.935 222.917 252.781 223.148C252.676 223.307 252.529 223.402 252.41 223.46C252.557 223.606 253.019 223.904 254.439 224.108C256.504 224.406 256.92 222.324 256.934 222.235L256.948 222.164L257.008 222.123C257.984 221.496 258.583 221.214 258.793 221.272C258.926 221.306 259.139 221.37 259.79 227.014C259.85 227.191 260.277 228.486 260.011 229.735C259.724 231.091 253.617 230.688 252.399 230.596C252.364 230.599 247.801 230.966 244.672 230.996H244.683L244.679 230.996Z" fill="#2F2E43"/>
<path d="M270.985 229.368C270.149 229.378 269.379 229.287 268.829 229.199C268.29 229.111 267.863 228.7 267.773 228.178C267.703 227.801 267.818 227.425 268.073 227.14L271.517 223.361L275.394 214.672L275.559 214.757C275.618 214.787 277.06 215.543 277.809 216.195C278.093 216.442 278.236 216.703 278.236 216.982C278.236 217.172 278.163 217.328 278.089 217.433C278.296 217.48 278.848 217.494 280.164 216.941C282.078 216.134 281.295 214.153 281.26 214.075L281.232 214.007L281.263 213.946C281.75 212.915 282.106 212.365 282.313 212.304C282.446 212.27 282.659 212.206 286.295 216.663C286.442 216.781 287.513 217.66 287.968 218.854C288.462 220.153 283.069 222.941 281.977 223.487C281.946 223.514 276.308 227.574 273.991 228.737C273.071 229.199 271.975 229.351 270.978 229.358L270.989 229.368L270.985 229.368Z" fill="#2F2E43"/>
<path d="M262.873 133.127L242.926 133.341L241.323 151.344L250.005 217.714L260.189 217.602L255.678 179.265L272.595 213.742L281.575 207.502L268.304 175.287C268.304 175.287 272.591 147.054 268.889 140.073C265.19 133.093 262.877 133.117 262.877 133.117V133.127L262.873 133.127Z" fill="#2F2E43"/>
<path d="M272.805 134.118L241.124 134.46L250.173 94.6612L263.979 94.5086L272.805 134.118Z" fill="#6C63FF"/>
<path d="M275.898 155.18C276.43 157.592 275.531 159.807 273.89 160.129C272.245 160.455 270.481 158.762 269.953 156.351C269.725 155.391 269.746 154.393 270.016 153.44L263.311 115.666L271.136 114.154L274.604 152.542C275.254 153.315 275.699 154.221 275.898 155.187V155.18Z" fill="#F1A1A4"/>
<path d="M258.628 94.5663L263.983 94.5086C267.772 95.0241 268.822 96.971 269.725 100.576C271.101 106.074 272.861 113.397 272.532 113.509C271.996 113.686 262.94 117.939 258.282 117.037L258.635 94.5663L258.628 94.5663Z" fill="#6C63FF"/>
<path d="M252.91 91.8256C257.098 91.8256 260.494 88.5349 260.494 84.4757C260.494 80.4164 257.098 77.1257 252.91 77.1257C248.722 77.1257 245.327 80.4164 245.327 84.4757C245.327 88.5349 248.722 91.8256 252.91 91.8256Z" fill="#F1A1A4"/>
<path d="M254.985 83.7262C253.718 83.7025 252.868 82.4712 252.361 81.3384C251.853 80.2123 251.332 78.9099 250.152 78.452C249.187 78.0789 247.521 80.6838 246.751 80.0054C245.95 79.2966 246.681 75.5928 247.517 74.9246C248.354 74.2564 249.502 74.114 250.579 74.0495C253.222 73.9037 255.878 74.08 258.474 74.5786C260.077 74.8839 261.736 75.3553 262.901 76.4644C264.381 77.872 264.78 80.0156 264.906 82.0201C265.039 84.0722 264.938 86.2225 263.93 88.0337C262.919 89.8415 260.78 91.1881 258.705 90.7539C258.485 89.6652 258.681 88.5493 258.751 87.4368C258.821 86.3311 258.719 85.1372 258.012 84.2621C257.305 83.387 255.815 83.0546 255.013 83.8449" fill="#2F2E43"/>
<path d="M298.751 60H129.249C126.906 60 125 58.1432 125 55.8609V43.1391C125 40.8568 126.906 39 129.249 39H298.751C301.094 39 303 40.8568 303 43.1391V55.8609C303 58.1432 301.094 60 298.751 60Z" fill="white" stroke="#BAB7C9" stroke-width="2" stroke-linecap="round" stroke-linejoin="round"/>
<path d="M125 97H194" stroke="#BAB7C9" stroke-width="2" stroke-linecap="round" stroke-linejoin="round"/>
<path d="M125 17H162" stroke="#BAB7C9" stroke-width="2" stroke-linecap="round" stroke-linejoin="round"/>
<path d="M177.839 199H129.161C126.867 199 125 197.055 125 194.664V181.336C125 178.945 126.867 177 129.161 177H177.839C180.133 177 182 178.945 182 181.336V194.664C182 197.055 180.133 199 177.839 199Z" fill="#6C63FF"/>
</svg>
