<svg width="402" height="401" viewBox="0 0 402 401" fill="none" xmlns="http://www.w3.org/2000/svg">
<path d="M588 -8C588 45.7106 577.977 98.8954 558.503 148.518C539.03 198.14 510.487 243.228 474.504 281.207C438.521 319.186 395.803 349.313 348.79 369.867C301.776 390.421 251.387 401 200.5 401C149.613 401 99.2238 390.421 52.2102 369.867C5.19648 349.313 -37.5212 319.186 -73.5039 281.207C-109.487 243.227 -138.03 198.14 -157.503 148.517C-176.977 98.8953 -187 45.7106 -187 -8.00004L200.5 -8H588Z" fill="white"/>
<path d="M359.053 304.698C352.229 311.991 344.409 318.289 335.824 323.404C335.628 323.525 335.427 323.639 335.226 323.756L321.329 311.478C321.475 311.342 321.636 311.19 321.811 311.023C332.166 301.208 383.573 232.584 386.999 215.873C386.762 217.265 390.089 271.862 359.053 304.698Z" fill="#F0F0F0"/>
<path d="M338.506 325.773C338.243 325.836 337.976 325.895 337.708 325.948L327.281 316.737C327.485 316.666 327.723 316.581 327.996 316.488C332.469 314.907 345.793 310.133 359.052 304.697C373.299 298.853 387.478 292.249 390.528 288.02C389.874 289.002 369.724 318.805 338.506 325.773Z" fill="#F0F0F0"/>
<path d="M358.86 123.069H357.376V82.4673C357.376 79.3814 356.767 76.3256 355.584 73.4745C354.4 70.6235 352.666 68.0329 350.48 65.8508C348.294 63.6687 345.699 61.9377 342.843 60.7568C339.987 59.5758 336.925 58.968 333.834 58.968H247.658C244.566 58.968 241.505 59.5758 238.649 60.7567C235.792 61.9377 233.197 63.6686 231.011 65.8507C228.825 68.0329 227.091 70.6234 225.908 73.4745C224.725 76.3255 224.116 79.3813 224.116 82.4673V305.213C224.116 308.299 224.725 311.355 225.908 314.206C227.091 317.057 228.825 319.647 231.011 321.83C233.197 324.012 235.792 325.743 238.648 326.924C241.505 328.104 244.566 328.712 247.658 328.712H333.834C336.925 328.712 339.987 328.104 342.843 326.924C345.699 325.743 348.294 324.012 350.48 321.83C352.666 319.647 354.4 317.057 355.584 314.206C356.767 311.355 357.376 308.299 357.376 305.213V151.971H358.86V123.069Z" fill="#3F3D56"/>
<path d="M352.364 82.6288V305.05C352.364 307.355 351.909 309.637 351.026 311.766C350.142 313.895 348.847 315.83 347.214 317.459C345.581 319.088 343.643 320.381 341.509 321.262C339.376 322.143 337.09 322.596 334.781 322.596H248.19C245.882 322.596 243.596 322.142 241.463 321.26C239.33 320.379 237.393 319.086 235.76 317.457C234.128 315.828 232.834 313.894 231.95 311.765C231.067 309.636 230.612 307.354 230.613 305.05V82.6288C230.612 80.3246 231.067 78.043 231.95 75.9142C232.834 73.7854 234.128 71.8511 235.76 70.2219C237.393 68.5926 239.33 67.3002 241.463 66.4185C243.596 65.5369 245.882 65.0832 248.19 65.0833H258.698C258.182 66.3494 257.986 67.7225 258.127 69.082C258.267 70.4415 258.74 71.7457 259.504 72.8799C260.268 74.0141 261.3 74.9435 262.508 75.5865C263.716 76.2294 265.064 76.5661 266.433 76.567H315.801C317.171 76.5683 318.521 76.233 319.73 75.5907C320.939 74.9484 321.972 74.0188 322.736 72.8839C323.501 71.7491 323.974 70.4439 324.113 69.0835C324.253 67.7231 324.055 66.3493 323.537 65.0833H334.781C337.09 65.0825 339.376 65.5357 341.509 66.4171C343.643 67.2984 345.581 68.5907 347.214 70.22C348.847 71.8493 350.142 73.7838 351.026 75.9129C351.909 78.0421 352.364 80.3241 352.364 82.6288Z" fill="white"/>
<path d="M325.429 198.211H249.318C247.985 198.209 246.707 197.68 245.764 196.739C244.821 195.798 244.291 194.522 244.29 193.192V190.693C244.291 189.363 244.821 188.087 245.764 187.146C246.707 186.205 247.985 185.676 249.318 185.674H325.429C326.762 185.676 328.04 186.205 328.983 187.146C329.925 188.087 330.456 189.363 330.457 190.693V193.192C330.456 194.522 329.925 195.798 328.983 196.739C328.04 197.68 326.762 198.209 325.429 198.211Z" fill="#F0F0F0"/>
<path d="M325.429 219.747H249.318C247.985 219.745 246.707 219.216 245.764 218.275C244.821 217.334 244.291 216.058 244.29 214.728V212.229C244.291 210.899 244.821 209.623 245.764 208.682C246.707 207.741 247.985 207.212 249.318 207.21H325.429C326.762 207.212 328.04 207.741 328.983 208.682C329.925 209.623 330.456 210.899 330.457 212.229V214.728C330.456 216.058 329.925 217.334 328.983 218.275C328.04 219.216 326.762 219.745 325.429 219.747Z" fill="#F0F0F0"/>
<path d="M329.236 193.394H253.125C251.725 193.393 250.384 192.837 249.394 191.849C248.404 190.861 247.847 189.521 247.846 188.124V185.626C247.847 184.229 248.404 182.889 249.394 181.901C250.384 180.913 251.725 180.357 253.125 180.356H329.236C330.636 180.357 331.978 180.913 332.968 181.901C333.957 182.889 334.514 184.229 334.516 185.626V188.124C334.514 189.521 333.957 190.861 332.968 191.849C331.978 192.837 330.636 193.393 329.236 193.394ZM253.125 181.36C251.992 181.361 250.906 181.811 250.104 182.611C249.303 183.41 248.853 184.495 248.851 185.626V188.124C248.853 189.255 249.303 190.34 250.104 191.14C250.906 191.939 251.992 192.389 253.125 192.391H329.236C330.369 192.389 331.456 191.939 332.257 191.14C333.058 190.34 333.509 189.255 333.51 188.124V185.626C333.509 184.495 333.058 183.41 332.257 182.611C331.456 181.811 330.369 181.361 329.236 181.36H253.125Z" fill="#3F3D56"/>
<path d="M329.236 214.93H253.125C251.725 214.929 250.384 214.373 249.394 213.385C248.404 212.397 247.847 211.057 247.846 209.66V207.162C247.847 205.765 248.404 204.425 249.394 203.437C250.384 202.449 251.725 201.893 253.125 201.892H329.236C330.636 201.893 331.978 202.449 332.968 203.437C333.957 204.425 334.514 205.765 334.516 207.162V209.66C334.514 211.057 333.957 212.397 332.968 213.385C331.978 214.373 330.636 214.929 329.236 214.93ZM253.125 202.895C251.992 202.897 250.906 203.347 250.104 204.146C249.303 204.946 248.853 206.031 248.851 207.162V209.66C248.853 210.791 249.303 211.876 250.104 212.675C250.906 213.475 251.992 213.925 253.125 213.926H329.236C330.369 213.925 331.456 213.475 332.257 212.675C333.058 211.876 333.509 210.791 333.51 209.66V207.162C333.509 206.031 333.058 204.946 332.257 204.146C331.456 203.347 330.369 202.897 329.236 202.895H253.125Z" fill="#3F3D56"/>
<path d="M352.364 82.6288V131.009C344.663 133.031 336.6 133.263 328.795 131.687C320.989 130.111 313.65 126.768 307.342 121.917C301.034 117.065 295.925 110.834 292.409 103.702C288.892 96.5701 287.061 88.7281 287.056 80.7792C287.056 79.3604 287.113 77.9563 287.228 76.567H315.801C317.171 76.5683 318.521 76.233 319.73 75.5907C320.939 74.9484 321.972 74.0188 322.736 72.8839C323.501 71.7491 323.974 70.4439 324.113 69.0835C324.253 67.7231 324.055 66.3493 323.537 65.0833H334.781C337.09 65.0825 339.376 65.5357 341.509 66.4171C343.643 67.2984 345.581 68.5907 347.214 70.22C348.847 71.8493 350.142 73.7838 351.026 75.9129C351.909 78.0421 352.364 80.3241 352.364 82.6288Z" fill="#F0F0F0"/>
<path d="M274.365 319.574C274.365 320.594 274.327 321.601 274.245 322.596H248.19C245.882 322.596 243.596 322.142 241.463 321.26C239.33 320.379 237.393 319.086 235.76 317.457C234.128 315.828 232.834 313.894 231.95 311.765C231.067 309.636 230.612 307.354 230.613 305.05V281.259C236.074 280.55 241.624 281.011 246.893 282.612C252.162 284.212 257.029 286.915 261.169 290.541C265.309 294.166 268.627 298.631 270.903 303.637C273.178 308.644 274.358 314.077 274.365 319.574Z" fill="#6C63FF"/>
<path d="M64.2249 277.83C64.957 278.151 65.7869 278.17 66.5326 277.881C67.2783 277.593 67.8789 277.021 68.2027 276.291L91.6742 223.191C92.2114 221.976 92.3756 220.629 92.1459 219.32C91.9162 218.012 91.303 216.801 90.3839 215.841C89.4647 214.88 88.2809 214.214 86.9821 213.925C85.6833 213.636 84.3279 213.738 83.0873 214.219C81.654 214.765 80.4545 215.79 79.6931 217.12C79.572 217.33 79.4621 217.547 79.364 217.769L55.8925 270.869C55.7325 271.23 55.6455 271.62 55.6365 272.016C55.6274 272.411 55.6965 272.804 55.8397 273.173C55.9829 273.542 56.1975 273.879 56.4712 274.165C56.7449 274.451 57.0724 274.68 57.4349 274.84L64.2249 277.83Z" fill="#6C63FF"/>
<path d="M90.7106 244.991L67.4943 239.841L73.2406 224.667C74.2195 220.958 76.4977 217.722 79.6618 215.546C82.826 213.371 86.6666 212.399 90.487 212.807L90.7107 212.832L90.7106 244.991Z" fill="#2F2E41"/>
<path d="M137.604 278.59C136.921 278.588 136.253 278.39 135.681 278.018C135.109 277.646 134.657 277.116 134.38 276.493L110.908 223.393C110.162 221.704 110.093 219.793 110.715 218.054C111.336 216.315 112.602 214.88 114.252 214.044C115.902 213.209 117.809 213.036 119.583 213.561C121.356 214.087 122.86 215.271 123.785 216.87C123.916 217.096 124.033 217.328 124.139 217.566L147.61 270.666C147.987 271.519 148.009 272.486 147.672 273.355C147.334 274.223 146.665 274.923 145.811 275.299L138.791 278.391L138.787 278.383C138.408 278.519 138.007 278.589 137.604 278.59Z" fill="#6C63FF"/>
<path d="M105.137 260.355C104.337 260.356 103.57 260.674 103.004 261.238C102.439 261.803 102.121 262.568 102.12 263.367V325.11C102.121 325.908 102.439 326.674 103.004 327.238C103.57 327.803 104.337 328.121 105.137 328.121H112.558C113.358 328.121 114.125 327.803 114.691 327.238C115.256 326.674 115.574 325.908 115.575 325.11V263.367C115.574 262.568 115.256 261.803 114.691 261.238C114.125 260.674 113.358 260.356 112.558 260.355H105.137Z" fill="#6C63FF"/>
<path d="M90.4581 260.355C89.6582 260.356 88.8914 260.674 88.3258 261.238C87.7602 261.803 87.4421 262.568 87.4412 263.367V325.11C87.4421 325.908 87.7602 326.674 88.3258 327.238C88.8914 327.803 89.6582 328.121 90.4581 328.121H97.8797C98.6795 328.121 99.4464 327.803 100.012 327.238C100.578 326.674 100.896 325.908 100.897 325.11V263.367C100.896 262.568 100.578 261.803 100.012 261.238C99.4464 260.674 98.6795 260.356 97.8797 260.355H90.4581Z" fill="#6C63FF"/>
<path d="M101.286 195.669C115.449 195.669 126.931 184.208 126.931 170.071C126.931 155.934 115.449 144.473 101.286 144.473C87.1236 144.473 75.6424 155.934 75.6424 170.071C75.6424 184.208 87.1236 195.669 101.286 195.669Z" fill="#6C63FF"/>
<path d="M109.82 180.816C111.483 180.77 113.551 180.713 115.145 179.551C115.62 179.19 116.01 178.731 116.288 178.204C116.566 177.678 116.725 177.097 116.754 176.503C116.783 176.08 116.714 175.657 116.551 175.266C116.389 174.874 116.138 174.526 115.819 174.247C114.986 173.545 113.771 173.381 112.461 173.765L113.818 163.864L112.822 163.728L111.226 175.367L112.058 174.986C113.023 174.545 114.347 174.32 115.17 175.014C115.372 175.195 115.529 175.421 115.63 175.673C115.73 175.925 115.771 176.197 115.749 176.467C115.725 176.91 115.605 177.342 115.399 177.734C115.192 178.126 114.903 178.469 114.552 178.74C113.312 179.644 111.663 179.761 109.792 179.813L109.82 180.816Z" fill="#2F2E41"/>
<path d="M124.162 164.718H118.745V165.722H124.162V164.718Z" fill="#2F2E41"/>
<path d="M107.066 164.718H101.649V165.722H107.066V164.718Z" fill="#2F2E41"/>
<path d="M126.696 278.901L117.466 211.644C117.367 210.923 117.01 210.262 116.46 209.784C115.911 209.305 115.206 209.041 114.477 209.042H107.51C107.539 208.876 107.554 208.708 107.555 208.54V206.03C107.555 205.231 107.237 204.465 106.672 203.901C106.106 203.336 105.338 203.019 104.538 203.019H98.5044C97.7043 203.019 96.9369 203.336 96.3711 203.901C95.8053 204.465 95.4875 205.231 95.4875 206.03V208.54C95.4885 208.708 95.5036 208.876 95.5326 209.042H88.5658C87.8365 209.042 87.132 209.305 86.5824 209.784C86.0329 210.262 85.6756 210.923 85.5766 211.644L76.3467 278.901C76.2882 279.327 76.3219 279.761 76.4453 280.173C76.5687 280.585 76.7791 280.966 77.0622 281.29C77.3454 281.614 77.6948 281.874 78.087 282.052C78.4791 282.229 78.9049 282.322 79.3357 282.322H123.707C124.138 282.322 124.564 282.229 124.956 282.052C125.348 281.874 125.697 281.614 125.98 281.29C126.264 280.966 126.474 280.585 126.597 280.173C126.721 279.761 126.754 279.327 126.696 278.901Z" fill="#2F2E41"/>
<path d="M99.9951 196.468L82.2577 189.595C79.3573 188.472 76.4407 187.382 73.5556 186.22C72.3198 185.79 71.1814 185.12 70.206 184.249C69.3568 183.352 68.7781 182.234 68.5361 181.023C67.9209 178.428 68.0321 175.59 68.076 172.941C68.11 170.043 68.3489 167.152 68.7909 164.288C69.5655 158.905 71.3845 153.726 74.1461 149.039C79.1204 140.892 87.6908 134.763 97.549 135.252C102.113 135.478 106.703 137.113 110.094 140.228C110.448 140.65 110.845 141.034 111.278 141.374C111.58 141.486 111.908 141.508 112.221 141.437C112.635 141.41 113.049 141.39 113.464 141.376C114.902 141.315 116.343 141.376 117.771 141.556C120.373 141.837 122.84 142.859 124.876 144.501C126.571 145.956 127.949 148.01 128.091 150.293C128.16 151.341 127.986 152.391 127.584 153.361C127.182 154.332 126.561 155.197 125.771 155.89C123.655 157.67 120.636 157.044 118.097 156.91L104.087 156.169C103.116 156.118 103.119 157.624 104.087 157.675L116.609 158.337C118.622 158.444 120.696 158.705 122.71 158.584C124.257 158.514 125.735 157.921 126.9 156.901C127.964 155.926 128.756 154.692 129.2 153.319C129.644 151.947 129.724 150.483 129.433 149.071C128.787 145.99 126.49 143.442 123.798 141.926C120.134 139.863 115.758 139.666 111.659 139.971L112.192 140.191C107.555 135.223 100.452 133.125 93.7838 133.86C86.7431 134.635 80.481 138.555 75.9818 143.917C70.9654 149.894 68.2317 157.348 67.169 165.012C66.616 169.15 66.4339 173.329 66.6249 177.5C66.6171 179.339 66.9323 181.165 67.5563 182.896C68.2683 184.58 69.5556 185.958 71.1893 186.784C73.0623 187.686 74.9878 188.476 76.9556 189.148L99.5941 197.919C100.5 198.27 100.892 196.815 99.9951 196.468Z" fill="#2F2E41"/>
<path d="M72.1061 145.298C70.5646 145.298 69.0578 144.842 67.7761 143.987C66.4944 143.132 65.4955 141.917 64.9056 140.495C64.3157 139.074 64.1614 137.51 64.4621 136C64.7628 134.491 65.5051 133.105 66.5951 132.017C67.685 130.929 69.0738 130.188 70.5856 129.888C72.0975 129.588 73.6645 129.742 75.0887 130.331C76.5128 130.919 77.73 131.917 78.5864 133.196C79.4428 134.475 79.8999 135.98 79.8999 137.518C79.8976 139.581 79.0757 141.558 77.6146 143.017C76.1535 144.475 74.1724 145.296 72.1061 145.298ZM72.1061 131.244C70.863 131.244 69.6478 131.612 68.6142 132.302C67.5806 132.991 66.775 133.971 66.2992 135.117C65.8235 136.264 65.699 137.525 65.9416 138.742C66.1841 139.959 66.7827 141.077 67.6617 141.955C68.5407 142.832 69.6607 143.43 70.8799 143.672C72.0991 143.914 73.3629 143.789 74.5114 143.315C75.6599 142.84 76.6415 142.036 77.3322 141.004C78.0228 139.972 78.3914 138.759 78.3914 137.518C78.3896 135.855 77.7267 134.26 76.5484 133.084C75.3701 131.908 73.7725 131.246 72.1061 131.244Z" fill="#2F2E41"/>
<path d="M202.39 193.51L185.521 180.631L172.619 197.47L189.488 210.349L202.39 193.51Z" fill="#F0F0F0"/>
<path d="M107.052 78.5428C109.718 78.5407 112.347 79.1616 114.728 80.3559C117.11 81.5502 119.179 83.2845 120.768 85.4202L130.618 72.5642L101.063 50L78.4582 79.5022L91.1965 89.2273C92.4713 86.0715 94.662 83.3681 97.4873 81.4642C100.313 79.5604 103.644 78.543 107.052 78.5428Z" fill="#F0F0F0"/>
<path d="M303.854 245.716H267.72C266.387 245.715 265.109 245.186 264.166 244.245C263.224 243.304 262.693 242.028 262.692 240.697V238.199C262.693 236.868 263.224 235.592 264.166 234.651C265.109 233.71 266.387 233.181 267.72 233.18H303.854C305.187 233.181 306.465 233.71 307.408 234.651C308.351 235.592 308.881 236.868 308.882 238.199V240.697C308.881 242.028 308.351 243.304 307.408 244.245C306.465 245.186 305.187 245.715 303.854 245.716Z" fill="#6C63FF"/>
<path d="M307.662 240.9H271.527C270.128 240.899 268.786 240.343 267.796 239.355C266.806 238.367 266.249 237.027 266.248 235.63V233.132C266.249 231.734 266.806 230.395 267.796 229.407C268.786 228.419 270.128 227.863 271.527 227.862H307.662C309.061 227.863 310.403 228.419 311.393 229.407C312.383 230.395 312.94 231.734 312.941 233.132V235.63C312.94 237.027 312.383 238.367 311.393 239.355C310.403 240.343 309.061 240.899 307.662 240.9ZM271.527 228.865C270.394 228.867 269.308 229.317 268.507 230.116C267.705 230.916 267.255 232.001 267.253 233.132V235.63C267.255 236.761 267.705 237.846 268.507 238.645C269.308 239.445 270.394 239.895 271.527 239.896H307.662C308.795 239.895 309.881 239.445 310.682 238.645C311.484 237.846 311.934 236.761 311.936 235.63V233.132C311.934 232.001 311.484 230.916 310.682 230.116C309.881 229.317 308.795 228.867 307.662 228.865H271.527Z" fill="#3F3D56"/>
<path d="M112.332 244.991V212.832L112.556 212.807C116.381 212.399 120.226 213.374 123.392 215.555C126.558 217.736 128.836 220.978 129.81 224.693L135.548 239.841L112.332 244.991Z" fill="#2F2E41"/>
</svg>
