<svg width="402" height="332" viewBox="0 0 402 332" fill="none" xmlns="http://www.w3.org/2000/svg">
<path d="M589 -70C589 -17.2086 578.977 35.0659 559.503 83.8387C540.03 132.612 511.487 176.928 475.504 214.257C439.521 251.586 396.803 281.197 349.79 301.4C302.776 321.602 252.387 332 201.5 332C150.613 332 100.224 321.602 53.2102 301.4C6.19648 281.197 -36.5212 251.586 -72.5039 214.257C-108.487 176.928 -137.03 132.612 -156.503 83.8387C-175.977 35.0658 -186 -17.2086 -186 -70L201.5 -70H589Z" fill="white"/>
<path d="M343.651 261.149C337.72 267.481 330.926 272.949 323.466 277.391C323.295 277.496 323.121 277.595 322.947 277.696L310.871 267.035C310.997 266.918 311.138 266.786 311.289 266.641C320.287 258.119 364.957 198.534 367.933 184.024C367.728 185.232 370.619 232.638 343.651 261.149Z" fill="#F0F0F0"/>
<path d="M325.796 279.448C325.568 279.503 325.336 279.553 325.103 279.6L316.043 271.602C316.22 271.54 316.427 271.467 316.663 271.386C320.551 270.013 332.128 265.868 343.65 261.148C356.03 256.073 368.35 250.34 371 246.667C370.432 247.521 352.923 273.398 325.796 279.448Z" fill="#F0F0F0"/>
<path d="M343.483 103.445H342.193V68.1907C342.193 65.5112 341.664 62.858 340.636 60.3824C339.608 57.9069 338.101 55.6576 336.201 53.7629C334.302 51.8682 332.047 50.3653 329.565 49.3399C327.083 48.3145 324.423 47.7867 321.737 47.7867H246.855C244.169 47.7867 241.508 48.3145 239.027 49.3399C236.545 50.3652 234.29 51.8682 232.39 53.7629C230.491 55.6575 228.984 57.9069 227.956 60.3824C226.928 62.8579 226.399 65.5111 226.399 68.1906V261.596C226.399 264.276 226.928 266.929 227.956 269.404C228.984 271.88 230.491 274.129 232.39 276.024C234.29 277.919 236.545 279.421 239.027 280.447C241.508 281.472 244.168 282 246.855 282H321.736C324.423 282 327.083 281.472 329.565 280.447C332.047 279.421 334.302 277.919 336.201 276.024C338.101 274.129 339.608 271.88 340.636 269.404C341.664 266.929 342.193 264.276 342.193 261.596V128.539H343.483V103.445Z" fill="#3F3D56"/>
<path d="M337.838 68.3309V261.455C337.838 263.456 337.443 265.437 336.675 267.286C335.907 269.135 334.782 270.814 333.363 272.229C331.944 273.644 330.26 274.766 328.406 275.531C326.552 276.296 324.566 276.69 322.559 276.689H247.317C245.312 276.689 243.325 276.295 241.472 275.53C239.619 274.764 237.935 273.642 236.517 272.227C235.099 270.813 233.974 269.133 233.206 267.285C232.439 265.436 232.044 263.455 232.044 261.455V68.3309C232.044 66.3302 232.439 64.3491 233.206 62.5007C233.974 60.6524 235.099 58.9729 236.517 57.5582C237.935 56.1436 239.619 55.0214 241.472 54.2559C243.325 53.4903 245.312 53.0964 247.317 53.0965H256.448C256 54.1958 255.83 55.3881 255.952 56.5685C256.074 57.7489 256.485 58.8813 257.149 59.8661C257.813 60.8509 258.709 61.6579 259.759 62.2162C260.809 62.7744 261.98 63.0668 263.17 63.0676H306.067C307.258 63.0687 308.43 62.7776 309.481 62.2199C310.532 61.6622 311.429 60.855 312.094 59.8696C312.758 58.8843 313.169 57.751 313.29 56.5698C313.411 55.3886 313.239 54.1957 312.789 53.0965H322.559C324.566 53.0958 326.552 53.4893 328.406 54.2546C330.26 55.0199 331.944 56.1419 333.363 57.5566C334.782 58.9713 335.907 60.651 336.675 62.4997C337.443 64.3483 337.838 66.3298 337.838 68.3309Z" fill="white"/>
<path d="M314.433 168.688H248.298C247.139 168.687 246.029 168.227 245.21 167.41C244.39 166.593 243.93 165.486 243.928 164.33V162.161C243.93 161.006 244.39 159.898 245.21 159.081C246.029 158.264 247.139 157.804 248.298 157.803H314.433C315.592 157.804 316.702 158.264 317.521 159.081C318.34 159.898 318.801 161.006 318.802 162.161V164.33C318.801 165.486 318.34 166.593 317.521 167.41C316.702 168.227 315.592 168.687 314.433 168.688Z" fill="#F0F0F0"/>
<path d="M314.433 187.388H248.298C247.139 187.386 246.029 186.927 245.21 186.11C244.39 185.293 243.93 184.185 243.928 183.029V180.86C243.93 179.705 244.39 178.597 245.21 177.78C246.029 176.963 247.139 176.503 248.298 176.502H314.433C315.592 176.503 316.702 176.963 317.521 177.78C318.34 178.597 318.801 179.705 318.802 180.86V183.029C318.801 184.185 318.34 185.293 317.521 186.11C316.702 186.927 315.592 187.386 314.433 187.388Z" fill="#F0F0F0"/>
<path d="M317.742 164.506H251.606C250.39 164.505 249.224 164.022 248.363 163.164C247.503 162.307 247.02 161.144 247.018 159.93V157.761C247.02 156.548 247.503 155.385 248.363 154.527C249.224 153.669 250.39 153.187 251.606 153.185H317.742C318.958 153.187 320.124 153.669 320.984 154.527C321.844 155.385 322.328 156.548 322.329 157.761V159.93C322.328 161.144 321.844 162.307 320.984 163.164C320.124 164.022 318.958 164.505 317.742 164.506ZM251.606 154.057C250.621 154.058 249.677 154.448 248.981 155.143C248.285 155.837 247.893 156.779 247.892 157.761V159.93C247.893 160.912 248.285 161.854 248.981 162.548C249.677 163.243 250.621 163.634 251.606 163.635H317.742C318.726 163.634 319.67 163.243 320.366 162.548C321.063 161.854 321.454 160.912 321.455 159.93V157.761C321.454 156.779 321.063 155.837 320.366 155.143C319.67 154.448 318.726 154.058 317.742 154.057H251.606Z" fill="#3F3D56"/>
<path d="M317.742 183.205H251.606C250.39 183.204 249.224 182.722 248.363 181.864C247.503 181.006 247.02 179.843 247.018 178.63V176.46C247.02 175.247 247.503 174.084 248.363 173.226C249.224 172.368 250.39 171.886 251.606 171.884H317.742C318.958 171.886 320.124 172.368 320.984 173.226C321.844 174.084 322.328 175.247 322.329 176.46V178.63C322.328 179.843 321.844 181.006 320.984 181.864C320.124 182.722 318.958 183.204 317.742 183.205ZM251.606 172.756C250.621 172.757 249.677 173.148 248.981 173.842C248.285 174.537 247.893 175.478 247.892 176.46V178.63C247.893 179.612 248.285 180.553 248.981 181.248C249.677 181.942 250.621 182.333 251.606 182.334H317.742C318.726 182.333 319.67 181.942 320.366 181.248C321.063 180.553 321.454 179.612 321.455 178.63V176.46C321.454 175.478 321.063 174.537 320.366 173.842C319.67 173.148 318.726 172.757 317.742 172.756H251.606Z" fill="#3F3D56"/>
<path d="M337.838 68.3309V110.338C331.147 112.094 324.14 112.295 317.358 110.927C310.576 109.558 304.199 106.656 298.717 102.444C293.236 98.2311 288.797 92.8205 285.741 86.6282C282.685 80.4359 281.094 73.6268 281.09 66.7249C281.09 65.493 281.139 64.2739 281.239 63.0676H306.067C307.258 63.0687 308.43 62.7776 309.481 62.2199C310.532 61.6622 311.429 60.855 312.094 59.8696C312.758 58.8843 313.169 57.751 313.29 56.5698C313.411 55.3886 313.239 54.1957 312.789 53.0965H322.559C324.566 53.0958 326.552 53.4893 328.406 54.2546C330.26 55.0199 331.944 56.1419 333.363 57.5566C334.782 58.9713 335.907 60.651 336.675 62.4997C337.443 64.3483 337.838 66.3298 337.838 68.3309Z" fill="#F0F0F0"/>
<path d="M270.062 274.066C270.062 274.951 270.029 275.826 269.957 276.689H247.317C245.312 276.689 243.325 276.295 241.472 275.53C239.619 274.764 237.935 273.642 236.517 272.227C235.099 270.813 233.974 269.133 233.206 267.285C232.439 265.436 232.044 263.455 232.044 261.455V240.798C236.789 240.182 241.612 240.582 246.19 241.972C250.769 243.362 254.998 245.709 258.595 248.857C262.193 252.005 265.076 255.881 267.053 260.228C269.031 264.575 270.056 269.292 270.062 274.066Z" fill="#6C63FF"/>
<path d="M87.4634 237.82C88.0996 238.099 88.8208 238.115 89.4687 237.865C90.1167 237.614 90.6386 237.117 90.9199 236.483L111.315 190.378C111.782 189.323 111.925 188.153 111.725 187.017C111.525 185.881 110.993 184.83 110.194 183.996C109.395 183.162 108.367 182.583 107.238 182.333C106.109 182.082 104.932 182.171 103.854 182.587C102.608 183.062 101.566 183.952 100.904 185.107C100.799 185.289 100.704 185.477 100.618 185.67L80.2232 231.776C80.0842 232.09 80.0086 232.428 80.0007 232.771C79.9928 233.115 80.0528 233.456 80.1773 233.776C80.3017 234.097 80.4882 234.389 80.726 234.637C80.9638 234.886 81.2484 235.085 81.5634 235.224L87.4634 237.82Z" fill="#6C63FF"/>
<path d="M110.478 209.306L90.3044 204.835L95.2975 191.659C96.1482 188.439 98.1277 185.63 100.877 183.74C103.627 181.851 106.964 181.007 110.284 181.362L110.478 181.384L110.478 209.306Z" fill="#2F2E41"/>
<path d="M151.225 238.479C150.632 238.478 150.051 238.306 149.554 237.983C149.057 237.66 148.664 237.2 148.424 236.659L128.029 190.554C127.38 189.087 127.32 187.428 127.86 185.918C128.4 184.408 129.501 183.162 130.934 182.436C132.367 181.711 134.025 181.561 135.566 182.017C137.107 182.473 138.414 183.501 139.218 184.89C139.331 185.086 139.433 185.287 139.525 185.494L159.92 231.6C160.247 232.34 160.267 233.18 159.973 233.934C159.68 234.688 159.099 235.296 158.356 235.622L152.256 238.307L152.253 238.3C151.924 238.419 151.576 238.479 151.225 238.479Z" fill="#6C63FF"/>
<path d="M123.013 222.647C122.318 222.648 121.652 222.924 121.16 223.414C120.669 223.904 120.393 224.569 120.392 225.262V278.872C120.393 279.565 120.669 280.23 121.16 280.72C121.652 281.21 122.318 281.486 123.013 281.487H129.462C130.157 281.486 130.823 281.21 131.315 280.72C131.806 280.23 132.083 279.565 132.084 278.872V225.262C132.083 224.569 131.806 223.904 131.315 223.414C130.823 222.924 130.157 222.648 129.462 222.647H123.013Z" fill="#6C63FF"/>
<path d="M110.258 222.647C109.563 222.648 108.897 222.924 108.406 223.414C107.914 223.904 107.638 224.569 107.637 225.262V278.872C107.638 279.565 107.914 280.23 108.406 280.72C108.897 281.21 109.563 281.486 110.258 281.487H116.707C117.402 281.486 118.069 281.21 118.56 280.72C119.052 280.23 119.328 279.565 119.329 278.872V225.262C119.328 224.569 119.052 223.904 118.56 223.414C118.069 222.924 117.402 222.648 116.707 222.647H110.258Z" fill="#6C63FF"/>
<path d="M119.668 166.481C131.974 166.481 141.951 156.53 141.951 144.255C141.951 131.98 131.974 122.029 119.668 122.029C107.361 122.029 97.3846 131.98 97.3846 144.255C97.3846 156.53 107.361 166.481 119.668 166.481Z" fill="#6C63FF"/>
<path d="M127.083 153.585C128.527 153.545 130.325 153.495 131.71 152.486C132.122 152.173 132.461 151.774 132.703 151.317C132.944 150.86 133.083 150.356 133.108 149.84C133.133 149.473 133.073 149.105 132.932 148.765C132.791 148.426 132.573 148.123 132.295 147.881C131.572 147.272 130.516 147.129 129.378 147.462L130.557 138.866L129.691 138.748L128.305 148.854L129.028 148.523C129.866 148.139 131.016 147.944 131.731 148.547C131.907 148.705 132.044 148.9 132.131 149.119C132.218 149.338 132.254 149.574 132.235 149.809C132.214 150.193 132.11 150.568 131.93 150.909C131.751 151.249 131.5 151.547 131.195 151.782C130.117 152.567 128.684 152.669 127.059 152.714L127.083 153.585Z" fill="#2F2E41"/>
<path d="M139.545 139.607H134.838V140.479H139.545V139.607Z" fill="#2F2E41"/>
<path d="M124.689 139.607H119.983V140.479H124.689V139.607Z" fill="#2F2E41"/>
<path d="M141.747 238.75L133.727 180.352C133.641 179.726 133.33 179.152 132.853 178.737C132.375 178.321 131.763 178.092 131.129 178.092H125.076C125.101 177.948 125.114 177.803 125.115 177.657V175.478C125.115 174.784 124.839 174.119 124.347 173.629C123.855 173.138 123.189 172.863 122.493 172.863H117.25C116.555 172.863 115.888 173.138 115.397 173.629C114.905 174.119 114.629 174.784 114.629 175.478V177.657C114.63 177.803 114.643 177.948 114.668 178.092H108.614C107.98 178.092 107.368 178.321 106.891 178.737C106.413 179.152 106.103 179.726 106.017 180.352L97.9966 238.75C97.9457 239.12 97.975 239.497 98.0822 239.854C98.1895 240.212 98.3722 240.543 98.6183 240.824C98.8644 241.105 99.168 241.331 99.5087 241.485C99.8495 241.64 100.219 241.72 100.594 241.72H139.15C139.524 241.72 139.894 241.64 140.235 241.485C140.575 241.331 140.879 241.105 141.125 240.824C141.371 240.543 141.554 240.212 141.661 239.854C141.768 239.497 141.798 239.12 141.747 238.75Z" fill="#2F2E41"/>
<path d="M118.546 167.175L103.133 161.208C100.613 160.232 98.0782 159.286 95.5712 158.277C94.4974 157.903 93.5082 157.322 92.6607 156.566C91.9228 155.786 91.4199 154.816 91.2096 153.765C90.675 151.511 90.7717 149.047 90.8098 146.747C90.8394 144.231 91.047 141.72 91.431 139.234C92.1041 134.56 93.6847 130.063 96.0844 125.994C100.407 118.92 107.854 113.598 116.42 114.022C120.386 114.219 124.374 115.639 127.321 118.343C127.628 118.709 127.973 119.043 128.35 119.338C128.612 119.436 128.897 119.455 129.169 119.393C129.529 119.37 129.889 119.352 130.249 119.34C131.499 119.287 132.751 119.34 133.992 119.496C136.253 119.74 138.396 120.628 140.165 122.053C141.638 123.317 142.836 125.1 142.959 127.082C143.019 127.992 142.868 128.904 142.518 129.746C142.169 130.589 141.63 131.34 140.943 131.942C139.104 133.488 136.481 132.944 134.275 132.828L122.101 132.185C121.258 132.14 121.26 133.448 122.101 133.492L132.982 134.067C134.731 134.159 136.533 134.386 138.283 134.281C139.628 134.22 140.912 133.705 141.924 132.82C142.849 131.973 143.537 130.902 143.923 129.71C144.309 128.518 144.378 127.248 144.125 126.021C143.564 123.346 141.568 121.134 139.228 119.817C136.045 118.026 132.243 117.855 128.681 118.12L129.144 118.311C125.115 113.997 118.943 112.176 113.148 112.813C107.03 113.486 101.589 116.891 97.6794 121.546C93.3205 126.736 90.9452 133.208 90.0217 139.863C89.5411 143.456 89.3829 147.084 89.549 150.705C89.5421 152.302 89.816 153.888 90.3583 155.391C90.9769 156.853 92.0955 158.049 93.5151 158.767C95.1426 159.55 96.8158 160.236 98.5256 160.82L118.197 168.435C118.984 168.74 119.325 167.476 118.546 167.175Z" fill="#2F2E41"/>
<path d="M94.3118 122.745C92.9723 122.745 91.663 122.349 90.5493 121.607C89.4355 120.865 88.5675 119.81 88.055 118.575C87.5424 117.341 87.4083 115.983 87.6696 114.672C87.9309 113.362 88.5759 112.158 89.523 111.214C90.4701 110.269 91.6768 109.626 92.9905 109.365C94.3042 109.104 95.6659 109.238 96.9034 109.749C98.1409 110.261 99.1986 111.126 99.9427 112.237C100.687 113.348 101.084 114.654 101.084 115.99C101.082 117.781 100.368 119.498 99.0983 120.764C97.8286 122.031 96.1073 122.743 94.3118 122.745ZM94.3118 110.543C93.2316 110.543 92.1756 110.862 91.2775 111.461C90.3793 112.059 89.6793 112.91 89.2659 113.906C88.8526 114.901 88.7444 115.996 88.9552 117.053C89.1659 118.11 89.686 119.08 90.4499 119.842C91.2137 120.604 92.1868 121.123 93.2463 121.333C94.3057 121.543 95.4038 121.435 96.4018 121.023C97.3998 120.611 98.2527 119.913 98.8529 119.017C99.453 118.121 99.7733 117.068 99.7733 115.99C99.7717 114.546 99.1957 113.161 98.1718 112.14C97.148 111.119 95.7597 110.544 94.3118 110.543Z" fill="#2F2E41"/>
<path d="M207.52 164.606L192.862 153.424L181.651 168.045L196.309 179.227L207.52 164.606Z" fill="#F0F0F0"/>
<path d="M124.678 64.7831C126.994 64.7813 129.278 65.3204 131.348 66.3574C133.417 67.3943 135.215 68.9003 136.596 70.7546L145.155 59.592L119.473 40L99.8313 65.6162L110.9 74.0603C112.008 71.3201 113.911 68.9728 116.366 67.3197C118.821 65.6667 121.716 64.7833 124.678 64.7831Z" fill="#F0F0F0"/>
<path d="M295.686 209.936H264.288C263.13 209.935 262.019 209.476 261.2 208.659C260.381 207.841 259.92 206.734 259.919 205.578V203.409C259.92 202.254 260.381 201.146 261.2 200.329C262.019 199.512 263.13 199.052 264.288 199.051H295.686C296.844 199.052 297.955 199.512 298.774 200.329C299.593 201.146 300.054 202.254 300.055 203.409V205.578C300.054 206.734 299.593 207.841 298.774 208.659C297.955 209.476 296.844 209.935 295.686 209.936Z" fill="#6C63FF"/>
<path d="M298.995 205.755H267.596C266.38 205.753 265.214 205.271 264.354 204.413C263.494 203.555 263.01 202.392 263.009 201.179V199.009C263.01 197.796 263.494 196.633 264.354 195.775C265.214 194.917 266.38 194.435 267.596 194.433H298.995C300.211 194.435 301.377 194.917 302.237 195.775C303.097 196.633 303.581 197.796 303.582 199.009V201.179C303.581 202.392 303.097 203.555 302.237 204.413C301.377 205.271 300.211 205.753 298.995 205.755ZM267.596 195.305C266.612 195.306 265.668 195.697 264.971 196.391C264.275 197.086 263.883 198.027 263.882 199.009V201.179C263.883 202.161 264.275 203.102 264.971 203.797C265.668 204.491 266.612 204.882 267.596 204.883H298.995C299.979 204.882 300.923 204.491 301.619 203.797C302.316 203.102 302.707 202.161 302.708 201.179V199.009C302.707 198.027 302.316 197.086 301.619 196.391C300.923 195.697 299.979 195.306 298.995 195.305H267.596Z" fill="#3F3D56"/>
<path d="M129.266 209.306V181.384L129.46 181.362C132.784 181.008 136.125 181.854 138.876 183.748C141.627 185.642 143.606 188.457 144.453 191.682L149.439 204.835L129.266 209.306Z" fill="#2F2E41"/>
</svg>
