<svg width="402" height="261" viewBox="0 0 402 261" fill="none" xmlns="http://www.w3.org/2000/svg">
<path d="M544 -150C544 -97.2086 534.947 -44.9341 517.358 3.83875C499.769 52.6116 473.988 96.9278 441.487 134.257C408.987 171.586 370.403 201.197 327.939 221.4C285.475 241.602 239.963 252 194 252C148.037 252 102.525 241.602 60.0608 221.4C17.5968 201.197 -20.9869 171.586 -53.4874 134.257C-85.9879 96.9277 -111.769 52.6116 -129.358 3.83868C-146.947 -44.9342 -156 -97.2086 -156 -150L194 -150H544Z" fill="white"/>
<path d="M389.923 80.903H388.626V45.3944C388.626 42.6956 388.094 40.0231 387.06 37.5297C386.027 35.0363 384.512 32.7708 382.602 30.8624C380.692 28.954 378.425 27.4402 375.93 26.4074C373.435 25.3746 370.761 24.843 368.06 24.843H292.777C290.076 24.843 287.402 25.3746 284.906 26.4074C282.411 27.4402 280.144 28.954 278.234 30.8623C276.325 32.7707 274.81 35.0363 273.776 37.5297C272.743 40.0231 272.211 42.6955 272.211 45.3943V240.197C272.211 242.896 272.743 245.568 273.776 248.062C274.81 250.555 276.325 252.821 278.234 254.729C280.144 256.637 282.411 258.151 284.906 259.184C287.402 260.217 290.076 260.748 292.777 260.748H368.06C370.761 260.748 373.435 260.217 375.93 259.184C378.425 258.151 380.692 256.637 382.602 254.729C384.512 252.821 386.027 250.555 387.06 248.062C388.094 245.568 388.626 242.896 388.626 240.197V106.179H389.923V80.903Z" fill="#3F3D56"/>
<path d="M384.248 45.5356V240.055C384.248 242.07 383.851 244.066 383.079 245.928C382.307 247.79 381.175 249.482 379.749 250.907C378.322 252.332 376.629 253.462 374.765 254.233C372.902 255.003 370.904 255.4 368.887 255.399H293.242C291.225 255.399 289.228 255.002 287.365 254.231C285.502 253.46 283.809 252.33 282.383 250.905C280.958 249.48 279.826 247.789 279.055 245.927C278.283 244.065 277.886 242.07 277.886 240.055V45.5356C277.886 43.5204 278.283 41.5251 279.055 39.6633C279.826 37.8016 280.958 36.11 282.383 34.6851C283.809 33.2602 285.502 32.1299 287.365 31.3589C289.228 30.5878 291.225 30.191 293.242 30.1912H302.422C301.971 31.2984 301.8 32.4993 301.922 33.6882C302.045 34.8772 302.458 36.0178 303.126 37.0097C303.793 38.0016 304.694 38.8144 305.75 39.3767C306.805 39.939 307.983 40.2335 309.179 40.2343H352.307C353.504 40.2354 354.682 39.9422 355.739 39.3804C356.795 38.8187 357.697 38.0057 358.365 37.0132C359.033 36.0207 359.446 34.8793 359.568 33.6895C359.69 32.4998 359.517 31.2983 359.064 30.1912H368.887C370.904 30.1904 372.902 30.5868 374.765 31.3576C376.629 32.1284 378.322 33.2585 379.749 34.6835C381.175 36.1084 382.307 37.8002 383.079 39.6622C383.851 41.5243 384.248 43.52 384.248 45.5356Z" fill="white"/>
<path d="M360.717 146.618H294.227C293.063 146.617 291.946 146.154 291.123 145.331C290.299 144.508 289.836 143.392 289.835 142.228V140.044C289.836 138.88 290.299 137.764 291.123 136.941C291.946 136.118 293.063 135.655 294.227 135.654H360.717C361.882 135.655 362.999 136.118 363.822 136.941C364.646 137.764 365.109 138.88 365.11 140.044V142.228C365.109 143.392 364.646 144.508 363.822 145.331C362.999 146.154 361.882 146.617 360.717 146.618Z" fill="#F0F0F0"/>
<path d="M360.717 165.452H294.227C293.063 165.451 291.946 164.988 291.123 164.165C290.299 163.342 289.836 162.226 289.835 161.063V158.878C289.836 157.714 290.299 156.598 291.123 155.775C291.946 154.952 293.063 154.49 294.227 154.488H360.717C361.882 154.49 362.999 154.952 363.822 155.775C364.646 156.598 365.109 157.714 365.11 158.878V161.063C365.109 162.226 364.646 163.342 363.822 164.165C362.999 164.988 361.882 165.451 360.717 165.452Z" fill="#F0F0F0"/>
<path d="M364.043 142.406H297.553C296.33 142.404 295.158 141.918 294.293 141.054C293.429 140.19 292.942 139.019 292.941 137.797V135.612C292.942 134.39 293.429 133.218 294.293 132.354C295.158 131.49 296.33 131.004 297.553 131.003H364.043C365.266 131.004 366.439 131.49 367.303 132.354C368.168 133.218 368.654 134.39 368.656 135.612V137.797C368.654 139.019 368.168 140.19 367.303 141.054C366.439 141.918 365.266 142.404 364.043 142.406ZM297.553 131.881C296.563 131.882 295.614 132.275 294.914 132.975C294.214 133.674 293.821 134.623 293.82 135.612V137.797C293.821 138.786 294.214 139.734 294.914 140.434C295.614 141.133 296.563 141.527 297.553 141.528H364.043C365.033 141.527 365.982 141.133 366.682 140.434C367.382 139.734 367.776 138.786 367.777 137.797V135.612C367.776 134.623 367.382 133.674 366.682 132.975C365.982 132.275 365.033 131.882 364.043 131.881H297.553Z" fill="#3F3D56"/>
<path d="M364.043 161.24H297.553C296.33 161.239 295.158 160.753 294.293 159.889C293.429 159.025 292.942 157.853 292.941 156.631V154.446C292.942 153.224 293.429 152.053 294.293 151.189C295.158 150.325 296.33 149.839 297.553 149.837H364.043C365.266 149.839 366.439 150.325 367.303 151.189C368.168 152.053 368.654 153.224 368.656 154.446V156.631C368.654 157.853 368.168 159.025 367.303 159.889C366.439 160.753 365.266 161.239 364.043 161.24ZM297.553 150.715C296.563 150.716 295.614 151.11 294.914 151.809C294.214 152.509 293.821 153.457 293.82 154.446V156.631C293.821 157.62 294.214 158.569 294.914 159.268C295.614 159.968 296.563 160.361 297.553 160.362H364.043C365.033 160.361 365.982 159.968 366.682 159.268C367.382 158.569 367.776 157.62 367.777 156.631V154.446C367.776 153.457 367.382 152.509 366.682 151.809C365.982 151.11 365.033 150.716 364.043 150.715H297.553Z" fill="#3F3D56"/>
<path d="M384.248 45.5356V87.8462C377.52 89.6149 370.476 89.8178 363.658 88.4393C356.839 87.0608 350.428 84.1377 344.917 79.8947C339.407 75.6518 334.943 70.2021 331.871 63.9651C328.799 57.728 327.199 50.8698 327.195 43.918C327.195 42.6772 327.245 41.4493 327.345 40.2343H352.307C353.504 40.2354 354.682 39.9422 355.739 39.3804C356.795 38.8187 357.697 38.0057 358.365 37.0132C359.033 36.0207 359.446 34.8793 359.568 33.6895C359.69 32.4998 359.517 31.2983 359.064 30.1912H368.887C370.904 30.1904 372.902 30.5868 374.765 31.3576C376.629 32.1284 378.322 33.2585 379.749 34.6835C381.175 36.1084 382.307 37.8002 383.079 39.6622C383.851 41.5243 384.248 43.52 384.248 45.5356Z" fill="#F0F0F0"/>
<path d="M316.108 252.757C316.108 253.649 316.075 254.529 316.003 255.399H293.242C291.225 255.399 289.228 255.002 287.365 254.231C285.502 253.46 283.809 252.33 282.383 250.905C280.958 249.48 279.826 247.789 279.055 245.927C278.283 244.065 277.886 242.07 277.886 240.055V219.248C282.657 218.628 287.506 219.032 292.109 220.431C296.712 221.831 300.963 224.195 304.58 227.366C308.197 230.536 311.096 234.441 313.083 238.819C315.071 243.197 316.103 247.949 316.108 252.757Z" fill="#6C63FF"/>
<path d="M132.531 216.249C133.17 216.53 133.895 216.546 134.547 216.294C135.198 216.042 135.723 215.541 136.006 214.903L156.51 168.464C156.98 167.402 157.123 166.224 156.922 165.08C156.722 163.935 156.186 162.876 155.383 162.037C154.58 161.197 153.546 160.614 152.411 160.361C151.277 160.108 150.093 160.198 149.009 160.618C147.757 161.096 146.709 161.992 146.044 163.155C145.938 163.339 145.842 163.528 145.756 163.723L125.252 210.161C125.112 210.478 125.036 210.818 125.028 211.164C125.02 211.51 125.08 211.854 125.205 212.176C125.331 212.499 125.518 212.794 125.757 213.044C125.996 213.294 126.282 213.494 126.599 213.634L132.531 216.249Z" fill="#6C63FF"/>
<path d="M155.669 187.53L135.387 183.026L140.407 169.755C141.262 166.512 143.252 163.682 146.016 161.779C148.781 159.876 152.136 159.026 155.473 159.384L155.669 159.405L155.669 187.53Z" fill="#2F2E41"/>
<path d="M196.634 216.913C196.038 216.912 195.454 216.739 194.954 216.413C194.455 216.088 194.06 215.625 193.818 215.08L173.313 168.641C172.661 167.164 172.601 165.493 173.144 163.972C173.687 162.451 174.793 161.196 176.234 160.465C177.675 159.734 179.342 159.583 180.891 160.043C182.44 160.502 183.754 161.538 184.563 162.936C184.676 163.134 184.779 163.337 184.871 163.545L205.376 209.984C205.705 210.73 205.724 211.575 205.429 212.335C205.135 213.095 204.55 213.707 203.804 214.036L197.671 216.739L197.668 216.733C197.336 216.852 196.987 216.913 196.634 216.913Z" fill="#6C63FF"/>
<path d="M168.271 200.967C167.572 200.967 166.902 201.245 166.408 201.739C165.914 202.233 165.636 202.902 165.636 203.6V257.598C165.636 258.296 165.914 258.965 166.408 259.459C166.902 259.953 167.572 260.231 168.271 260.232H174.755C175.453 260.231 176.123 259.953 176.617 259.459C177.111 258.965 177.389 258.296 177.39 257.598V203.6C177.389 202.902 177.111 202.233 176.617 201.739C176.123 201.245 175.453 200.967 174.755 200.967H168.271Z" fill="#6C63FF"/>
<path d="M155.448 200.967C154.749 200.967 154.079 201.245 153.585 201.739C153.091 202.233 152.813 202.902 152.812 203.6V257.598C152.813 258.296 153.091 258.965 153.585 259.459C154.079 259.953 154.749 260.231 155.448 260.232H161.931C162.63 260.231 163.3 259.953 163.794 259.459C164.288 258.965 164.566 258.296 164.567 257.598V203.6C164.566 202.902 164.288 202.233 163.794 201.739C163.3 201.245 162.63 200.967 161.931 200.967H155.448Z" fill="#6C63FF"/>
<path d="M164.908 144.395C177.28 144.395 187.31 134.372 187.31 122.008C187.31 109.644 177.28 99.6216 164.908 99.6216C152.535 99.6216 142.505 109.644 142.505 122.008C142.505 134.372 152.535 144.395 164.908 144.395Z" fill="#6C63FF"/>
<path d="M172.363 131.406C173.815 131.365 175.622 131.315 177.015 130.299C177.429 129.984 177.77 129.582 178.013 129.121C178.255 128.661 178.395 128.153 178.42 127.633C178.445 127.264 178.385 126.893 178.243 126.551C178.101 126.209 177.882 125.904 177.603 125.661C176.876 125.047 175.814 124.903 174.669 125.239L175.855 116.58L174.985 116.461L173.591 126.64L174.318 126.307C175.16 125.921 176.317 125.724 177.036 126.331C177.212 126.49 177.35 126.687 177.438 126.908C177.526 127.128 177.561 127.366 177.542 127.602C177.521 127.989 177.416 128.367 177.236 128.71C177.056 129.053 176.803 129.353 176.496 129.59C175.413 130.381 173.972 130.483 172.338 130.528L172.363 131.406Z" fill="#2F2E41"/>
<path d="M184.891 117.327H180.16V118.205H184.891V117.327Z" fill="#2F2E41"/>
<path d="M169.956 117.327H165.225V118.205H169.956V117.327Z" fill="#2F2E41"/>
<path d="M187.105 217.186L179.042 158.366C178.956 157.736 178.643 157.158 178.163 156.739C177.683 156.321 177.068 156.09 176.431 156.09H170.344C170.37 155.945 170.383 155.798 170.384 155.651V153.456C170.384 152.758 170.106 152.088 169.612 151.594C169.118 151.1 168.447 150.823 167.748 150.823H162.477C161.778 150.823 161.108 151.1 160.614 151.594C160.119 152.088 159.842 152.758 159.842 153.456V155.651C159.842 155.798 159.856 155.945 159.881 156.09H153.795C153.158 156.09 152.542 156.321 152.062 156.739C151.582 157.158 151.27 157.736 151.183 158.366L143.12 217.186C143.069 217.559 143.099 217.938 143.206 218.298C143.314 218.659 143.498 218.992 143.745 219.275C143.993 219.558 144.298 219.786 144.641 219.941C144.983 220.097 145.355 220.177 145.731 220.177H184.494C184.87 220.177 185.242 220.097 185.585 219.941C185.927 219.786 186.233 219.558 186.48 219.275C186.727 218.992 186.911 218.659 187.019 218.298C187.127 217.938 187.156 217.559 187.105 217.186Z" fill="#2F2E41"/>
<path d="M174.557 187.529V159.405L174.752 159.383C178.094 159.026 181.453 159.879 184.219 161.786C186.985 163.694 188.974 166.529 189.826 169.778L194.839 183.025L174.557 187.529Z" fill="#2F2E41"/>
<path d="M163.779 145.093L148.284 139.083C145.75 138.101 143.202 137.148 140.682 136.131C139.602 135.755 138.608 135.169 137.756 134.408C137.014 133.623 136.508 132.645 136.297 131.586C135.76 129.317 135.857 126.835 135.895 124.518C135.925 121.984 136.133 119.455 136.52 116.95C137.196 112.243 138.785 107.714 141.198 103.615C145.543 96.4899 153.03 91.1294 161.643 91.5572C165.63 91.7553 169.64 93.1849 172.602 95.909C172.911 96.278 173.258 96.6138 173.636 96.9109C173.9 97.0096 174.186 97.0288 174.46 96.9662C174.822 96.9429 175.184 96.9252 175.546 96.9129C176.802 96.86 178.061 96.9127 179.308 97.0707C181.582 97.3161 183.736 98.2102 185.515 99.6461C186.996 100.919 188.2 102.715 188.324 104.712C188.384 105.628 188.232 106.546 187.881 107.395C187.529 108.243 186.988 109 186.297 109.606C184.449 111.163 181.811 110.616 179.593 110.498L171.47 110.068L167.354 109.85C166.506 109.806 166.509 111.123 167.354 111.167L178.294 111.747C180.052 111.84 181.864 112.068 183.623 111.962C184.975 111.901 186.266 111.382 187.283 110.491C188.213 109.638 188.905 108.558 189.293 107.358C189.681 106.158 189.751 104.878 189.496 103.643C188.932 100.949 186.925 98.7199 184.573 97.3941C181.373 95.5901 177.55 95.4172 173.969 95.6839L174.435 95.8768C170.384 91.5319 164.179 89.6975 158.353 90.3395C152.203 91.0173 146.732 94.4462 142.801 99.135C138.419 104.363 136.031 110.881 135.103 117.584C134.62 121.203 134.46 124.858 134.627 128.505C134.621 130.114 134.896 131.711 135.441 133.224C136.063 134.697 137.188 135.902 138.615 136.625C140.251 137.414 141.933 138.104 143.652 138.692L149.361 140.907L160.575 145.256L163.429 146.363C164.22 146.67 164.563 145.397 163.779 145.093Z" fill="#2F2E41"/>
<path d="M139.416 100.343C138.069 100.343 136.753 99.944 135.633 99.1964C134.513 98.4488 133.641 97.3862 133.125 96.143C132.61 94.8997 132.475 93.5317 132.738 92.2119C133.001 90.8921 133.649 89.6798 134.601 88.7283C135.554 87.7767 136.767 87.1287 138.087 86.8662C139.408 86.6037 140.777 86.7384 142.021 87.2534C143.265 87.7683 144.329 88.6404 145.077 89.7593C145.825 90.8782 146.224 92.1936 146.224 93.5393C146.222 95.3431 145.504 97.0725 144.228 98.348C142.951 99.6235 141.221 100.341 139.416 100.343ZM139.416 88.0523C138.33 88.0523 137.268 88.3741 136.365 88.9771C135.462 89.58 134.758 90.4369 134.343 91.4395C133.927 92.4421 133.819 93.5453 134.03 94.6097C134.242 95.6741 134.765 96.6517 135.533 97.4191C136.301 98.1865 137.279 98.709 138.345 98.9208C139.41 99.1325 140.514 99.0238 141.517 98.6085C142.52 98.1932 143.378 97.49 143.981 96.5876C144.585 95.6853 144.907 94.6245 144.907 93.5393C144.905 92.0845 144.326 90.6899 143.297 89.6612C142.267 88.6326 140.871 88.054 139.416 88.0523Z" fill="#2F2E41"/>
<path d="M253.231 142.507L238.494 131.244L227.223 145.97L241.96 157.233L253.231 142.507Z" fill="#F0F0F0"/>
<path d="M169.945 41.9622C172.273 41.9603 174.57 42.5034 176.65 43.5478C178.731 44.5923 180.538 46.1091 181.927 47.9768L190.532 36.7335L164.712 17L144.965 42.8013L156.093 51.3064C157.207 48.5464 159.12 46.1821 161.589 44.5171C164.057 42.8521 166.967 41.9624 169.945 41.9622Z" fill="#F0F0F0"/>
<path d="M341.87 188.164H310.303C309.139 188.163 308.022 187.7 307.199 186.877C306.375 186.054 305.912 184.938 305.911 183.775V181.59C305.912 180.426 306.375 179.31 307.199 178.487C308.022 177.664 309.139 177.202 310.303 177.2H341.87C343.034 177.202 344.151 177.664 344.974 178.487C345.798 179.31 346.261 180.426 346.262 181.59V183.775C346.261 184.938 345.798 186.054 344.974 186.877C344.151 187.7 343.034 188.163 341.87 188.164Z" fill="#6C63FF"/>
<path d="M345.196 183.952H313.629C312.406 183.951 311.234 183.465 310.369 182.601C309.505 181.736 309.018 180.565 309.017 179.343V177.158C309.018 175.936 309.505 174.765 310.369 173.901C311.234 173.036 312.406 172.55 313.629 172.549H345.196C346.419 172.55 347.591 173.036 348.456 173.901C349.32 174.765 349.807 175.936 349.808 177.158V179.343C349.807 180.565 349.32 181.736 348.456 182.601C347.591 183.465 346.419 183.951 345.196 183.952ZM313.629 173.427C312.639 173.428 311.69 173.822 310.99 174.521C310.29 175.22 309.897 176.169 309.895 177.158V179.343C309.897 180.332 310.29 181.281 310.99 181.98C311.69 182.68 312.639 183.073 313.629 183.074H345.196C346.186 183.073 347.135 182.68 347.835 181.98C348.535 181.281 348.929 180.332 348.93 179.343V177.158C348.929 176.169 348.535 175.22 347.835 174.521C347.135 173.822 346.186 173.428 345.196 173.427H313.629Z" fill="#3F3D56"/>
</svg>
