<svg width="402" height="320" viewBox="0 0 402 320" fill="none" xmlns="http://www.w3.org/2000/svg">
<path d="M544 -116.468C544 -59.2732 534.947 -2.63843 517.358 50.2027C499.769 103.044 473.988 151.057 441.487 191.499C408.987 231.942 370.403 264.023 327.939 285.911C285.475 307.798 239.963 319.064 194 319.064C148.037 319.064 102.525 307.798 60.0608 285.911C17.5968 264.023 -20.9869 231.942 -53.4874 191.499C-85.9879 151.057 -111.769 103.044 -129.358 50.2027C-146.947 -2.63847 -156 -59.2733 -156 -116.468L194 -116.468L544 -116.468Z" fill="white"/>
<path d="M297.572 204.908H109.506C106.907 204.908 104.792 202.807 104.792 200.223V185.822C104.792 183.238 106.907 181.136 109.506 181.136H297.572C300.172 181.136 302.286 183.238 302.286 185.822V200.223C302.286 202.807 300.172 204.908 297.572 204.908Z" fill="white" stroke="#BAB7C9" stroke-width="2" stroke-linecap="round" stroke-linejoin="round"/>
<path d="M274.819 279.806L268.333 283.927L274.215 293.072L280.701 288.95L274.819 279.806Z" fill="#F1A1A4"/>
<path d="M254.249 156.877L246.055 159.658L245.927 147.899L253.383 147.816L254.249 156.877Z" fill="#F1A1A4"/>
<path d="M259.236 144.881C260.049 144.276 261.021 143.765 262.03 143.878C263.123 143.994 264.053 144.881 264.344 145.933C264.635 146.986 264.333 148.151 263.671 149.023C263.01 149.894 262.015 150.473 260.956 150.77C260.344 150.943 259.675 151.014 259.085 150.77C258.219 150.409 257.743 149.323 258.072 148.448" fill="#2F2E43"/>
<path d="M228.746 221.818C228.232 224.498 229.256 226.933 231.041 227.252C232.822 227.572 234.686 225.655 235.204 222.976C235.427 221.908 235.378 220.803 235.06 219.755L241.363 177.754L232.871 176.265L230.077 218.868C229.392 219.74 228.935 220.751 228.746 221.829L228.746 221.818Z" fill="#F1A1A4"/>
<path d="M245.904 154.261L240.119 154.325C236.036 154.983 234.95 157.166 234.069 161.18C232.72 167.302 230.995 175.461 231.358 175.574C231.937 175.762 241.832 180.257 246.842 179.144L245.908 154.261L245.904 154.261Z" fill="#6C63FF"/>
<path d="M253.009 287.756L245.311 287.841L245.433 298.694L253.131 298.609L253.009 287.756Z" fill="#F1A1A4"/>
<path d="M237.99 305.35C237.177 305.362 236.463 305.35 235.918 305.305C233.869 305.144 231.907 303.663 230.912 302.799C230.466 302.412 230.319 301.78 230.542 301.239C230.701 300.852 231.026 300.555 231.434 300.431L236.822 298.838L245.507 292.873L245.605 293.046C245.643 293.11 246.52 294.64 246.819 295.677C246.933 296.072 246.91 296.399 246.744 296.654C246.63 296.831 246.471 296.936 246.343 297C246.502 297.161 247.001 297.492 248.536 297.718C250.767 298.048 251.216 295.741 251.232 295.643L251.247 295.564L251.311 295.519C252.366 294.824 253.012 294.512 253.239 294.576C253.383 294.613 253.614 294.685 254.317 300.938C254.381 301.134 254.843 302.569 254.555 303.952C254.245 305.456 247.647 305.008 246.331 304.907C246.294 304.911 241.363 305.317 237.983 305.35H237.994L237.99 305.35Z" fill="#2F2E43"/>
<path d="M266.413 303.547C265.509 303.558 264.677 303.456 264.083 303.359C263.501 303.261 263.04 302.806 262.942 302.227C262.866 301.81 262.991 301.393 263.267 301.077L266.987 296.891L271.177 287.262L271.354 287.356C271.419 287.39 272.976 288.228 273.786 288.95C274.092 289.224 274.247 289.514 274.247 289.822C274.247 290.032 274.167 290.205 274.088 290.322C274.311 290.374 274.909 290.389 276.33 289.777C278.398 288.882 277.551 286.688 277.514 286.601L277.483 286.526L277.517 286.458C278.043 285.316 278.429 284.707 278.652 284.639C278.795 284.602 279.026 284.53 282.955 289.468C283.113 289.6 284.27 290.573 284.762 291.896C285.295 293.336 279.468 296.425 278.289 297.03C278.255 297.06 272.163 301.558 269.66 302.848C268.666 303.359 267.483 303.528 266.405 303.535L266.416 303.547L266.413 303.547Z" fill="#2F2E43"/>
<path d="M257.648 196.909L236.096 197.146L234.364 217.094L243.745 290.634L254.748 290.51L249.874 248.031L268.152 286.233L277.854 279.318L263.516 243.623C263.516 243.623 268.148 212.34 264.148 204.606C260.151 196.871 257.652 196.898 257.652 196.898V196.909L257.648 196.909Z" fill="#2F2E43"/>
<path d="M268.379 198.006L234.149 198.386L243.927 154.288L258.843 154.119L268.379 198.006Z" fill="#6C63FF"/>
<path d="M271.721 221.344C272.296 224.017 271.324 226.471 269.551 226.828C267.774 227.188 265.868 225.313 265.297 222.641C265.051 221.577 265.074 220.473 265.365 219.417L258.121 177.562L266.575 175.886L270.322 218.421C271.025 219.277 271.506 220.281 271.721 221.352V221.344Z" fill="#F1A1A4"/>
<path d="M253.062 154.182L258.847 154.119C262.942 154.69 264.076 156.847 265.051 160.842C266.537 166.934 268.439 175.048 268.084 175.172C267.505 175.367 257.72 180.08 252.687 179.08L253.069 154.182L253.062 154.182Z" fill="#6C63FF"/>
<path d="M246.883 151.146C251.409 151.146 255.077 147.5 255.077 143.002C255.077 138.504 251.409 134.858 246.883 134.858C242.358 134.858 238.69 138.504 238.69 143.002C238.69 147.5 242.358 151.146 246.883 151.146Z" fill="#F1A1A4"/>
<path d="M249.126 142.171C247.757 142.145 246.838 140.781 246.29 139.526C245.742 138.278 245.178 136.835 243.904 136.327C242.86 135.914 241.061 138.8 240.229 138.049C239.363 137.263 240.153 133.159 241.057 132.419C241.961 131.679 243.201 131.521 244.365 131.449C247.22 131.288 250.09 131.483 252.895 132.036C254.627 132.374 256.419 132.896 257.678 134.125C259.278 135.685 259.709 138.06 259.845 140.281C259.989 142.555 259.879 144.937 258.79 146.944C257.697 148.947 255.387 150.439 253.145 149.958C252.907 148.752 253.118 147.516 253.194 146.283C253.27 145.058 253.16 143.735 252.396 142.765C251.632 141.796 250.022 141.427 249.156 142.303" fill="#2F2E43"/>
<path d="M297.572 116.13H109.506C106.907 116.13 104.792 114.028 104.792 111.445V97.0432C104.792 94.4596 106.907 92.3577 109.506 92.3577H297.572C300.172 92.3577 302.286 94.4596 302.286 97.0432V111.445C302.286 114.028 300.172 116.13 297.572 116.13Z" fill="white" stroke="#BAB7C9" stroke-width="2" stroke-linecap="round" stroke-linejoin="round"/>
<path d="M105.205 156.358H181.826" stroke="#BAB7C9" stroke-width="2" stroke-linecap="round" stroke-linejoin="round"/>
<path d="M105.205 67.5795H146.452" stroke="#BAB7C9" stroke-width="2" stroke-linecap="round" stroke-linejoin="round"/>
<path d="M164.065 268.65H108.923C106.324 268.65 104.209 266.548 104.209 263.965V249.563C104.209 246.98 106.324 244.878 108.923 244.878H164.065C166.664 244.878 168.779 246.98 168.779 249.563V263.965C168.779 266.548 166.664 268.65 164.065 268.65Z" fill="#6C63FF"/>
</svg>
