<svg width="402" height="332" viewBox="0 0 402 332" fill="none" xmlns="http://www.w3.org/2000/svg">
<path d="M589 -70C589 -17.2086 578.977 35.0659 559.503 83.8387C540.03 132.612 511.487 176.928 475.504 214.257C439.521 251.586 396.803 281.197 349.79 301.4C302.776 321.602 252.387 332 201.5 332C150.613 332 100.224 321.602 53.2101 301.4C6.19649 281.197 -36.5212 251.586 -72.5039 214.257C-108.487 176.928 -137.03 132.612 -156.503 83.8387C-175.977 35.0658 -186 -17.2086 -186 -70L201.5 -70H589Z" fill="white"/>
<g clip-path="url(#clip0_68_47)">
<path d="M192.534 32.1779L183.997 36.8454L78.8149 94.3499L70.2776 99.0174C66.135 101.288 63.0605 105.113 61.7287 109.652C60.3969 114.192 60.9165 119.075 63.1736 123.231L141.5 267.073C143.766 271.224 147.584 274.305 152.114 275.639C156.644 276.974 161.518 276.453 165.665 274.192L165.687 274.18L287.9 207.364L287.922 207.352C292.065 205.081 295.139 201.257 296.471 196.717C297.803 192.178 297.283 187.294 295.026 183.138L216.7 39.2963C214.433 35.1454 210.616 32.0647 206.086 30.7303C201.556 29.3958 196.682 29.9164 192.534 32.1779Z" fill="#F2F2F2"/>
<path d="M194.99 36.6872L184.878 42.2155L82.8447 97.9985L72.7329 103.527C69.7829 105.144 67.5935 107.868 66.6451 111.1C65.6966 114.333 66.0667 117.81 67.6739 120.77L146.001 264.612C147.614 267.568 150.333 269.762 153.559 270.712C156.785 271.662 160.256 271.292 163.209 269.681L163.231 269.669L285.444 202.854L285.466 202.842C288.416 201.224 290.605 198.501 291.554 195.268C292.502 192.036 292.132 188.558 290.525 185.599L212.198 41.7564C210.584 38.8004 207.866 36.6067 204.64 35.6563C201.414 34.706 197.943 35.0768 194.99 36.6872Z" fill="white"/>
<path d="M196.676 81.3359L151.095 106.256C150.405 106.633 149.593 106.72 148.838 106.498C148.083 106.276 147.448 105.762 147.071 105.07C146.694 104.378 146.607 103.565 146.829 102.809C147.051 102.052 147.563 101.415 148.254 101.038L193.835 76.1183C194.525 75.7408 195.337 75.6536 196.092 75.8759C196.846 76.0982 197.482 76.6118 197.859 77.3037C198.235 77.9956 198.323 78.8091 198.101 79.5653C197.879 80.3215 197.366 80.9584 196.676 81.3359Z" fill="#F2F2F2"/>
<path d="M212.21 84.269L155.89 115.06C155.199 115.438 154.387 115.525 153.632 115.303C152.878 115.08 152.242 114.567 151.865 113.875C151.489 113.183 151.402 112.369 151.623 111.613C151.845 110.857 152.358 110.22 153.048 109.843L209.369 79.0514C209.711 78.8645 210.086 78.7469 210.473 78.7053C210.861 78.6637 211.252 78.6989 211.626 78.809C212 78.9191 212.348 79.1018 212.651 79.3468C212.954 79.5918 213.206 79.8942 213.393 80.2368C213.58 80.5794 213.697 80.9554 213.738 81.3435C213.78 81.7315 213.745 82.124 213.635 82.4984C213.525 82.8728 213.343 83.2219 213.098 83.5257C212.854 83.8295 212.552 84.0821 212.21 84.269Z" fill="#F2F2F2"/>
<path d="M132.357 95.8825L90.3338 118.857C90.003 119.038 89.7575 119.343 89.6512 119.705C89.5449 120.068 89.5866 120.457 89.767 120.789L107.661 153.651C107.842 153.982 108.146 154.228 108.508 154.335C108.87 154.441 109.259 154.4 109.589 154.219L151.612 131.244C151.943 131.063 152.189 130.758 152.295 130.396C152.401 130.034 152.359 129.644 152.179 129.312L134.285 96.4505C134.104 96.119 133.8 95.873 133.438 95.7665C133.076 95.6599 132.687 95.7017 132.357 95.8825Z" fill="#F2F2F2"/>
<path d="M219.292 123.032L157.467 156.833C157.125 157.02 156.75 157.137 156.363 157.179C155.976 157.22 155.584 157.185 155.21 157.075C154.836 156.965 154.488 156.782 154.185 156.537C153.882 156.292 153.63 155.99 153.443 155.647C153.257 155.305 153.139 154.929 153.098 154.541C153.056 154.153 153.091 153.76 153.201 153.386C153.311 153.011 153.493 152.662 153.738 152.358C153.982 152.055 154.284 151.802 154.626 151.615L216.451 117.815C217.141 117.437 217.953 117.35 218.708 117.572C219.462 117.795 220.098 118.308 220.475 119C220.851 119.692 220.938 120.506 220.717 121.262C220.495 122.018 219.982 122.655 219.292 123.032Z" fill="#F2F2F2"/>
<path d="M234.826 125.965L162.262 165.637C161.571 166.015 160.759 166.102 160.005 165.88C159.25 165.657 158.614 165.144 158.238 164.452C157.861 163.76 157.774 162.947 157.996 162.19C158.217 161.434 158.73 160.797 159.421 160.42L231.985 120.748C232.675 120.37 233.487 120.283 234.242 120.505C234.997 120.728 235.632 121.241 236.009 121.933C236.386 122.625 236.473 123.439 236.251 124.195C236.029 124.951 235.516 125.588 234.826 125.965Z" fill="#F2F2F2"/>
<path d="M133.922 184.514C140.871 184.514 146.505 178.869 146.505 171.906C146.505 164.942 140.871 159.298 133.922 159.298C126.972 159.298 121.339 164.942 121.339 171.906C121.339 178.869 126.972 184.514 133.922 184.514Z" fill="#F2F2F2"/>
<path d="M322.189 91.4473H182.919C178.197 91.4526 173.669 93.3345 170.331 96.6802C166.992 100.026 165.113 104.562 165.108 109.293V273.154C165.113 277.885 166.992 282.421 170.331 285.767C173.669 289.113 178.197 290.995 182.919 291H322.189C326.912 290.995 331.439 289.113 334.778 285.767C338.117 282.421 339.995 277.885 340 273.154V109.293C339.995 104.562 338.117 100.026 334.778 96.6802C331.439 93.3345 326.912 91.4526 322.189 91.4473Z" fill="#E6E6E6"/>
<path d="M322.19 96.5847H182.919C179.556 96.5885 176.332 97.9286 173.954 100.311C171.577 102.694 170.239 105.924 170.235 109.293V273.154C170.239 276.523 171.577 279.753 173.954 282.136C176.332 284.519 179.556 285.859 182.919 285.862H322.19C325.552 285.859 328.776 284.518 331.154 282.136C333.532 279.753 334.869 276.523 334.873 273.154V109.293C334.869 105.924 333.532 102.694 331.154 100.311C328.776 97.9287 325.552 96.5885 322.19 96.5847Z" fill="white"/>
<path d="M302.327 136.588H250.403C249.617 136.588 248.862 136.275 248.306 135.718C247.75 135.16 247.437 134.404 247.437 133.616C247.437 132.828 247.75 132.072 248.306 131.515C248.862 130.957 249.617 130.644 250.403 130.644H302.327C302.717 130.644 303.103 130.72 303.463 130.87C303.823 131.019 304.151 131.238 304.427 131.514C304.702 131.79 304.921 132.117 305.07 132.478C305.22 132.839 305.296 133.226 305.296 133.616C305.296 134.007 305.22 134.393 305.07 134.754C304.921 135.115 304.702 135.443 304.427 135.719C304.151 135.995 303.823 136.214 303.463 136.363C303.103 136.512 302.717 136.588 302.327 136.588Z" fill="#6C63FF"/>
<path d="M314.562 146.618H250.403C249.617 146.618 248.862 146.305 248.306 145.748C247.75 145.19 247.437 144.434 247.437 143.646C247.437 142.858 247.75 142.102 248.306 141.545C248.862 140.987 249.617 140.674 250.403 140.674H314.562C315.348 140.674 316.103 140.987 316.659 141.545C317.215 142.102 317.528 142.858 317.528 143.646C317.528 144.434 317.215 145.19 316.659 145.748C316.103 146.305 315.348 146.618 314.562 146.618Z" fill="#6C63FF"/>
<path d="M238.912 118.489H191.041C190.665 118.489 190.303 118.639 190.037 118.906C189.77 119.173 189.62 119.535 189.62 119.913V157.348C189.62 157.726 189.77 158.088 190.037 158.355C190.303 158.622 190.665 158.772 191.041 158.772H238.912C239.289 158.772 239.651 158.622 239.917 158.355C240.184 158.088 240.333 157.726 240.333 157.348V119.913C240.333 119.535 240.184 119.173 239.917 118.906C239.651 118.639 239.289 118.489 238.912 118.489Z" fill="#E6E6E6"/>
<path d="M204.173 141.477C204.192 144.637 203.03 147.69 200.914 150.034C198.821 152.336 195.705 153.862 192.56 153.231C189.665 152.649 187.312 150.113 187.605 147.045C187.654 146.381 187.847 145.735 188.17 145.153C188.493 144.571 188.94 144.066 189.477 143.675C190.015 143.283 190.632 143.013 191.285 142.885C191.937 142.757 192.61 142.772 193.255 142.931C196.006 143.646 197.102 147.619 194.81 149.483C194.26 149.931 193.47 149.148 194.025 148.697C195.54 147.464 195.072 144.768 193.243 144.091C191.114 143.304 188.858 144.997 188.704 147.179C188.523 149.765 190.5 151.713 192.925 152.171C195.548 152.667 198.149 151.322 199.926 149.465C201.963 147.309 203.087 144.446 203.062 141.477C203.067 141.333 203.128 141.196 203.232 141.096C203.335 140.995 203.474 140.939 203.618 140.939C203.762 140.939 203.9 140.995 204.004 141.096C204.107 141.196 204.168 141.333 204.173 141.477Z" fill="#2F2E41"/>
<path d="M215.014 148.549C225.953 148.549 234.821 139.664 234.821 128.703C234.821 117.742 225.953 108.856 215.014 108.856C204.075 108.856 195.207 117.742 195.207 128.703C195.207 139.664 204.075 148.549 215.014 148.549Z" fill="#6C63FF"/>
<path d="M214.001 137.171L213.98 136.429C215.357 136.391 216.571 136.304 217.483 135.636C217.742 135.436 217.955 135.183 218.107 134.893C218.259 134.603 218.347 134.284 218.365 133.957C218.381 133.757 218.351 133.557 218.277 133.37C218.203 133.184 218.087 133.018 217.938 132.884C217.332 132.371 216.358 132.537 215.648 132.863L215.035 133.145L216.21 124.545L216.943 124.646L215.944 131.961C216.909 131.677 217.803 131.799 218.416 132.317C218.651 132.523 218.835 132.78 218.955 133.069C219.074 133.358 219.125 133.671 219.104 133.983C219.083 134.422 218.965 134.852 218.761 135.241C218.556 135.63 218.269 135.969 217.92 136.235C216.748 137.094 215.225 137.136 214.001 137.171Z" fill="#2F2E41"/>
<path d="M224.556 125.277H220.57V126.019H224.556V125.277Z" fill="#2F2E41"/>
<path d="M211.973 125.277H207.987V126.019H211.973V125.277Z" fill="#2F2E41"/>
<path d="M204.043 158.772C205.527 157.828 207.132 157.089 208.813 156.573C208.653 156.002 208.655 155.397 208.82 154.827C209.044 154.106 209.493 153.478 210.102 153.035C210.711 152.592 211.447 152.358 212.199 152.368H217.025C217.779 152.358 218.516 152.593 219.126 153.036C219.736 153.48 220.187 154.109 220.412 154.83C220.577 155.399 220.579 156.003 220.419 156.573C222.1 157.089 223.704 157.829 225.189 158.772H204.043Z" fill="#2F2E41"/>
<path d="M237.702 121.337C237.341 120.899 236.897 120.537 236.396 120.273C235.956 120.043 235.467 119.922 234.971 119.92C234.289 119.929 233.628 120.152 233.08 120.558C231.573 121.626 230.53 123.929 230.53 126.595C230.53 129.94 232.173 132.714 234.308 133.196C234.526 133.245 234.748 133.27 234.971 133.27C237.417 133.27 239.412 130.278 239.412 126.595C239.412 124.459 238.742 122.557 237.702 121.337Z" fill="#3F3D56"/>
<path d="M197.022 120.399H197.018C196.524 120.091 195.954 119.925 195.371 119.92C194.875 119.922 194.387 120.043 193.947 120.273C193.445 120.537 193.001 120.899 192.64 121.337L192.636 121.341C191.6 122.561 190.93 124.463 190.93 126.595C190.93 129.473 192.144 131.928 193.847 132.866C194.313 133.128 194.837 133.267 195.371 133.27C195.49 133.27 195.609 133.263 195.727 133.248H195.73C198.01 132.974 199.813 130.096 199.813 126.595C199.813 123.792 198.654 121.385 197.022 120.399Z" fill="#3F3D56"/>
<path d="M194.124 132.228C194.212 132.228 194.299 132.207 194.378 132.166C194.456 132.126 194.524 132.068 194.575 131.996C194.626 131.924 194.66 131.841 194.673 131.754C194.686 131.667 194.678 131.577 194.65 131.494C193.589 128.332 193.27 124.968 193.718 121.663C194.165 118.358 195.367 115.201 197.23 112.437C199.094 109.673 201.568 107.377 204.46 105.727C207.353 104.077 210.587 103.117 213.91 102.923C217.233 102.729 220.556 103.305 223.621 104.607C226.685 105.909 229.409 107.901 231.58 110.429C233.752 112.957 235.312 115.953 236.14 119.183C236.968 122.414 237.041 125.792 236.355 129.056C236.324 129.2 236.352 129.35 236.433 129.474C236.513 129.598 236.639 129.684 236.783 129.715C236.927 129.745 237.078 129.717 237.201 129.636C237.324 129.556 237.411 129.43 237.441 129.285C238.164 125.854 238.087 122.302 237.216 118.905C236.346 115.509 234.706 112.359 232.423 109.701C230.14 107.042 227.277 104.948 224.054 103.579C220.832 102.21 217.338 101.604 213.844 101.809C210.351 102.013 206.951 103.022 203.909 104.757C200.868 106.492 198.267 108.907 196.308 111.813C194.35 114.719 193.086 118.039 192.616 121.514C192.146 124.989 192.482 128.526 193.598 131.849C193.635 131.96 193.706 132.055 193.801 132.123C193.895 132.191 194.008 132.228 194.124 132.228Z" fill="#3F3D56"/>
<path d="M224.964 115.844C225.748 116.917 225.362 118.362 224.535 119.287C223.46 120.491 221.745 120.567 220.256 120.343C218.586 120.093 216.814 119.308 215.122 119.837C213.681 120.287 212.652 121.597 211.154 121.927C209.826 122.218 208.238 121.832 207.772 120.414C207.548 119.732 208.62 119.44 208.843 120.118C209.144 121.035 210.445 121.017 211.19 120.763C212.384 120.356 213.304 119.365 214.478 118.891C215.862 118.333 217.363 118.585 218.772 118.903C220.1 119.203 221.629 119.647 222.952 119.087C223.931 118.673 224.709 117.368 224.005 116.405C223.583 115.827 224.546 115.272 224.964 115.844Z" fill="#2F2E41"/>
<path d="M302.249 184.045H231.821C231.431 184.045 231.046 183.968 230.686 183.818C230.326 183.669 229.999 183.45 229.723 183.174C229.448 182.898 229.23 182.571 229.081 182.21C228.931 181.849 228.855 181.463 228.855 181.073C228.855 180.682 228.931 180.296 229.081 179.935C229.23 179.575 229.448 179.247 229.723 178.971C229.999 178.695 230.326 178.476 230.686 178.327C231.046 178.178 231.431 178.101 231.821 178.101H302.249C303.035 178.102 303.789 178.415 304.344 178.972C304.9 179.53 305.212 180.285 305.212 181.073C305.212 181.86 304.9 182.616 304.344 183.173C303.789 183.73 303.035 184.044 302.249 184.045Z" fill="#E6E6E6"/>
<path d="M314.483 194.075H231.821C231.431 194.075 231.045 193.998 230.685 193.849C230.324 193.7 229.997 193.481 229.721 193.205C229.446 192.929 229.227 192.602 229.078 192.241C228.928 191.88 228.851 191.493 228.851 191.103C228.851 190.712 228.928 190.325 229.078 189.965C229.227 189.604 229.446 189.276 229.721 189C229.997 188.724 230.324 188.505 230.685 188.356C231.045 188.207 231.431 188.13 231.821 188.131H314.483C314.873 188.13 315.259 188.207 315.62 188.356C315.98 188.505 316.307 188.724 316.583 189C316.859 189.276 317.077 189.604 317.227 189.965C317.376 190.325 317.453 190.712 317.453 191.103C317.453 191.493 317.376 191.88 317.227 192.241C317.077 192.602 316.859 192.929 316.583 193.205C316.307 193.481 315.98 193.7 315.62 193.849C315.259 193.998 314.873 194.075 314.483 194.075Z" fill="#E6E6E6"/>
<path d="M302.249 220.094H231.821C231.034 220.094 230.28 219.781 229.723 219.224C229.167 218.666 228.855 217.91 228.855 217.122C228.855 216.334 229.167 215.578 229.723 215.021C230.28 214.464 231.034 214.15 231.821 214.15H302.249C303.036 214.15 303.79 214.464 304.346 215.021C304.902 215.578 305.215 216.334 305.215 217.122C305.215 217.91 304.902 218.666 304.346 219.224C303.79 219.781 303.036 220.094 302.249 220.094Z" fill="#E6E6E6"/>
<path d="M314.483 230.124H231.821C231.034 230.124 230.28 229.811 229.723 229.254C229.167 228.696 228.855 227.94 228.855 227.152C228.855 226.364 229.167 225.608 229.723 225.051C230.28 224.494 231.034 224.18 231.821 224.18H314.483C315.27 224.18 316.024 224.494 316.581 225.051C317.137 225.608 317.449 226.364 317.449 227.152C317.449 227.94 317.137 228.696 316.581 229.254C316.024 229.811 315.27 230.124 314.483 230.124Z" fill="#E6E6E6"/>
<path d="M203.946 198.584C210.896 198.584 216.529 192.939 216.529 185.976C216.529 179.013 210.896 173.368 203.946 173.368C196.997 173.368 191.363 179.013 191.363 185.976C191.363 192.939 196.997 198.584 203.946 198.584Z" fill="#E6E6E6"/>
<path d="M203.946 234.926C210.896 234.926 216.529 229.281 216.529 222.317C216.529 215.354 210.896 209.709 203.946 209.709C196.997 209.709 191.363 215.354 191.363 222.317C191.363 229.281 196.997 234.926 203.946 234.926Z" fill="#E6E6E6"/>
<path d="M302.249 256.435H231.821C231.034 256.435 230.28 256.122 229.723 255.565C229.167 255.008 228.855 254.252 228.855 253.464C228.855 252.675 229.167 251.919 229.723 251.362C230.28 250.805 231.034 250.492 231.821 250.492H302.249C303.036 250.492 303.79 250.805 304.346 251.362C304.902 251.919 305.215 252.675 305.215 253.464C305.215 254.252 304.902 255.008 304.346 255.565C303.79 256.122 303.036 256.435 302.249 256.435Z" fill="#E6E6E6"/>
<path d="M314.483 266.465H231.821C231.034 266.465 230.28 266.152 229.723 265.595C229.167 265.038 228.855 264.282 228.855 263.494C228.855 262.705 229.167 261.95 229.723 261.392C230.28 260.835 231.034 260.522 231.821 260.522H314.483C315.27 260.522 316.024 260.835 316.581 261.392C317.137 261.95 317.449 262.705 317.449 263.494C317.449 264.282 317.137 265.038 316.581 265.595C316.024 266.152 315.27 266.465 314.483 266.465Z" fill="#E6E6E6"/>
<path d="M203.946 271.267C210.896 271.267 216.529 265.622 216.529 258.658C216.529 251.695 210.896 246.05 203.946 246.05C196.997 246.05 191.363 251.695 191.363 258.658C191.363 265.622 196.997 271.267 203.946 271.267Z" fill="#E6E6E6"/>
</g>
<defs>
<clipPath id="clip0_68_47">
<rect width="279" height="261" fill="white" transform="translate(61 30)"/>
</clipPath>
</defs>
</svg>
