<svg width="374" height="374" viewBox="0 0 374 374" fill="none" xmlns="http://www.w3.org/2000/svg">
<circle cx="187" cy="187" r="187" fill="white"/>
<g clip-path="url(#clip0_148_370)">
<path d="M221.848 180.206C220.849 180.204 219.888 179.824 219.159 179.141C218.43 178.459 217.989 177.526 217.923 176.531L217.339 167.623C217.271 166.583 217.619 165.558 218.308 164.774C218.997 163.99 219.969 163.512 221.012 163.443L290.933 158.873C293.158 158.729 295.349 159.473 297.024 160.941C298.7 162.409 299.723 164.481 299.869 166.702C300.015 168.922 299.271 171.11 297.801 172.784C296.332 174.457 294.257 175.48 292.032 175.627L222.111 180.197C222.023 180.203 221.935 180.206 221.848 180.206Z" fill="#6C63FF"/>
<path d="M235.635 181.354C234.617 181.353 233.638 180.958 232.905 180.252C232.172 179.547 231.74 178.585 231.701 177.569L231.203 164.265C231.183 163.749 231.266 163.234 231.446 162.75C231.626 162.266 231.9 161.822 232.251 161.444C232.603 161.065 233.026 160.76 233.497 160.545C233.967 160.329 234.475 160.209 234.992 160.189L292.489 158.044C293.533 158.006 294.55 158.382 295.316 159.091C296.082 159.801 296.534 160.784 296.573 161.826L297.071 175.131C297.09 175.647 297.008 176.162 296.828 176.646C296.648 177.13 296.374 177.574 296.022 177.952C295.67 178.331 295.247 178.636 294.777 178.851C294.307 179.067 293.799 179.187 293.282 179.206L235.784 181.351C235.734 181.353 235.684 181.354 235.635 181.354Z" fill="#2F2E41"/>
<path d="M303.013 304H294.069C293.025 303.999 292.024 303.584 291.286 302.847C290.547 302.11 290.132 301.111 290.131 300.069V225.667C290.132 224.625 290.547 223.626 291.286 222.889C292.024 222.152 293.025 221.737 294.069 221.736H303.013C304.058 221.737 305.059 222.152 305.797 222.889C306.536 223.626 306.951 224.625 306.952 225.667V300.069C306.951 301.111 306.536 302.11 305.797 302.847C305.059 303.584 304.058 303.999 303.013 304Z" fill="#2F2E41"/>
<path d="M280.558 304H271.614C270.569 303.999 269.568 303.584 268.83 302.847C268.091 302.11 267.676 301.111 267.675 300.069V225.667C267.676 224.625 268.091 223.626 268.83 222.889C269.568 222.152 270.569 221.737 271.614 221.736H280.558C281.602 221.737 282.603 222.152 283.341 222.889C284.08 223.626 284.495 224.625 284.496 225.667V300.069C284.495 301.111 284.08 302.11 283.341 302.847C282.603 303.584 281.602 303.999 280.558 304Z" fill="#2F2E41"/>
<path d="M289.429 144.09C306.497 144.09 320.334 130.28 320.334 113.244C320.334 96.2086 306.497 82.3984 289.429 82.3984C272.361 82.3984 258.525 96.2086 258.525 113.244C258.525 130.28 272.361 144.09 289.429 144.09Z" fill="#6C63FF"/>
<path d="M272.701 123.776C271.707 123.45 270.794 122.915 270.025 122.208C269.515 121.703 269.121 121.093 268.873 120.42C268.624 119.747 268.525 119.028 268.584 118.314C268.616 117.804 268.766 117.309 269.022 116.868C269.278 116.426 269.632 116.049 270.058 115.767C271.163 115.059 272.641 115.057 274.146 115.719L274.089 103.677L275.301 103.671L275.368 117.828L274.434 117.241C273.352 116.563 271.805 116.085 270.713 116.785C270.442 116.97 270.219 117.214 270.059 117.499C269.899 117.785 269.807 118.103 269.79 118.429C269.75 118.962 269.824 119.497 270.009 119.998C270.194 120.499 270.485 120.954 270.862 121.333C272.2 122.609 274.152 123.008 276.379 123.364L276.187 124.559C275.004 124.402 273.837 124.14 272.701 123.776Z" fill="#2F2E41"/>
<path d="M261.597 103.07L261.438 104.269L267.909 105.122L268.068 103.923L261.597 103.07Z" fill="#2F2E41"/>
<path d="M282.022 105.76L281.863 106.959L288.334 107.812L288.493 106.613L282.022 105.76Z" fill="#2F2E41"/>
<path d="M263.122 245.629C261.756 245.628 260.447 245.086 259.481 244.122C258.515 243.158 257.972 241.851 257.971 240.488C257.971 240.488 266.182 196.019 270.875 169.955C271.787 164.887 274.455 160.3 278.412 156.996C282.369 153.693 287.364 151.883 292.523 151.882C299.913 151.882 306.999 154.812 312.225 160.028C317.45 165.243 320.385 172.316 320.385 179.692V188.474C320.385 203.633 314.352 218.17 303.613 228.889C292.874 239.608 278.309 245.629 263.122 245.629Z" fill="#2F2E41"/>
<path d="M302.112 241.178C301.795 241.867 301.285 242.451 300.644 242.859C300.002 243.266 299.256 243.48 298.496 243.474L289.552 243.397C289.035 243.392 288.524 243.286 288.048 243.084C287.571 242.883 287.14 242.589 286.777 242.221C286.415 241.853 286.128 241.417 285.935 240.938C285.741 240.46 285.643 239.948 285.648 239.431L286.255 169.496C286.264 168.393 286.491 167.303 286.922 166.288C287.353 165.272 287.981 164.352 288.769 163.579C289.556 162.805 290.489 162.195 291.514 161.781C292.538 161.368 293.634 161.16 294.739 161.17C295.843 161.179 296.936 161.406 297.953 161.837C298.97 162.268 299.892 162.895 300.666 163.682C301.44 164.468 302.051 165.4 302.465 166.422C302.878 167.445 303.086 168.539 303.076 169.642L302.469 239.577C302.464 240.13 302.343 240.675 302.112 241.178Z" fill="#6C63FF"/>
<path d="M306.063 222.508C305.746 223.198 305.236 223.782 304.595 224.189C303.953 224.596 303.207 224.81 302.447 224.804L287.171 224.672C286.127 224.662 285.129 224.239 284.397 223.495C283.665 222.752 283.259 221.749 283.266 220.707L283.765 163.28C283.77 162.764 283.876 162.253 284.078 161.778C284.28 161.303 284.574 160.872 284.943 160.51C285.312 160.148 285.749 159.862 286.228 159.669C286.708 159.475 287.221 159.378 287.738 159.383L303.014 159.515C303.531 159.519 304.042 159.625 304.519 159.827C304.995 160.029 305.426 160.322 305.789 160.69C306.152 161.059 306.438 161.494 306.632 161.973C306.825 162.452 306.923 162.964 306.918 163.48L306.42 220.907C306.415 221.46 306.294 222.005 306.063 222.508Z" fill="#2F2E41"/>
<path d="M280.509 95.068C275.693 95.8838 270.316 96.8167 265.727 94.5877C262.115 92.8332 259.632 89.3291 260.511 85.2119C262.262 77.018 271.661 73.3954 279.214 74.1265C283.656 74.5404 287.833 76.4202 291.084 79.4686C291.238 79.6144 291.432 79.7126 291.641 79.7512C291.849 79.7898 292.065 79.7672 292.261 79.686C292.457 79.6049 292.626 79.4688 292.746 79.2941C292.867 79.1194 292.934 78.9136 292.939 78.7017C292.907 75.6781 295.173 73.1551 297.859 72.0162C301.221 70.5902 305.128 71.0998 308.583 71.8629C318.038 73.9675 326.625 78.9 333.198 86.0023C339.77 93.1046 344.017 102.039 345.37 111.613C346.333 118.352 345.817 125.221 343.858 131.742C342.025 137.753 338.639 143.795 333.065 147.065C328.042 150.012 320.738 150.771 316.103 146.637C312.39 143.325 310.716 137.133 313.762 132.849C314.66 131.606 315.877 130.629 317.286 130.021C318.695 129.413 320.242 129.197 321.764 129.396C323.203 129.623 324.546 130.257 325.635 131.224C326.724 132.19 327.512 133.448 327.906 134.848C328.195 136.193 328.106 137.591 327.648 138.888C327.191 140.185 326.382 141.33 325.313 142.197C324.514 142.77 323.606 143.175 322.645 143.387C321.684 143.598 320.69 143.613 319.723 143.428C318.756 143.244 317.837 142.866 317.022 142.315C316.206 141.765 315.512 141.055 314.98 140.228C314.242 139.046 312.361 140.134 313.104 141.323C313.956 142.654 315.125 143.755 316.505 144.528C317.886 145.301 319.436 145.722 321.018 145.754C322.596 145.783 324.152 145.392 325.529 144.623C326.905 143.854 328.052 142.733 328.852 141.375C329.709 139.99 330.186 138.404 330.235 136.777C330.283 135.149 329.901 133.537 329.127 132.104C328.28 130.642 327.075 129.42 325.623 128.553C324.172 127.685 322.523 127.201 320.833 127.147C319.079 127.133 317.348 127.545 315.789 128.348C314.231 129.151 312.891 130.319 311.886 131.754C310.259 134.236 309.659 137.25 310.212 140.164C310.702 143.128 312.139 145.854 314.309 147.935C316.821 150.205 320.055 151.517 323.441 151.642C330.81 152.062 337.387 147.825 341.451 141.935C345.668 135.824 347.554 128.156 347.934 120.824C348.321 113.352 347.015 105.888 344.112 98.9897C341.209 92.0909 336.785 85.9344 331.168 80.9785C325.827 76.3118 319.562 72.818 312.78 70.7235C306.067 68.671 296.694 67.1749 292.16 74.0211C291.238 75.4074 290.752 77.0376 290.766 78.7018L292.621 77.9349C286.062 71.6789 275.751 70.0981 267.561 73.9436C263.447 75.8751 259.881 79.4666 258.602 83.895C257.275 88.4898 259.194 92.9995 263.128 95.6054C268.483 99.1518 275.124 98.1698 281.087 97.1596C282.463 96.9265 281.879 94.8359 280.509 95.068Z" fill="#2F2E41"/>
<path d="M212.554 228.392H36.5825C33.7768 228.389 31.087 227.275 29.1031 225.295C27.1192 223.315 26.0032 220.63 26 217.83V112.809C26.0032 110.009 27.1192 107.324 29.1031 105.344C31.087 103.364 33.7768 102.25 36.5825 102.247H212.554C215.359 102.25 218.049 103.364 220.033 105.344C222.017 107.324 223.133 110.009 223.136 112.809V217.83C223.133 220.63 222.017 223.315 220.033 225.295C218.049 227.275 215.359 228.389 212.554 228.392ZM36.5825 104.057C34.2578 104.06 32.0291 104.983 30.3853 106.624C28.7415 108.264 27.8168 110.489 27.8141 112.809V217.83C27.8168 220.15 28.7415 222.375 30.3853 224.015C32.0291 225.656 34.2578 226.579 36.5825 226.581H212.554C214.878 226.579 217.107 225.656 218.751 224.015C220.395 222.375 221.319 220.15 221.322 217.83V112.809C221.319 110.489 220.395 108.264 218.751 106.624C217.107 104.983 214.878 104.06 212.554 104.057H36.5825Z" fill="#3F3D56"/>
<path d="M60.1662 126.993C58.6712 126.993 57.2098 126.551 55.9667 125.721C54.7236 124.892 53.7548 123.714 53.1827 122.336C52.6106 120.957 52.4609 119.44 52.7525 117.977C53.0442 116.513 53.7641 115.169 54.8213 114.114C55.8784 113.058 57.2253 112.34 58.6915 112.049C60.1578 111.758 61.6777 111.907 63.0589 112.478C64.4401 113.049 65.6206 114.016 66.4512 115.257C67.2818 116.498 67.7251 117.956 67.7251 119.448C67.7228 121.449 66.9257 123.366 65.5087 124.781C64.0916 126.195 62.1703 126.991 60.1662 126.993ZM60.1662 113.715C59.03 113.715 57.9193 114.051 56.9746 114.681C56.0299 115.311 55.2935 116.206 54.8587 117.254C54.4239 118.302 54.3102 119.455 54.5318 120.567C54.7535 121.679 55.3006 122.701 56.104 123.503C56.9075 124.305 57.9311 124.851 59.0455 125.072C60.1598 125.293 61.3149 125.18 62.3646 124.746C63.4143 124.312 64.3116 123.577 64.9428 122.634C65.574 121.691 65.911 120.582 65.911 119.448C65.9092 117.928 65.3034 116.471 64.2265 115.396C63.1495 114.321 61.6893 113.716 60.1662 113.715Z" fill="#3F3D56"/>
<path d="M187.76 126.993C186.265 126.993 184.804 126.551 183.561 125.721C182.318 124.892 181.349 123.714 180.777 122.336C180.205 120.957 180.055 119.44 180.347 117.977C180.638 116.513 181.358 115.169 182.415 114.114C183.472 113.058 184.819 112.34 186.286 112.049C187.752 111.758 189.272 111.907 190.653 112.478C192.034 113.049 193.215 114.016 194.045 115.257C194.876 116.498 195.319 117.956 195.319 119.448C195.317 121.449 194.52 123.366 193.103 124.781C191.686 126.195 189.764 126.991 187.76 126.993ZM187.76 113.715C186.624 113.715 185.513 114.051 184.569 114.681C183.624 115.311 182.888 116.206 182.453 117.254C182.018 118.302 181.904 119.455 182.126 120.567C182.348 121.679 182.895 122.701 183.698 123.503C184.502 124.305 185.525 124.851 186.64 125.072C187.754 125.293 188.909 125.18 189.959 124.746C191.008 124.312 191.906 123.577 192.537 122.634C193.168 121.691 193.505 120.582 193.505 119.448C193.503 117.928 192.898 116.471 191.821 115.396C190.744 114.321 189.283 113.716 187.76 113.715Z" fill="#3F3D56"/>
<path d="M78.0052 172.864H45.3507C43.988 172.862 42.6816 172.321 41.718 171.36C40.7544 170.398 40.2123 169.094 40.2107 167.734V148.42C40.2123 147.059 40.7544 145.756 41.718 144.794C42.6816 143.832 43.988 143.291 45.3507 143.289H78.0052C79.3679 143.291 80.6743 143.832 81.6379 144.794C82.6015 145.756 83.1436 147.059 83.1452 148.42V167.734C83.1436 169.094 82.6015 170.398 81.6379 171.36C80.6743 172.321 79.3679 172.862 78.0052 172.864Z" fill="#E6E6E6"/>
<path d="M140.895 172.864H108.241C106.878 172.862 105.572 172.321 104.608 171.36C103.644 170.398 103.102 169.094 103.101 167.734V148.42C103.102 147.059 103.644 145.756 104.608 144.794C105.572 143.832 106.878 143.291 108.241 143.289H140.895C142.258 143.291 143.564 143.832 144.528 144.794C145.492 145.756 146.034 147.059 146.035 148.42V167.734C146.034 169.094 145.492 170.398 144.528 171.36C143.564 172.321 142.258 172.862 140.895 172.864Z" fill="#E6E6E6"/>
<path d="M171.131 143.893C169.928 143.894 168.776 144.371 167.925 145.22C167.075 146.069 166.597 147.219 166.595 148.42V167.734C166.597 168.934 167.075 170.085 167.925 170.933C168.776 171.782 169.928 172.259 171.131 172.26H203.785C204.988 172.259 206.14 171.782 206.991 170.933C207.841 170.085 208.319 168.934 208.321 167.734V148.42C208.319 147.219 207.841 146.069 206.991 145.22C206.14 144.371 204.988 143.894 203.785 143.893H171.131Z" fill="#E6E6E6"/>
<path d="M78.3075 211.492H45.6531C44.2904 211.491 42.9839 210.95 42.0203 209.988C41.0567 209.026 40.5147 207.722 40.5131 206.362V187.048C40.5147 185.688 41.0567 184.384 42.0203 183.422C42.9839 182.46 44.2904 181.919 45.6531 181.917H78.3075C79.6703 181.919 80.9767 182.46 81.9403 183.422C82.9039 184.384 83.446 185.688 83.4476 187.048V206.362C83.446 207.722 82.9039 209.026 81.9403 209.988C80.9767 210.95 79.6703 211.491 78.3075 211.492Z" fill="#E6E6E6"/>
<path d="M141.198 211.492H108.543C107.18 211.491 105.874 210.95 104.91 209.988C103.947 209.026 103.405 207.722 103.403 206.362V187.048C103.405 185.688 103.947 184.384 104.91 183.422C105.874 182.46 107.18 181.919 108.543 181.917H141.198C142.56 181.919 143.867 182.46 144.83 183.422C145.794 184.384 146.336 185.688 146.338 187.048V206.362C146.336 207.722 145.794 209.026 144.83 209.988C143.867 210.95 142.56 211.491 141.198 211.492Z" fill="#E6E6E6"/>
<path d="M204.088 211.492H171.433C170.07 211.491 168.764 210.95 167.8 209.988C166.837 209.026 166.295 207.722 166.293 206.362V187.048C166.295 185.688 166.837 184.384 167.8 183.422C168.764 182.46 170.07 181.919 171.433 181.917H204.088C205.45 181.919 206.757 182.46 207.72 183.422C208.684 184.384 209.226 185.688 209.228 187.048V206.362C209.226 207.722 208.684 209.026 207.72 209.988C206.757 210.95 205.45 211.491 204.088 211.492Z" fill="#E6E6E6"/>
<path d="M60.1662 121.561C59.6051 121.56 59.0671 121.337 58.6703 120.941C58.2736 120.545 58.0504 120.008 58.0497 119.448V89.27C58.0497 88.7097 58.2727 88.1724 58.6696 87.7762C59.0665 87.38 59.6048 87.1575 60.1662 87.1575C60.7275 87.1575 61.2658 87.38 61.6627 87.7762C62.0597 88.1724 62.2827 88.7097 62.2827 89.27V119.448C62.282 120.008 62.0588 120.545 61.662 120.941C61.2652 121.337 60.7273 121.56 60.1662 121.561Z" fill="#3F3D56"/>
<path d="M187.76 121.561C187.199 121.56 186.661 121.337 186.264 120.941C185.868 120.545 185.644 120.008 185.644 119.448V89.27C185.644 88.7097 185.867 88.1724 186.264 87.7762C186.661 87.38 187.199 87.1575 187.76 87.1575C188.322 87.1575 188.86 87.38 189.257 87.7762C189.654 88.1724 189.877 88.7097 189.877 89.27V119.448C189.876 120.008 189.653 120.545 189.256 120.941C188.859 121.337 188.321 121.56 187.76 121.561Z" fill="#3F3D56"/>
<path d="M60.4435 165.906C59.5532 165.907 58.6865 165.62 57.9742 165.086L57.93 165.053L48.6291 157.952C47.7592 157.286 47.1898 156.303 47.0462 155.218C46.9027 154.133 47.1967 153.036 47.8637 152.168C48.5306 151.3 49.5159 150.731 50.6026 150.588C51.6894 150.445 52.7887 150.738 53.6586 151.404L59.683 156.015L73.9189 137.478C74.249 137.048 74.6607 136.687 75.1304 136.416C75.6002 136.145 76.1188 135.969 76.6567 135.899C77.1946 135.828 77.7412 135.863 78.2653 136.003C78.7894 136.143 79.2808 136.385 79.7114 136.714L79.7126 136.715L79.6243 136.837L79.715 136.715C80.5837 137.381 81.152 138.365 81.2953 139.449C81.4386 140.533 81.1451 141.629 80.4792 142.498L63.7347 164.292C63.3473 164.794 62.8492 165.2 62.2791 165.479C61.709 165.758 61.0821 165.903 60.4471 165.901L60.4435 165.906Z" fill="#6C63FF"/>
<path d="M125.148 203.93C124.257 203.932 123.391 203.644 122.678 203.111L122.634 203.078L113.333 195.977C112.463 195.311 111.894 194.328 111.75 193.243C111.607 192.158 111.901 191.061 112.568 190.193C113.235 189.325 114.22 188.756 115.307 188.613C116.394 188.47 117.493 188.763 118.363 189.429L124.387 194.04L138.623 175.503C138.953 175.073 139.365 174.712 139.835 174.441C140.304 174.17 140.823 173.994 141.361 173.923C141.899 173.853 142.445 173.888 142.97 174.028C143.494 174.168 143.985 174.41 144.416 174.739L144.417 174.74L144.328 174.862L144.419 174.74C145.288 175.406 145.856 176.389 146 177.474C146.143 178.558 145.849 179.654 145.183 180.523L128.439 202.317C128.052 202.819 127.553 203.225 126.983 203.504C126.413 203.783 125.786 203.927 125.151 203.926L125.148 203.93Z" fill="#6C63FF"/>
<path d="M186.224 165.906C185.333 165.907 184.467 165.62 183.754 165.086L183.71 165.053L174.409 157.952C173.539 157.286 172.97 156.303 172.826 155.218C172.683 154.133 172.977 153.036 173.644 152.168C174.311 151.3 175.296 150.731 176.383 150.588C177.469 150.445 178.569 150.738 179.439 151.404L185.463 156.015L199.699 137.478C200.029 137.048 200.441 136.687 200.91 136.416C201.38 136.145 201.899 135.969 202.437 135.899C202.975 135.828 203.521 135.863 204.045 136.003C204.569 136.143 205.061 136.385 205.491 136.714L205.493 136.715L205.404 136.837L205.495 136.715C206.364 137.381 206.932 138.365 207.075 139.449C207.219 140.533 206.925 141.629 206.259 142.498L189.515 164.292C189.127 164.794 188.629 165.2 188.059 165.479C187.489 165.758 186.862 165.903 186.227 165.901L186.224 165.906Z" fill="#6C63FF"/>
</g>
<defs>
<clipPath id="clip0_148_370">
<rect width="322" height="235" fill="white" transform="translate(26 69)"/>
</clipPath>
</defs>
</svg>
